<svg width="22" height="22" viewBox="0 0 22 22" fill="none" xmlns="http://www.w3.org/2000/svg">
<g id="heroicons:arrow-left-16-solid">
<path id="Vector" fill-rule="evenodd" clip-rule="evenodd" d="M3.0251 11.05C3.0251 10.784 3.13079 10.5288 3.31891 10.3407C3.50703 10.1526 3.76218 10.0469 4.02823 10.0469L15.6511 10.0469L11.3444 5.74015C11.2458 5.64831 11.1667 5.53756 11.1119 5.41452C11.0571 5.29147 11.0276 5.15863 11.0252 5.02394C11.0229 4.88925 11.0476 4.75547 11.0981 4.63056C11.1485 4.50565 11.2236 4.39219 11.3189 4.29693C11.4141 4.20168 11.5276 4.12658 11.6525 4.07613C11.7774 4.02568 11.9112 4.0009 12.0459 4.00328C12.1806 4.00566 12.3134 4.03514 12.4365 4.08996C12.5595 4.14479 12.6703 4.22384 12.7621 4.3224L18.7809 10.3411C18.9687 10.5292 19.0742 10.7842 19.0742 11.05C19.0742 11.3159 18.9687 11.5708 18.7809 11.7589L12.7621 17.7776C12.5719 17.9548 12.3204 18.0513 12.0606 18.0467C11.8007 18.0421 11.5527 17.9369 11.3689 17.7531C11.1851 17.5693 11.0799 17.3213 11.0753 17.0614C11.0707 16.8016 11.1672 16.5501 11.3444 16.3599L15.6511 12.0531L4.02823 12.0531C3.76218 12.0531 3.50703 11.9475 3.31891 11.7593C3.13079 11.5712 3.0251 11.3161 3.0251 11.05Z" fill="#198425"/>
</g>
</svg>
