<svg width="1920" height="989" viewBox="0 0 1920 989" fill="none" xmlns="http://www.w3.org/2000/svg">
<rect x="505.25" y="288" width="180.75" height="171.255" fill="#D1E3D7"/>
<rect x="324.5" y="288" width="180.75" height="171.255" fill="#D3F1DC"/>
<rect x="143.75" y="457.49" width="180.75" height="171.255" fill="#CEEFD8"/>
<rect x="143.75" y="288" width="180.75" height="171.255" fill="#CEE9D6"/>
<rect x="-37" y="628.744" width="180.75" height="171.255" fill="#CEE9D6"/>
<rect x="-37" y="457.49" width="180.75" height="171.255" fill="#CEE5D5"/>
<rect x="324.5" y="459.256" width="180.75" height="171.255" fill="#C6E1CE"/>
<rect width="180.75" height="171.255" transform="translate(505.25 459.256)" fill="#CEE9D6"/>
<rect x="505.25" y="459.256" width="180.75" height="171.255" fill="#D1E8D8"/>
<rect x="505.25" y="628.744" width="180.75" height="171.255" fill="#C6E1CE"/>
<rect x="324.5" y="628.744" width="180.75" height="171.255" fill="#CCF6D9"/>
<rect x="143.75" y="770.561" width="180.75" height="218.438" fill="#C6E1CE"/>
<path opacity="0.84" d="M0 0H1920V989H0V0Z" fill="#60CD82"/>
<path d="M626 724.764C646.833 798.097 737 896.264 931 702.264C1173.5 459.764 1106.5 9.26415 1532.5 199.764C1958.5 390.264 1891 695.264 1617.5 767.264C1344 839.264 1144 780.764 1180 554.264C1216 327.764 1599.5 125.764 1676 370.264C1752.5 614.764 1581.5 787.264 1447 744.764C1312.5 702.264 1124 579.264 1339.5 442.264C1555 305.264 1684.5 405.764 1617.5 522.764C1550.5 639.764 1366.5 765.264 1395.5 637.264C1424.5 509.264 1450 439.264 1485.5 473.264C1521 507.264 1508 536.264 1485.5 554.264C1463 572.264 1444.5 549.764 1465 522.764" stroke="white"/>
<path d="M626.5 725.5H242.5" stroke="white"/>
</svg>
