<svg width="104" height="105" viewBox="0 0 104 105" fill="none" xmlns="http://www.w3.org/2000/svg">
<path d="M55.1893 82.6502C51.9574 82.8277 48.7726 82.7345 45.5897 82.6228C41.7774 82.4889 38.0038 82.0116 34.253 81.3172C31.7727 80.858 29.2948 80.4019 26.8734 79.6888C24.8587 79.0955 22.8981 78.3685 21.1178 77.2377C19.6746 76.3211 18.4501 75.2006 17.832 73.5559C17.789 73.4414 17.6934 73.3273 17.8162 73.0913C18.4206 73.9401 19.0575 74.7053 19.9664 75.2072C20.0205 75.0234 19.9132 74.946 19.8493 74.863C17.1208 71.3188 17.5726 66.212 20.3071 62.8216C21.8347 60.9277 23.8119 59.6679 26.0849 58.8357C27.2494 58.4093 28.4412 58.0919 29.6868 58.0081C29.7994 58.0005 29.9147 57.9669 30.0285 58.088C29.9183 58.27 29.7178 58.3108 29.5535 58.3945C27.2957 59.5457 25.1492 60.8643 23.4155 62.7305C20.6243 65.7348 19.7173 69.2156 20.9164 73.1643C21.2823 74.3693 21.9626 75.4187 22.7778 76.3787C22.8595 76.4749 22.9706 76.5713 23.0874 76.6097C24.7332 77.151 26.4298 77.4519 28.1592 77.6422C27.1851 77.0018 26.3364 76.2452 25.6549 75.3071C23.4594 72.2853 23.6271 68.3646 26.0174 65.4873C27.7024 63.4588 29.9397 62.3276 32.3598 61.4773C35.044 60.5342 37.8218 60.0176 40.6476 59.6751C43.5744 59.3204 46.5044 59.2738 49.4407 59.3469C51.0398 59.3868 52.6281 59.5932 54.2089 59.8369C54.4643 59.8762 54.7289 59.91 54.9936 60.0703C54.8197 60.2147 54.6249 60.2201 54.4436 60.238C50.5532 60.6222 46.693 61.2131 42.8524 61.9279C39.5933 62.5346 36.3536 63.2279 33.2363 64.3841C31.8253 64.9074 30.4557 65.5184 29.259 66.4438C26.349 68.6941 25.7335 72.1345 27.6602 75.2738C28.0229 75.8648 28.4634 76.3876 28.9482 76.8843C29.7638 77.72 30.7632 78.1046 31.9121 78.159C32.4962 78.1866 33.0747 78.3291 33.7962 78.2546C32.8688 77.8608 32.0521 77.5196 31.3423 76.9774C29.9761 75.9338 29.1119 74.5883 29.0406 72.8683C28.9755 71.2963 29.6294 69.9394 30.6505 68.7571C32.1004 67.0784 33.9715 66.0286 36.0437 65.3242C39.3333 64.2059 42.7324 63.5912 46.1853 63.2178C49.8661 62.8197 53.5553 62.69 57.2526 62.7796C60.7663 62.8647 64.2763 63.0844 67.7274 63.7661C71.2857 64.4689 74.7252 65.5483 77.831 67.4851C78.5889 67.9578 79.2741 68.519 79.8565 69.1993C81.3088 70.8957 81.3183 72.8918 79.8778 74.6012C79.7002 74.8119 79.5216 75.0218 79.3227 75.2566C79.4096 75.2858 79.4594 75.322 79.4905 75.3101C81.4342 74.5649 83.2595 73.6301 84.5955 71.9797C85.573 70.7723 85.6036 69.6734 84.7388 68.3699C83.7351 66.857 82.3195 65.7821 80.7906 64.8568C76.9857 62.5538 72.8585 61.0993 68.4711 60.3518C67.233 60.1409 65.9887 60.0224 64.7311 60.0603C64.6366 60.0632 64.5413 60.0392 64.4029 60.0225C64.5519 59.8203 64.7391 59.8268 64.9078 59.8036C67.7305 59.4162 70.5337 59.5823 73.3216 60.1121C76.169 60.6531 78.9259 61.4768 81.5282 62.763C83.4002 63.6882 85.1725 64.7597 86.5327 66.3776C88.8525 69.1368 88.7248 72.1923 86.2197 74.799C84.4446 76.6461 82.2295 77.7845 79.879 78.6998C75.8307 80.2764 71.6029 81.1099 67.308 81.6839C63.3 82.2194 59.2803 82.5714 55.1893 82.6502ZM61.6677 78.664C63.6241 78.5248 65.5754 78.3365 67.5189 78.072C70.6889 77.6405 73.8201 77.0339 76.9173 76.2206C78.0488 75.9235 78.767 75.2991 79.2944 74.3434C79.3657 74.2142 79.4441 74.0888 79.5117 73.9577C80.2854 72.4576 80.0012 71.0839 78.7009 70.0014C78.3455 69.7055 77.9645 69.4476 77.5632 69.2195C75.1365 67.8406 72.4593 67.1792 69.7561 66.6517C66.1512 65.9481 62.4805 65.8665 58.8221 65.7751C55.5897 65.6943 52.3558 65.7473 49.1227 65.9162C45.7765 66.0911 42.4435 66.3449 39.1434 66.9415C36.7817 67.3685 34.518 68.0458 32.6057 69.5591C31.5431 70.4 30.7469 71.4438 30.6458 72.8419C30.5342 74.3844 31.315 75.5282 32.4634 76.4691C33.6752 77.4619 35.1024 77.9984 36.6048 78.3691C39.2521 79.0225 41.966 79.0561 44.6637 79.1258C48.9527 79.2366 53.2443 79.1977 57.5302 78.948C58.8795 78.8694 60.2273 78.7638 61.6677 78.664Z" fill="#9ACEAA"/>
<path d="M41.3117 87.4494C37.7106 87.1786 34.1843 86.7114 30.7131 85.8923C27.0774 85.0344 23.516 83.9599 20.2282 82.145C18.1475 80.9965 16.2511 79.617 14.8522 77.6673C12.6518 74.6006 12.5967 71.3796 14.2336 68.0697C15.0496 66.4197 16.2029 65.0149 17.5633 63.774C17.6475 63.6972 17.7427 63.6316 17.8373 63.5674C17.8578 63.5535 17.8982 63.5683 17.9596 63.5714C17.9609 63.7887 17.7907 63.911 17.688 64.0625C16.435 65.9104 15.4159 67.8559 15.0635 70.0912C14.6248 72.8738 15.5604 75.1381 17.6748 76.9613C19.5633 78.5896 21.7948 79.6056 24.1197 80.4283C28.1112 81.8406 32.2459 82.6659 36.4294 83.2674C39.3186 83.6829 42.2237 83.9302 45.1393 84.0928C48.1074 84.2582 51.0773 84.3197 54.0448 84.2343C57.6534 84.1305 61.2581 83.9273 64.8581 83.6162C68.0457 83.3408 71.2174 82.9474 74.3934 82.5812C74.6506 82.5515 74.8995 82.4253 75.2166 82.5189C75.0668 82.7424 74.8319 82.7699 74.6357 82.842C71.3671 84.0421 68.0169 84.9616 64.6104 85.683C61.077 86.4312 57.5149 86.9821 53.9111 87.2819C50.9495 87.5282 47.9866 87.6802 45.0153 87.6162C43.7956 87.59 42.577 87.5079 41.3117 87.4494Z" fill="#9ACEAA"/>
<path d="M80.8901 84.9496C76.441 87.3708 71.7828 89.1881 66.9355 90.5261C63.6278 91.4391 60.263 92.0728 56.8511 92.4881C53.5669 92.8879 50.2749 93.008 46.9734 92.9553C40.7507 92.8559 34.6615 91.9558 28.7559 89.9481C24.5866 88.5307 20.69 86.6179 17.2516 83.8505C16.4816 83.2308 15.7612 82.558 15.0889 81.8352C15.005 81.745 14.8751 81.6725 14.906 81.5125C15.0174 81.4346 15.0956 81.5183 15.1687 81.5727C17.9161 83.6145 20.9937 85.027 24.192 86.2C28.3707 87.7327 32.6923 88.6807 37.103 89.2626C41.6918 89.8679 46.3028 90.0737 50.9237 89.9326C54.7973 89.8143 58.6492 89.4231 62.4732 88.7628C70.1754 87.4328 77.5514 85.1104 84.5724 81.6966C85.935 81.0341 87.2687 80.3131 88.5644 79.5266C88.6719 79.4614 88.7744 79.364 88.9224 79.4063C88.668 80.0699 85.0718 82.5522 80.8901 84.9496Z" fill="#9ACEAA"/>
<path d="M33.2873 58.4544C36.3199 57.1209 39.433 56.1685 42.6575 55.5778C44.7822 55.1885 46.9282 54.9583 49.0808 54.7912C53.0487 54.4831 57.0247 54.4779 61.0011 54.4927C65.284 54.5086 69.5189 54.9436 73.7104 55.8357C77.5528 56.6535 81.2697 57.8073 84.7263 59.6915C87.0016 60.9319 89.0586 62.4355 90.613 64.5482C93.1127 67.9458 92.8798 72.2741 90.059 75.4271C87.7823 77.9718 84.8999 79.5675 81.7669 80.7879C80.8625 81.1402 79.9276 81.4158 79.004 81.7184C78.8589 81.7659 78.707 81.8591 78.4484 81.7214C79.0846 81.4344 79.6657 81.1859 80.2349 80.9133C83.0427 79.5684 85.7111 78.017 87.8907 75.7563C88.9632 74.6439 89.8448 73.4088 90.2917 71.9121C91.0405 69.4042 90.348 67.2349 88.6674 65.3205C87.1446 63.5858 85.2263 62.3769 83.1608 61.3889C79.3263 59.5548 75.2595 58.4774 71.0735 57.7998C67.5525 57.2297 64.0078 56.9591 60.4413 56.8868C56.7445 56.8119 53.0481 56.7836 49.3513 56.82C43.4463 56.878 37.6505 57.6543 32.0128 59.4543C31.5833 59.5914 31.151 59.746 30.6748 59.7313C31.4872 59.2117 32.3852 58.8704 33.2873 58.4544Z" fill="#9ACEAA"/>
<path d="M68.886 45.6624H66.0858C65.8718 48.806 64.6158 51.7883 62.5166 54.1368L64.4947 56.0998C67.1333 53.2418 68.6872 49.5484 68.886 45.6624Z" fill="#6EDF8B"/>
<path d="M52.7119 58.8507V61.6497C56.6097 61.4816 60.3309 59.9763 63.2505 57.3865L61.2682 55.4058C58.882 57.4805 55.869 58.6936 52.7119 58.8507Z" fill="#6EDF8B"/>
<path d="M62.5742 35.3706C64.6707 37.7384 65.9107 40.743 66.0946 43.9013H68.8932C68.6976 40.0074 67.1647 36.3005 64.5536 33.407L62.5742 35.3706Z" fill="#6EDF8B"/>
<path d="M52.7119 30.6731C55.8984 30.838 58.9365 32.0726 61.3358 34.1776L63.3181 32.1969C60.4008 29.5523 56.6453 28.0217 52.7119 27.8743V30.6731Z" fill="#6EDF8B"/>
<path d="M35.1631 45.6624C35.3794 49.5049 36.8984 53.1588 39.4693 56.021L41.4485 54.0239C39.3921 51.7008 38.1661 48.7593 37.9633 45.6624H35.1631Z" fill="#6EDF8B"/>
<path d="M50.9529 58.8257C47.889 58.6053 44.9849 57.3726 42.6971 55.321L40.7217 57.3018C43.5407 59.8672 47.1499 61.3934 50.9529 61.6284V58.8257Z" fill="#6EDF8B"/>
<path d="M39.6875 44.762C39.6875 47.2035 40.4109 49.5902 41.7663 51.6203C43.1217 53.6503 45.0482 55.2325 47.3022 56.1669C49.5561 57.1012 52.0363 57.3456 54.429 56.8693C56.8218 56.3929 59.0197 55.2172 60.7447 53.4907C62.4698 51.7643 63.6445 49.5646 64.1204 47.17C64.5963 44.7754 64.352 42.2933 63.4183 40.0376C62.4847 37.782 60.9036 35.8541 58.8751 34.4977C56.8465 33.1413 54.4616 32.4174 52.022 32.4175C48.7518 32.4213 45.6166 33.7232 43.3043 36.0374C40.9919 38.3516 39.6912 41.4892 39.6875 44.762ZM50.6549 40.6739H48.8249C48.5916 40.6739 48.3679 40.5811 48.2029 40.416C48.0379 40.2509 47.9453 40.027 47.9453 39.7935C47.9453 39.56 48.0379 39.3361 48.2029 39.171C48.3679 39.0059 48.5916 38.9132 48.8249 38.9132H55.22C55.3355 38.9132 55.4499 38.936 55.5566 38.9802C55.6633 39.0244 55.7603 39.0893 55.842 39.171C55.9237 39.2528 55.9885 39.3498 56.0327 39.4566C56.0769 39.5634 56.0996 39.6779 56.0996 39.7935C56.0996 39.9091 56.0769 40.0236 56.0327 40.1304C55.9885 40.2372 55.9237 40.3343 55.842 40.416C55.7603 40.4978 55.6633 40.5626 55.5566 40.6068C55.4499 40.6511 55.3355 40.6739 55.22 40.6739H53.7606C53.962 40.9866 54.101 41.3353 54.1698 41.7009H55.22C55.4533 41.7009 55.677 41.7937 55.842 41.9588C56.007 42.1238 56.0996 42.3478 56.0996 42.5812C56.0996 42.8147 56.007 43.0386 55.842 43.2037C55.677 43.3688 55.4533 43.4616 55.22 43.4616H54.1698C53.9886 44.1856 53.5887 44.8361 53.0246 45.3245C52.4606 45.8129 51.7598 46.1153 51.0177 46.1906L54.0033 48.9989C54.1316 49.1207 54.2206 49.2781 54.2588 49.4509C54.297 49.6237 54.2827 49.804 54.2177 49.9686C54.1527 50.1332 54.04 50.2746 53.8941 50.3746C53.7481 50.4745 53.5757 50.5286 53.3988 50.5296C53.1741 50.5297 52.9578 50.4434 52.7948 50.2886L48.2206 45.9422C48.0922 45.8159 48.0036 45.6546 47.9657 45.4785C47.9278 45.3023 47.9423 45.1188 48.0074 44.9508C48.0699 44.7809 48.1805 44.6328 48.3257 44.5247C48.4708 44.4166 48.6443 44.3531 48.8249 44.3419H50.6549C51.3648 44.3419 51.983 44.0485 52.2978 43.4616H48.8249C48.5916 43.4616 48.3679 43.3688 48.2029 43.2037C48.0379 43.0386 47.9453 42.8147 47.9453 42.5812C47.9453 42.3478 48.0379 42.1238 48.2029 41.9588C48.3679 41.7937 48.5916 41.7009 48.8249 41.7009H52.2978C52.141 41.3981 51.9058 41.1431 51.6167 40.9624C51.3277 40.7818 50.9955 40.6821 50.6549 40.6739Z" fill="#6EDF8B"/>
<path d="M42.6329 34.262C44.9329 32.1809 47.8607 30.9268 50.953 30.6982V27.8958C47.1195 28.1388 43.4844 29.6868 40.6514 32.2828L42.6329 34.262Z" fill="#6EDF8B"/>
<path d="M35.1533 43.9019H37.9519C38.1247 40.7903 39.3343 37.8264 41.3876 35.4835L39.4084 33.4863C36.8402 36.3682 35.3382 40.0449 35.1533 43.9019Z" fill="#6EDF8B"/>
<path d="M52.7124 23.1339V14.4773C52.7124 14.2438 52.6198 14.0199 52.4548 13.8548C52.2898 13.6897 52.0661 13.5969 51.8328 13.5969C51.5995 13.5969 51.3757 13.6897 51.2108 13.8548C51.0458 14.0199 50.9531 14.2438 50.9531 14.4773V23.1339C50.9531 23.3674 51.0458 23.5913 51.2108 23.7564C51.3757 23.9215 51.5995 24.0142 51.8328 24.0142C52.0661 24.0142 52.2898 23.9215 52.4548 23.7564C52.6198 23.5913 52.7124 23.3674 52.7124 23.1339Z" fill="#6EDF8B"/>
<path d="M58.4302 23.134V17.2651C58.4302 17.0316 58.3375 16.8077 58.1726 16.6426C58.0076 16.4775 57.7839 16.3848 57.5506 16.3848C57.3173 16.3848 57.0935 16.4775 56.9285 16.6426C56.7636 16.8077 56.6709 17.0316 56.6709 17.2651V23.134C56.6709 23.3675 56.7636 23.5914 56.9285 23.7565C57.0935 23.9216 57.3173 24.0143 57.5506 24.0143C57.7839 24.0143 58.0076 23.9216 58.1726 23.7565C58.3375 23.5914 58.4302 23.3675 58.4302 23.134Z" fill="#6EDF8B"/>
<path d="M47.1411 23.134V17.2651C47.1411 17.0316 47.0485 16.8077 46.8835 16.6426C46.7185 16.4775 46.4948 16.3848 46.2615 16.3848C46.0282 16.3848 45.8044 16.4775 45.6395 16.6426C45.4745 16.8077 45.3818 17.0316 45.3818 17.2651V23.134C45.3818 23.3675 45.4745 23.5914 45.6395 23.7565C45.8044 23.9216 46.0282 24.0143 46.2615 24.0143C46.4948 24.0143 46.7185 23.9216 46.8835 23.7565C47.0485 23.5914 47.1411 23.3675 47.1411 23.134Z" fill="#6EDF8B"/>
<path d="M61.655 19.1724C61.4217 19.1724 61.198 19.2651 61.033 19.4302C60.8681 19.5953 60.7754 19.8192 60.7754 20.0527V24.6011C60.7754 24.8346 60.8681 25.0585 61.033 25.2236C61.198 25.3887 61.4217 25.4814 61.655 25.4814C61.8883 25.4814 62.1121 25.3887 62.2771 25.2236C62.442 25.0585 62.5347 24.8346 62.5347 24.6011V20.0527C62.5347 19.8192 62.442 19.5953 62.2771 19.4302C62.1121 19.2651 61.8883 19.1724 61.655 19.1724Z" fill="#6EDF8B"/>
<path d="M42.8892 24.6011V20.0527C42.8892 19.8192 42.7965 19.5953 42.6315 19.4302C42.4666 19.2651 42.2428 19.1724 42.0095 19.1724C41.7762 19.1724 41.5525 19.2651 41.3875 19.4302C41.2226 19.5953 41.1299 19.8192 41.1299 20.0527V24.6011C41.1299 24.8346 41.2226 25.0585 41.3875 25.2236C41.5525 25.3887 41.7762 25.4814 42.0095 25.4814C42.2428 25.4814 42.4666 25.3887 42.6315 25.2236C42.7965 25.0585 42.8892 24.8346 42.8892 24.6011Z" fill="#6EDF8B"/>
</svg>
