<svg width="104" height="105" viewBox="0 0 104 105" fill="none" xmlns="http://www.w3.org/2000/svg">
<g clip-path="url(#clip0_332_1475)">
<path d="M55.1893 82.6502C51.9574 82.8277 48.7726 82.7345 45.5897 82.6228C41.7774 82.4889 38.0038 82.0116 34.253 81.3172C31.7727 80.858 29.2948 80.4019 26.8734 79.6888C24.8587 79.0955 22.8981 78.3685 21.1178 77.2377C19.6746 76.3211 18.4501 75.2006 17.832 73.5559C17.789 73.4414 17.6934 73.3273 17.8162 73.0913C18.4206 73.9401 19.0575 74.7053 19.9664 75.2072C20.0205 75.0234 19.9132 74.946 19.8493 74.863C17.1208 71.3188 17.5726 66.212 20.3071 62.8216C21.8347 60.9277 23.8119 59.6679 26.0849 58.8357C27.2494 58.4093 28.4412 58.0919 29.6868 58.0081C29.7994 58.0005 29.9147 57.9669 30.0285 58.088C29.9183 58.27 29.7178 58.3108 29.5535 58.3945C27.2957 59.5457 25.1492 60.8643 23.4155 62.7305C20.6243 65.7348 19.7173 69.2156 20.9164 73.1643C21.2823 74.3693 21.9626 75.4187 22.7778 76.3787C22.8595 76.4749 22.9706 76.5713 23.0874 76.6097C24.7332 77.151 26.4298 77.4519 28.1592 77.6422C27.1851 77.0018 26.3364 76.2452 25.6549 75.3071C23.4594 72.2853 23.6271 68.3646 26.0174 65.4873C27.7024 63.4588 29.9397 62.3276 32.3598 61.4773C35.044 60.5342 37.8218 60.0176 40.6476 59.6751C43.5744 59.3204 46.5044 59.2738 49.4407 59.3469C51.0398 59.3868 52.6281 59.5932 54.2089 59.8369C54.4643 59.8762 54.7289 59.91 54.9936 60.0703C54.8197 60.2147 54.6249 60.2201 54.4436 60.238C50.5532 60.6222 46.693 61.2131 42.8524 61.9279C39.5933 62.5346 36.3536 63.2279 33.2363 64.3841C31.8253 64.9074 30.4557 65.5184 29.259 66.4438C26.349 68.6941 25.7335 72.1345 27.6602 75.2738C28.0229 75.8648 28.4634 76.3876 28.9482 76.8843C29.7638 77.72 30.7632 78.1046 31.9121 78.159C32.4962 78.1866 33.0747 78.3291 33.7962 78.2546C32.8688 77.8608 32.0521 77.5196 31.3423 76.9774C29.9761 75.9338 29.1119 74.5883 29.0406 72.8683C28.9755 71.2963 29.6294 69.9394 30.6505 68.7571C32.1004 67.0784 33.9715 66.0286 36.0437 65.3242C39.3333 64.2059 42.7324 63.5912 46.1853 63.2178C49.8661 62.8197 53.5553 62.69 57.2526 62.7796C60.7663 62.8647 64.2763 63.0844 67.7274 63.7661C71.2857 64.4689 74.7252 65.5483 77.831 67.4851C78.5889 67.9578 79.2741 68.519 79.8565 69.1993C81.3088 70.8957 81.3183 72.8918 79.8778 74.6012C79.7002 74.8119 79.5216 75.0218 79.3227 75.2566C79.4096 75.2858 79.4594 75.322 79.4905 75.3101C81.4342 74.5649 83.2595 73.6301 84.5955 71.9797C85.573 70.7723 85.6036 69.6734 84.7388 68.3699C83.7351 66.857 82.3195 65.7821 80.7906 64.8568C76.9857 62.5538 72.8585 61.0993 68.4711 60.3518C67.233 60.1409 65.9887 60.0224 64.7311 60.0603C64.6366 60.0632 64.5413 60.0392 64.4029 60.0225C64.5519 59.8203 64.7391 59.8268 64.9078 59.8036C67.7305 59.4162 70.5337 59.5823 73.3216 60.1121C76.169 60.6531 78.9259 61.4768 81.5282 62.763C83.4002 63.6882 85.1725 64.7597 86.5327 66.3776C88.8525 69.1368 88.7248 72.1923 86.2197 74.799C84.4446 76.6461 82.2295 77.7845 79.879 78.6998C75.8307 80.2764 71.6029 81.1099 67.308 81.6839C63.3 82.2194 59.2803 82.5714 55.1893 82.6502ZM61.6677 78.664C63.6241 78.5248 65.5754 78.3365 67.5189 78.072C70.6889 77.6405 73.8201 77.0339 76.9173 76.2206C78.0488 75.9235 78.767 75.2991 79.2944 74.3434C79.3657 74.2142 79.4441 74.0888 79.5117 73.9577C80.2854 72.4576 80.0012 71.0839 78.7009 70.0014C78.3455 69.7055 77.9645 69.4476 77.5632 69.2195C75.1365 67.8406 72.4593 67.1792 69.7561 66.6517C66.1512 65.9481 62.4805 65.8665 58.8221 65.7751C55.5897 65.6943 52.3558 65.7473 49.1227 65.9162C45.7765 66.0911 42.4435 66.3449 39.1434 66.9415C36.7817 67.3685 34.518 68.0458 32.6057 69.5591C31.5431 70.4 30.7469 71.4438 30.6458 72.8419C30.5342 74.3844 31.315 75.5282 32.4634 76.4691C33.6752 77.4619 35.1024 77.9984 36.6048 78.3691C39.2521 79.0225 41.966 79.0561 44.6637 79.1258C48.9527 79.2366 53.2443 79.1977 57.5302 78.948C58.8795 78.8694 60.2273 78.7638 61.6677 78.664Z" fill="#9ACEAA"/>
<path d="M41.3117 87.4494C37.7106 87.1786 34.1843 86.7114 30.7131 85.8923C27.0774 85.0344 23.516 83.9599 20.2282 82.145C18.1475 80.9965 16.2511 79.617 14.8522 77.6673C12.6518 74.6006 12.5967 71.3796 14.2336 68.0697C15.0496 66.4197 16.2029 65.0149 17.5633 63.774C17.6475 63.6972 17.7427 63.6316 17.8373 63.5674C17.8578 63.5535 17.8982 63.5683 17.9596 63.5714C17.9609 63.7887 17.7907 63.911 17.688 64.0625C16.435 65.9104 15.4159 67.8559 15.0635 70.0912C14.6248 72.8738 15.5604 75.1381 17.6748 76.9613C19.5633 78.5896 21.7948 79.6056 24.1197 80.4283C28.1112 81.8406 32.2459 82.6659 36.4294 83.2674C39.3186 83.6829 42.2237 83.9302 45.1393 84.0928C48.1074 84.2582 51.0773 84.3197 54.0448 84.2343C57.6534 84.1305 61.2581 83.9273 64.8581 83.6162C68.0457 83.3408 71.2174 82.9474 74.3934 82.5812C74.6506 82.5515 74.8995 82.4253 75.2166 82.5189C75.0668 82.7424 74.8319 82.7699 74.6357 82.842C71.3671 84.0421 68.0169 84.9616 64.6104 85.683C61.077 86.4312 57.5149 86.9821 53.9111 87.2819C50.9495 87.5282 47.9866 87.6802 45.0153 87.6162C43.7956 87.59 42.577 87.5079 41.3117 87.4494Z" fill="#9ACEAA"/>
<path d="M80.8901 84.9496C76.441 87.3708 71.7828 89.1881 66.9355 90.5261C63.6278 91.4391 60.263 92.0728 56.8511 92.4881C53.5669 92.8879 50.2749 93.008 46.9734 92.9553C40.7507 92.8559 34.6615 91.9558 28.7559 89.9481C24.5866 88.5307 20.69 86.6179 17.2516 83.8505C16.4816 83.2308 15.7612 82.558 15.0889 81.8352C15.005 81.745 14.8751 81.6725 14.906 81.5125C15.0174 81.4346 15.0956 81.5183 15.1687 81.5727C17.9161 83.6145 20.9937 85.027 24.192 86.2C28.3707 87.7327 32.6923 88.6807 37.103 89.2626C41.6918 89.8679 46.3028 90.0737 50.9237 89.9326C54.7973 89.8143 58.6492 89.4231 62.4732 88.7628C70.1754 87.4328 77.5514 85.1104 84.5724 81.6966C85.935 81.0341 87.2687 80.3131 88.5644 79.5266C88.6719 79.4614 88.7744 79.364 88.9224 79.4063C88.668 80.0699 85.0718 82.5522 80.8901 84.9496Z" fill="#9ACEAA"/>
<path d="M33.2873 58.4544C36.3199 57.1209 39.433 56.1685 42.6575 55.5778C44.7822 55.1885 46.9282 54.9583 49.0808 54.7912C53.0487 54.4831 57.0247 54.4779 61.0011 54.4927C65.284 54.5086 69.5189 54.9436 73.7104 55.8357C77.5528 56.6535 81.2697 57.8073 84.7263 59.6915C87.0016 60.9319 89.0586 62.4355 90.613 64.5482C93.1127 67.9458 92.8798 72.2741 90.059 75.4271C87.7823 77.9718 84.8999 79.5675 81.7669 80.7879C80.8625 81.1402 79.9276 81.4158 79.004 81.7184C78.8589 81.7659 78.707 81.8591 78.4484 81.7214C79.0846 81.4344 79.6657 81.1859 80.2349 80.9133C83.0427 79.5684 85.7111 78.017 87.8907 75.7563C88.9632 74.6439 89.8448 73.4088 90.2917 71.9121C91.0405 69.4042 90.348 67.2349 88.6674 65.3205C87.1446 63.5858 85.2263 62.3769 83.1608 61.3889C79.3263 59.5548 75.2595 58.4774 71.0735 57.7998C67.5525 57.2297 64.0078 56.9591 60.4413 56.8868C56.7445 56.8119 53.0481 56.7836 49.3513 56.82C43.4463 56.878 37.6505 57.6543 32.0128 59.4543C31.5833 59.5914 31.151 59.746 30.6748 59.7313C31.4872 59.2117 32.3852 58.8704 33.2873 58.4544Z" fill="#9ACEAA"/>
<path d="M13.9434 75.6046L0.5 10.9517H106L91.2341 75.6046C58.3548 96.1782 24.3582 84.1769 13.9434 75.6046Z" fill="url(#paint0_linear_332_1475)"/>
<path d="M68.886 33.1506H66.0858C65.8718 36.2943 64.6158 39.2766 62.5166 41.625L64.4947 43.588C67.1333 40.7301 68.6872 37.0367 68.886 33.1506Z" fill="#6EDF8B"/>
<path d="M52.7119 46.3389V49.138C56.6097 48.9699 60.3309 47.4646 63.2505 44.8748L61.2682 42.894C58.882 44.9688 55.869 46.1819 52.7119 46.3389Z" fill="#6EDF8B"/>
<path d="M62.5742 22.8589C64.6707 25.2267 65.9107 28.2313 66.0946 31.3896H68.8932C68.6976 27.4957 67.1647 23.7888 64.5536 20.8953L62.5742 22.8589Z" fill="#6EDF8B"/>
<path d="M52.7119 18.1614C55.8984 18.3263 58.9365 19.5609 61.3358 21.6659L63.3181 19.6851C60.4008 17.0406 56.6453 15.51 52.7119 15.3625V18.1614Z" fill="#6EDF8B"/>
<path d="M35.1631 33.1506C35.3794 36.9932 36.8984 40.6471 39.4693 43.5092L41.4485 41.5122C39.3921 39.1891 38.1661 36.2476 37.9633 33.1506H35.1631Z" fill="#6EDF8B"/>
<path d="M50.9529 46.3139C47.889 46.0936 44.9849 44.8609 42.6971 42.8093L40.7217 44.7901C43.5407 47.3555 47.1499 48.8817 50.9529 49.1166V46.3139Z" fill="#6EDF8B"/>
<path d="M39.6875 32.2503C39.6875 34.6918 40.4109 37.0785 41.7663 39.1085C43.1217 41.1386 45.0482 42.7208 47.3022 43.6551C49.5561 44.5895 52.0363 44.8339 54.429 44.3575C56.8218 43.8812 59.0197 42.7054 60.7447 40.979C62.4698 39.2525 63.6445 37.0529 64.1204 34.6583C64.5963 32.2637 64.352 29.7816 63.4183 27.5259C62.4847 25.2703 60.9036 23.3424 58.8751 21.986C56.8465 20.6296 54.4616 19.9057 52.022 19.9058C48.7518 19.9096 45.6166 21.2114 43.3043 23.5257C40.9919 25.8399 39.6912 28.9775 39.6875 32.2503ZM50.6549 28.1621H48.8249C48.5916 28.1621 48.3679 28.0694 48.2029 27.9043C48.0379 27.7392 47.9453 27.5153 47.9453 27.2818C47.9453 27.0483 48.0379 26.8244 48.2029 26.6593C48.3679 26.4942 48.5916 26.4015 48.8249 26.4015H55.22C55.3355 26.4015 55.4499 26.4242 55.5566 26.4685C55.6633 26.5127 55.7603 26.5776 55.842 26.6593C55.9237 26.7411 55.9885 26.8381 56.0327 26.9449C56.0769 27.0517 56.0996 27.1662 56.0996 27.2818C56.0996 27.3974 56.0769 27.5119 56.0327 27.6187C55.9885 27.7255 55.9237 27.8225 55.842 27.9043C55.7603 27.986 55.6633 28.0509 55.5566 28.0951C55.4499 28.1394 55.3355 28.1621 55.22 28.1621H53.7606C53.962 28.4748 54.101 28.8236 54.1698 29.1892H55.22C55.4533 29.1892 55.677 29.2819 55.842 29.447C56.007 29.6121 56.0996 29.836 56.0996 30.0695C56.0996 30.303 56.007 30.5269 55.842 30.692C55.677 30.8571 55.4533 30.9499 55.22 30.9499H54.1698C53.9886 31.6739 53.5887 32.3244 53.0246 32.8128C52.4606 33.3011 51.7598 33.6036 51.0177 33.6789L54.0033 36.4872C54.1316 36.609 54.2206 36.7664 54.2588 36.9392C54.297 37.112 54.2827 37.2923 54.2177 37.4569C54.1527 37.6215 54.04 37.7629 53.8941 37.8629C53.7481 37.9628 53.5757 38.0168 53.3988 38.0179C53.1741 38.018 52.9578 37.9317 52.7948 37.7769L48.2206 33.4305C48.0922 33.3041 48.0036 33.1429 47.9657 32.9667C47.9278 32.7906 47.9423 32.6071 48.0074 32.4391C48.0699 32.2692 48.1805 32.1211 48.3257 32.013C48.4708 31.9049 48.6443 31.8413 48.8249 31.8302H50.6549C51.3648 31.8302 51.983 31.5368 52.2978 30.9499H48.8249C48.5916 30.9499 48.3679 30.8571 48.2029 30.692C48.0379 30.5269 47.9453 30.303 47.9453 30.0695C47.9453 29.836 48.0379 29.6121 48.2029 29.447C48.3679 29.2819 48.5916 29.1892 48.8249 29.1892H52.2978C52.141 28.8864 51.9058 28.6314 51.6167 28.4507C51.3277 28.27 50.9955 28.1704 50.6549 28.1621Z" fill="#6EDF8B"/>
<path d="M42.6329 21.7503C44.9329 19.6692 47.8607 18.4151 50.953 18.1864V15.384C47.1195 15.6271 43.4844 17.1751 40.6514 19.771L42.6329 21.7503Z" fill="#6EDF8B"/>
<path d="M35.1533 31.3902H37.9519C38.1247 28.2786 39.3343 25.3147 41.3876 22.9718L39.4084 20.9746C36.8402 23.8565 35.3382 27.5331 35.1533 31.3902Z" fill="#6EDF8B"/>
<path d="M52.7124 10.6222V1.96554C52.7124 1.73206 52.6198 1.50814 52.4548 1.34305C52.2898 1.17795 52.0661 1.08521 51.8328 1.08521C51.5995 1.08521 51.3757 1.17795 51.2108 1.34305C51.0458 1.50814 50.9531 1.73206 50.9531 1.96554V10.6222C50.9531 10.8557 51.0458 11.0796 51.2108 11.2447C51.3757 11.4098 51.5995 11.5025 51.8328 11.5025C52.0661 11.5025 52.2898 11.4098 52.4548 11.2447C52.6198 11.0796 52.7124 10.8557 52.7124 10.6222Z" fill="#6EDF8B"/>
<path d="M58.4302 10.6223V4.75338C58.4302 4.5199 58.3375 4.29599 58.1726 4.13089C58.0076 3.9658 57.7839 3.87305 57.5506 3.87305C57.3173 3.87305 57.0935 3.9658 56.9285 4.13089C56.7636 4.29599 56.6709 4.5199 56.6709 4.75338V10.6223C56.6709 10.8558 56.7636 11.0797 56.9285 11.2448C57.0935 11.4099 57.3173 11.5026 57.5506 11.5026C57.7839 11.5026 58.0076 11.4099 58.1726 11.2448C58.3375 11.0797 58.4302 10.8558 58.4302 10.6223Z" fill="#6EDF8B"/>
<path d="M47.1411 10.6223V4.75338C47.1411 4.5199 47.0485 4.29599 46.8835 4.13089C46.7185 3.9658 46.4948 3.87305 46.2615 3.87305C46.0282 3.87305 45.8044 3.9658 45.6395 4.13089C45.4745 4.29599 45.3818 4.5199 45.3818 4.75338V10.6223C45.3818 10.8558 45.4745 11.0797 45.6395 11.2448C45.8044 11.4099 46.0282 11.5026 46.2615 11.5026C46.4948 11.5026 46.7185 11.4099 46.8835 11.2448C47.0485 11.0797 47.1411 10.8558 47.1411 10.6223Z" fill="#6EDF8B"/>
<path d="M61.655 6.66064C61.4217 6.66064 61.198 6.75339 61.033 6.91849C60.8681 7.08358 60.7754 7.3075 60.7754 7.54098V12.0894C60.7754 12.3229 60.8681 12.5468 61.033 12.7119C61.198 12.877 61.4217 12.9697 61.655 12.9697C61.8883 12.9697 62.1121 12.877 62.2771 12.7119C62.442 12.5468 62.5347 12.3229 62.5347 12.0894V7.54098C62.5347 7.3075 62.442 7.08358 62.2771 6.91849C62.1121 6.75339 61.8883 6.66064 61.655 6.66064Z" fill="#6EDF8B"/>
<path d="M42.8892 12.0894V7.54098C42.8892 7.3075 42.7965 7.08358 42.6315 6.91849C42.4666 6.75339 42.2428 6.66064 42.0095 6.66064C41.7762 6.66064 41.5525 6.75339 41.3875 6.91849C41.2226 7.08358 41.1299 7.3075 41.1299 7.54098V12.0894C41.1299 12.3229 41.2226 12.5468 41.3875 12.7119C41.5525 12.877 41.7762 12.9697 42.0095 12.9697C42.2428 12.9697 42.4666 12.877 42.6315 12.7119C42.7965 12.5468 42.8892 12.3229 42.8892 12.0894Z" fill="#6EDF8B"/>
</g>
<defs>
<linearGradient id="paint0_linear_332_1475" x1="52.5888" y1="10.9517" x2="52.5888" y2="86.9643" gradientUnits="userSpaceOnUse">
<stop stop-color="white" stop-opacity="0.2"/>
<stop offset="0.601141" stop-color="#9ACEAA" stop-opacity="0.2"/>
</linearGradient>
<clipPath id="clip0_332_1475">
<rect width="104" height="104" fill="white" transform="translate(0 0.5)"/>
</clipPath>
</defs>
</svg>
