<svg width="1261" height="1764" viewBox="0 0 1261 1764" fill="none" xmlns="http://www.w3.org/2000/svg">
<rect x="87.3711" y="342.58" width="827.523" height="1420.62" fill="#189B73"/>
<path d="M1182.32 1083.42C1234.27 1027.63 1271.57 899.662 1005.16 834.132C672.136 752.219 321.407 1042.79 263.826 579.698C206.244 116.61 502.129 16.4448 705.332 213.155C908.535 409.866 962.036 611.26 749.618 697.731C537.201 784.202 165.827 560.69 335.397 368.653C504.967 176.615 741.082 233.599 774.359 370.673C807.636 507.746 800.001 732.697 571.218 619.262C342.435 505.826 361.368 343 496.154 339.745C630.941 336.489 833.576 428.929 709.053 470.391C584.53 511.852 511.44 526.278 522.148 478.304C532.856 430.329 564.397 426.436 591.446 436.366C618.495 446.296 608.824 473.773 575.111 470.213" stroke="#00BC31" stroke-opacity="0.45"/>
<circle cx="436.205" cy="1193.36" r="83.9434" fill="url(#paint0_linear_1109_8655)"/>
<path d="M423.158 1230.71C423.158 1235.99 422.586 1243.76 415.17 1243.76C407.754 1243.76 401.742 1239.48 401.742 1234.2C401.742 1228.93 407.754 1224.65 415.17 1224.65C422.586 1224.65 423.158 1225.43 423.158 1230.71Z" fill="#298A6D"/>
<path d="M385.245 1204.1C385.245 1207.04 384.927 1211.36 380.799 1211.36C376.671 1211.36 373.324 1208.98 373.324 1206.04C373.324 1203.11 376.671 1200.72 380.799 1200.72C384.927 1200.72 385.245 1201.16 385.245 1204.1Z" fill="#298A6D"/>
<path d="M407.702 1204.1C407.702 1207.04 407.384 1211.36 403.256 1211.36C399.128 1211.36 395.781 1208.98 395.781 1206.04C395.781 1203.11 399.128 1200.72 403.256 1200.72C407.384 1200.72 407.702 1201.16 407.702 1204.1Z" fill="#298A6D"/>
<path d="M171.645 1371.01C130.538 1366.35 -28.2566 1388.78 4.39015 1682.2H90.0355H1257.75V1576.14C1276.89 1493.39 1174.13 1435.11 1117.7 1473.57C1139.87 1380.33 1032.07 1315.06 974.637 1380.33C949.449 1228.82 780.185 1263.78 787.238 1380.33C708.249 1368.21 670.366 1437.44 661.298 1473.57C633.894 1413.9 574.651 1416.08 548.456 1424.62C542.075 1386.94 504.528 1312.27 405.388 1315.06C306.249 1317.86 267.358 1407.92 260.306 1452.6C258.291 1430.45 223.028 1376.84 171.645 1371.01Z" fill="url(#paint1_linear_1109_8655)"/>
<g filter="url(#filter0_f_1109_8655)">
<rect x="193.742" y="1399.85" width="45.063" height="229.567" fill="url(#paint2_linear_1109_8655)" fill-opacity="0.5"/>
</g>
<g filter="url(#filter1_f_1109_8655)">
<rect x="252.156" y="1399.85" width="45.063" height="229.567" fill="url(#paint3_linear_1109_8655)" fill-opacity="0.5"/>
</g>
<path d="M127.549 1282.81C133.089 1274.81 158.573 1240.2 170.167 1223.54L180.451 1336.7C166.736 1342.08 152.531 1349.43 133.427 1366.58C114.324 1383.72 100.12 1420.46 95.7113 1393.52C91.3028 1366.58 115.619 1300.05 127.549 1282.81Z" fill="#98E162"/>
<path d="M135.229 1282.81C140.769 1274.81 166.253 1240.2 177.846 1223.54L188.131 1336.7C174.416 1342.08 160.211 1349.43 141.107 1366.58C122.004 1383.72 107.799 1420.46 103.391 1393.52C98.9825 1366.58 123.299 1300.05 135.229 1282.81Z" fill="#203529"/>
<path d="M362.529 1282.81C356.989 1274.81 331.505 1240.2 319.911 1223.54L309.627 1336.7C323.342 1342.08 337.547 1349.43 356.651 1366.58C375.754 1383.72 389.958 1420.46 394.367 1393.52C398.775 1366.58 374.459 1300.05 362.529 1282.81Z" fill="#98E162"/>
<path d="M354.849 1282.81C349.309 1274.81 323.825 1240.2 312.232 1223.54L301.947 1336.7C315.662 1342.08 329.868 1349.43 348.971 1366.58C368.074 1383.72 382.279 1420.46 386.687 1393.52C391.096 1366.58 366.779 1300.05 354.849 1282.81Z" fill="#203529"/>
<path d="M206.647 968.299C158.928 1024.27 175.069 1237.54 189.105 1337.17L187.168 1358.72H303.819L301.885 1337.17C337.9 1075.02 296.861 980.002 284.842 968.299L249.126 931.157C247.372 929.332 244.463 929.318 242.701 931.135C229.839 944.401 208.105 966.881 206.647 968.299Z" fill="#1A604B"/>
<g filter="url(#filter2_i_1109_8655)">
<path fill-rule="evenodd" clip-rule="evenodd" d="M183.995 1302.76C171.467 1191.66 162.558 1007.86 205.862 955.819C206.894 954.791 218.028 943.011 229.051 931.349C233.653 926.48 238.235 921.631 242.055 917.594C243.881 915.665 246.947 915.679 248.765 917.616L284.62 955.819C296.238 967.41 334.779 1058.2 305.796 1304.65C257.295 1289.81 210.197 1295.74 183.995 1302.76Z" fill="#188161"/>
</g>
<g filter="url(#filter3_i_1109_8655)">
<path fill-rule="evenodd" clip-rule="evenodd" d="M176.847 1222.25C170.059 1118.09 171.956 996.563 205.862 955.819C206.894 954.791 218.028 943.011 229.051 931.349C233.653 926.48 238.235 921.631 242.055 917.594C243.881 915.665 246.947 915.679 248.765 917.616L284.62 955.819C294.841 966.016 325.899 1037.51 313.487 1222.35C312.808 1222.07 312.115 1221.82 311.41 1221.59C254.665 1203.5 199.43 1214.2 176.847 1222.25Z" fill="#5ACCA9"/>
</g>
<g filter="url(#filter4_i_1109_8655)">
<path fill-rule="evenodd" clip-rule="evenodd" d="M173.711 1137.06C173.348 1059.01 180.999 985.696 205.862 955.819C206.894 954.791 218.028 943.011 229.051 931.349C233.653 926.48 238.235 921.631 242.055 917.594C243.881 915.665 246.947 915.679 248.765 917.616L284.62 955.819C293.097 964.277 315.907 1014.89 316.363 1137.38C314.788 1136.5 313.137 1135.78 311.41 1135.23C251.831 1116.23 193.917 1128.98 173.711 1137.06Z" fill="#30B38B"/>
</g>
<g filter="url(#filter5_i_1109_8655)">
<path fill-rule="evenodd" clip-rule="evenodd" d="M178.516 1045.18C183.119 1005.68 191.775 973.309 206.33 955.819C207.362 954.791 218.496 943.011 229.518 931.349C234.12 926.48 238.703 921.631 242.523 917.594C244.349 915.665 247.415 915.679 249.233 917.616L285.088 955.819C291.072 961.789 304.199 988.769 311.562 1047.21C311.291 1047.11 311.018 1047.01 310.743 1046.93C252.968 1028.98 201.371 1037.44 178.516 1045.18Z" fill="#2CCD9C"/>
</g>
<path d="M188.359 1337.62H301.951L303.959 1358.72H186.125L188.359 1337.62Z" fill="#033325"/>
<path d="M205.023 1363.37L207.2 1358.72H224.705L226.921 1363.37H205.023Z" fill="url(#paint4_linear_1109_8655)"/>
<path d="M202.309 1369.21L204.964 1363.39H226.853L229.624 1369.21H202.309Z" fill="url(#paint5_linear_1109_8655)"/>
<path d="M198.812 1376.61L202.295 1369.32H229.713L233.183 1376.61H198.812Z" fill="url(#paint6_linear_1109_8655)"/>
<path d="M194.18 1386.25L198.942 1376.63H233.16L237.492 1386.25H194.18Z" fill="url(#paint7_linear_1109_8655)"/>
<rect x="193.305" y="1386.27" width="45.0626" height="13.5822" fill="url(#paint8_linear_1109_8655)"/>
<path d="M263.875 1363.37L266.051 1358.72H283.557L285.773 1363.37H263.875Z" fill="url(#paint9_linear_1109_8655)"/>
<path d="M261.16 1369.21L263.815 1363.39H285.705L288.476 1369.21H261.16Z" fill="url(#paint10_linear_1109_8655)"/>
<path d="M257.664 1376.61L261.146 1369.32H288.564L292.035 1376.61H257.664Z" fill="url(#paint11_linear_1109_8655)"/>
<path d="M253.031 1386.25L257.794 1376.63H292.012L296.343 1386.25H253.031Z" fill="url(#paint12_linear_1109_8655)"/>
<rect x="252.156" y="1386.27" width="45.0626" height="13.5822" fill="url(#paint13_linear_1109_8655)"/>
<g opacity="0.6">
<path d="M491.352 1325.54C495.57 1319.44 514.972 1293.09 523.799 1280.41L531.629 1366.56C521.187 1370.66 510.372 1376.25 495.828 1389.31C481.283 1402.36 470.469 1430.33 467.113 1409.82C463.756 1389.31 482.269 1338.66 491.352 1325.54Z" fill="#98E162"/>
<path d="M497.2 1325.54C501.418 1319.44 520.819 1293.09 529.646 1280.41L537.476 1366.56C527.034 1370.66 516.219 1376.25 501.675 1389.31C487.131 1402.36 476.317 1430.33 472.96 1409.82C469.604 1389.31 488.117 1338.66 497.2 1325.54Z" fill="#203529"/>
</g>
<g opacity="0.6">
<path d="M670.253 1325.54C666.035 1319.44 646.634 1293.09 637.807 1280.41L629.977 1366.56C640.419 1370.66 651.234 1376.25 665.778 1389.31C680.322 1402.36 691.136 1430.33 694.493 1409.82C697.849 1389.31 679.336 1338.66 670.253 1325.54Z" fill="#98E162"/>
<path d="M664.406 1325.54C660.188 1319.44 640.786 1293.09 631.959 1280.41L624.129 1366.56C634.571 1370.66 645.386 1376.25 659.93 1389.31C674.475 1402.36 685.289 1430.33 688.645 1409.82C692.001 1389.31 673.488 1338.66 664.406 1325.54Z" fill="#203529"/>
</g>
<g filter="url(#filter6_i_1109_8655)">
<path fill-rule="evenodd" clip-rule="evenodd" d="M534.327 1340.72C524.789 1256.13 518.006 1116.2 550.975 1076.58C551.761 1075.8 560.238 1066.83 568.63 1057.95C572.133 1054.24 575.622 1050.55 578.531 1047.48C579.92 1046.01 582.255 1046.02 583.639 1047.49L610.937 1076.58C619.782 1085.41 649.125 1154.52 627.059 1342.16C590.133 1330.86 554.275 1335.38 534.327 1340.72Z" fill="#188161"/>
</g>
<g filter="url(#filter7_i_1109_8655)">
<path fill-rule="evenodd" clip-rule="evenodd" d="M528.885 1279.42C523.717 1200.12 525.161 1107.6 550.975 1076.58C551.761 1075.8 560.238 1066.83 568.63 1057.95C572.133 1054.24 575.622 1050.55 578.531 1047.48C579.92 1046.01 582.255 1046.02 583.639 1047.49L610.937 1076.58C618.718 1084.34 642.364 1138.77 632.914 1279.5C632.397 1279.29 631.869 1279.1 631.332 1278.93C588.13 1265.15 546.079 1273.3 528.885 1279.42Z" fill="#5ACCA9"/>
</g>
<g filter="url(#filter8_i_1109_8655)">
<path fill-rule="evenodd" clip-rule="evenodd" d="M526.498 1214.57C526.221 1155.14 532.046 1099.33 550.975 1076.58C551.761 1075.8 560.238 1066.83 568.63 1057.95C572.133 1054.24 575.622 1050.55 578.531 1047.48C579.92 1046.01 582.255 1046.02 583.639 1047.49L610.937 1076.58C617.391 1083.02 634.757 1121.56 635.104 1214.81C633.904 1214.14 632.647 1213.59 631.332 1213.17C585.973 1198.71 541.882 1208.41 526.498 1214.57Z" fill="#30B38B"/>
</g>
<g filter="url(#filter9_i_1109_8655)">
<path fill-rule="evenodd" clip-rule="evenodd" d="M530.156 1144.61C533.661 1114.54 540.251 1089.9 551.332 1076.58C552.118 1075.8 560.595 1066.83 568.987 1057.95C572.491 1054.24 575.979 1050.55 578.888 1047.48C580.277 1046.01 582.612 1046.02 583.996 1047.49L611.294 1076.58C615.85 1081.13 625.844 1101.67 631.45 1146.16C631.243 1146.08 631.035 1146.01 630.826 1145.95C586.84 1132.28 547.557 1138.72 530.156 1144.61Z" fill="#2CCD9C"/>
</g>
<path d="M537.65 1367.26H624.132L625.661 1383.32H535.949L537.65 1367.26Z" fill="#033325"/>
<path d="M550.336 1386.87L551.993 1383.32H565.321L567.008 1386.87H550.336Z" fill="url(#paint14_linear_1109_8655)"/>
<path d="M548.27 1391.31L550.291 1386.88H566.957L569.066 1391.31H548.27Z" fill="url(#paint15_linear_1109_8655)"/>
<path d="M545.605 1396.95L548.256 1391.4H569.131L571.773 1396.95H545.605Z" fill="url(#paint16_linear_1109_8655)"/>
<path d="M542.082 1404.28L545.708 1396.96H571.76L575.057 1404.28H542.082Z" fill="url(#paint17_linear_1109_8655)"/>
<rect x="541.414" y="1404.3" width="34.3079" height="10.3407" fill="url(#paint18_linear_1109_8655)"/>
<path d="M595.145 1386.87L596.801 1383.32H610.129L611.816 1386.87H595.145Z" fill="url(#paint19_linear_1109_8655)"/>
<path d="M593.082 1391.31L595.103 1386.88H611.769L613.879 1391.31H593.082Z" fill="url(#paint20_linear_1109_8655)"/>
<path d="M590.414 1396.95L593.065 1391.4H613.94L616.582 1396.95H590.414Z" fill="url(#paint21_linear_1109_8655)"/>
<path d="M586.887 1404.28L590.513 1396.96H616.564L619.862 1404.28H586.887Z" fill="url(#paint22_linear_1109_8655)"/>
<rect x="586.223" y="1404.3" width="34.3079" height="10.3407" fill="url(#paint23_linear_1109_8655)"/>
<g filter="url(#filter10_f_1109_8655)">
<rect x="541.41" y="1414.64" width="34.3083" height="174.779" fill="url(#paint24_linear_1109_8655)" fill-opacity="0.5"/>
</g>
<g filter="url(#filter11_f_1109_8655)">
<rect x="585.883" y="1414.64" width="34.3083" height="174.779" fill="url(#paint25_linear_1109_8655)" fill-opacity="0.5"/>
</g>
<g filter="url(#filter12_f_1109_8655)">
<path d="M392.207 903.723C374.432 915.733 163.945 988.464 79.7216 1017.66L86.0389 1000.48C178.024 959.064 366.222 876.168 383.132 875.946C404.269 875.669 414.426 888.711 392.207 903.723Z" fill="url(#paint26_linear_1109_8655)"/>
</g>
<g filter="url(#filter13_f_1109_8655)">
<path d="M750.989 1006.26C739.441 1014.07 602.695 1061.32 547.978 1080.28L552.082 1069.13C611.842 1042.22 734.107 988.363 745.093 988.219C758.825 988.038 765.424 996.511 750.989 1006.26Z" fill="url(#paint27_linear_1109_8655)"/>
</g>
<g filter="url(#filter14_f_1109_8655)">
<path d="M143.134 866.413C136.269 871.052 54.9712 899.143 22.4409 910.419L24.8808 903.786C60.4088 887.788 133.098 855.771 139.629 855.685C147.793 855.578 151.716 860.615 143.134 866.413Z" fill="url(#paint28_linear_1109_8655)"/>
</g>
<g opacity="0.34" filter="url(#filter15_f_1109_8655)">
<circle cx="739.935" cy="1068.87" r="24.9619" fill="#5ACCA9"/>
</g>
<g opacity="0.34" filter="url(#filter16_f_1109_8655)">
<circle cx="624.128" cy="1001.34" r="20.7646" fill="#5ACCA9"/>
</g>
<g opacity="0.34" filter="url(#filter17_f_1109_8655)">
<circle cx="102.862" cy="1151.36" r="20.7646" fill="#5ACCA9"/>
</g>
<g filter="url(#filter18_f_1109_8655)">
<path d="M837.46 1162.94C837.464 1163.31 837.466 1163.7 837.467 1164.09C837.583 1174.9 839.312 1183.48 840.282 1187.68C854.885 1190.71 861.905 1191.72 864.719 1191.92C865.237 1191.91 865.744 1191.9 866.238 1191.9C866.087 1191.96 865.617 1191.98 864.719 1191.92C855.187 1192.12 842.066 1194.07 840.282 1195.16C838.751 1196.1 838.591 1214.3 838.584 1218.57C838.587 1218.7 838.589 1218.83 838.589 1218.94C838.589 1219.8 838.582 1219.55 838.584 1218.57C838.457 1213.58 835.955 1199.09 835.955 1195.16C835.955 1192.71 823.404 1191.95 812.352 1191.85C808.876 1191.97 805.56 1191.98 802.852 1191.9C805.585 1191.84 808.895 1191.81 812.352 1191.85C822.955 1191.47 835.049 1190.04 835.955 1186.92C837.099 1182.98 837.484 1171.53 837.467 1164.09C837.462 1163.71 837.46 1163.33 837.46 1162.94Z" fill="white" fill-opacity="0.52"/>
</g>
<g filter="url(#filter19_f_1109_8655)">
<path d="M680.36 1086.94C680.362 1087.2 680.364 1087.46 680.364 1087.73C680.444 1095.16 681.632 1101.05 682.298 1103.94C692.328 1106.01 697.149 1106.71 699.082 1106.85C699.438 1106.84 699.786 1106.83 700.125 1106.83C700.021 1106.88 699.699 1106.89 699.082 1106.85C692.535 1106.98 683.523 1108.32 682.298 1109.07C681.247 1109.72 681.136 1122.22 681.132 1125.15C681.134 1125.24 681.135 1125.33 681.135 1125.41C681.135 1126 681.131 1125.83 681.132 1125.15C681.045 1121.72 679.326 1111.77 679.326 1109.07C679.326 1107.39 670.706 1106.87 663.115 1106.8C660.728 1106.88 658.45 1106.89 656.59 1106.83C658.467 1106.79 660.741 1106.77 663.115 1106.8C670.398 1106.53 678.704 1105.55 679.326 1103.41C680.112 1100.71 680.376 1092.84 680.364 1087.73C680.362 1087.47 680.36 1087.21 680.36 1086.94Z" fill="white" fill-opacity="0.52"/>
</g>
<g filter="url(#filter20_f_1109_8655)">
<path d="M680.36 1200.06C680.362 1200.31 680.364 1200.57 680.364 1200.84C680.444 1208.27 681.632 1214.16 682.298 1217.05C692.328 1219.13 697.149 1219.82 699.082 1219.96C699.438 1219.95 699.786 1219.95 700.125 1219.95C700.021 1219.99 699.699 1220 699.082 1219.96C692.535 1220.09 683.523 1221.44 682.298 1222.19C681.247 1222.83 681.136 1235.33 681.132 1238.27C681.134 1238.35 681.135 1238.44 681.135 1238.52C681.135 1239.11 681.131 1238.94 681.132 1238.27C681.045 1234.84 679.326 1224.88 679.326 1222.19C679.326 1220.5 670.706 1219.98 663.115 1219.91C660.728 1219.99 658.45 1220 656.59 1219.95C658.467 1219.91 660.741 1219.88 663.115 1219.91C670.398 1219.65 678.704 1218.66 679.326 1216.52C680.112 1213.82 680.376 1205.95 680.364 1200.84C680.362 1200.58 680.36 1200.32 680.36 1200.06Z" fill="white" fill-opacity="0.52"/>
</g>
<path d="M985.895 1004.41C959.499 1020.46 889.006 1036.87 818.203 974.137C805.523 962.233 773.54 943.416 749.885 966.374C738.896 977.038 737.064 988.795 736.835 996.999C736.636 1004.16 734.052 1004.41 730.391 998.253C729.122 996.12 727.599 993.658 725.782 990.909C722.825 986.437 720.487 981.558 719.325 976.324C717.718 969.081 715.682 959.128 714.288 949.987C711.746 933.327 697.064 901.985 677.016 885.043C656.968 868.101 627.885 888.431 629.579 898.314C632.213 898.038 637.832 898.425 639.234 902.183C640.986 906.879 652.692 910.524 652.132 906.038C651.571 901.552 643.019 902.393 640.776 909.473C638.533 916.553 642.598 933.236 660.403 950.13C678.208 967.023 709.61 958.748 737.364 979.407C765.118 1000.07 764.953 1000.11 766.812 1002.2C768.67 1004.29 768.825 1009.63 762.785 1012.11C756.746 1014.59 727.498 1031.08 710.625 997.711C693.752 964.342 692.115 901.508 707.603 882.747C723.091 863.985 733.031 847.675 756.993 826.856C780.955 806.036 815.776 775.789 818.203 744.363C822.416 751.696 830.922 770.761 831.236 788.359C831.629 810.357 818.203 831.569 818.203 837.462C818.203 843.354 800.989 909.74 789.597 922.311C778.205 934.881 757.341 959.667 721.161 953.976C696.708 950.13 679.154 921.469 668.364 944.265C663.948 954.901 662.45 957.025 652.132 958.814C635.2 958.112 596.416 949.827 576.738 922.311C552.141 887.915 549.749 847.603 550.432 823.689C555.328 837.24 571.066 869.809 594.843 891.673C599.865 895.34 614.957 904.035 635.155 909.473" stroke="#DBDBDB" stroke-width="1.20986"/>
<defs>
<filter id="filter0_f_1109_8655" x="189.126" y="1395.23" width="54.2946" height="238.8" filterUnits="userSpaceOnUse" color-interpolation-filters="sRGB">
<feFlood flood-opacity="0" result="BackgroundImageFix"/>
<feBlend mode="normal" in="SourceGraphic" in2="BackgroundImageFix" result="shape"/>
<feGaussianBlur stdDeviation="2.30803" result="effect1_foregroundBlur_1109_8655"/>
</filter>
<filter id="filter1_f_1109_8655" x="247.54" y="1395.23" width="54.2946" height="238.8" filterUnits="userSpaceOnUse" color-interpolation-filters="sRGB">
<feFlood flood-opacity="0" result="BackgroundImageFix"/>
<feBlend mode="normal" in="SourceGraphic" in2="BackgroundImageFix" result="shape"/>
<feGaussianBlur stdDeviation="2.30803" result="effect1_foregroundBlur_1109_8655"/>
</filter>
<filter id="filter2_i_1109_8655" x="169.083" y="916.155" width="147.288" height="393.107" filterUnits="userSpaceOnUse" color-interpolation-filters="sRGB">
<feFlood flood-opacity="0" result="BackgroundImageFix"/>
<feBlend mode="normal" in="SourceGraphic" in2="BackgroundImageFix" result="shape"/>
<feColorMatrix in="SourceAlpha" type="matrix" values="0 0 0 0 0 0 0 0 0 0 0 0 0 0 0 0 0 0 127 0" result="hardAlpha"/>
<feOffset dx="-25.3884" dy="5.77009"/>
<feGaussianBlur stdDeviation="2.30803"/>
<feComposite in2="hardAlpha" operator="arithmetic" k2="-1" k3="1"/>
<feColorMatrix type="matrix" values="0 0 0 0 0.100946 0 0 0 0 0.278223 0 0 0 0 0.121629 0 0 0 0.48 0"/>
<feBlend mode="normal" in2="shape" result="effect1_innerShadow_1109_8655"/>
</filter>
<filter id="filter3_i_1109_8655" x="169.083" y="916.155" width="147.288" height="310.814" filterUnits="userSpaceOnUse" color-interpolation-filters="sRGB">
<feFlood flood-opacity="0" result="BackgroundImageFix"/>
<feBlend mode="normal" in="SourceGraphic" in2="BackgroundImageFix" result="shape"/>
<feColorMatrix in="SourceAlpha" type="matrix" values="0 0 0 0 0 0 0 0 0 0 0 0 0 0 0 0 0 0 127 0" result="hardAlpha"/>
<feOffset dx="-25.3884" dy="5.77009"/>
<feGaussianBlur stdDeviation="2.30803"/>
<feComposite in2="hardAlpha" operator="arithmetic" k2="-1" k3="1"/>
<feColorMatrix type="matrix" values="0 0 0 0 0.100946 0 0 0 0 0.278223 0 0 0 0 0.121629 0 0 0 0.48 0"/>
<feBlend mode="normal" in2="shape" result="effect1_innerShadow_1109_8655"/>
</filter>
<filter id="filter4_i_1109_8655" x="169.083" y="916.155" width="147.28" height="225.839" filterUnits="userSpaceOnUse" color-interpolation-filters="sRGB">
<feFlood flood-opacity="0" result="BackgroundImageFix"/>
<feBlend mode="normal" in="SourceGraphic" in2="BackgroundImageFix" result="shape"/>
<feColorMatrix in="SourceAlpha" type="matrix" values="0 0 0 0 0 0 0 0 0 0 0 0 0 0 0 0 0 0 127 0" result="hardAlpha"/>
<feOffset dx="-25.3884" dy="5.77009"/>
<feGaussianBlur stdDeviation="2.30803"/>
<feComposite in2="hardAlpha" operator="arithmetic" k2="-1" k3="1"/>
<feColorMatrix type="matrix" values="0 0 0 0 0.100946 0 0 0 0 0.278223 0 0 0 0 0.121629 0 0 0 0.48 0"/>
<feBlend mode="normal" in2="shape" result="effect1_innerShadow_1109_8655"/>
</filter>
<filter id="filter5_i_1109_8655" x="173.9" y="916.155" width="137.663" height="135.669" filterUnits="userSpaceOnUse" color-interpolation-filters="sRGB">
<feFlood flood-opacity="0" result="BackgroundImageFix"/>
<feBlend mode="normal" in="SourceGraphic" in2="BackgroundImageFix" result="shape"/>
<feColorMatrix in="SourceAlpha" type="matrix" values="0 0 0 0 0 0 0 0 0 0 0 0 0 0 0 0 0 0 127 0" result="hardAlpha"/>
<feOffset dx="-25.3884" dy="5.77009"/>
<feGaussianBlur stdDeviation="2.30803"/>
<feComposite in2="hardAlpha" operator="arithmetic" k2="-1" k3="1"/>
<feColorMatrix type="matrix" values="0 0 0 0 0.100946 0 0 0 0 0.278223 0 0 0 0 0.121629 0 0 0 0.48 0"/>
<feBlend mode="normal" in2="shape" result="effect1_innerShadow_1109_8655"/>
</filter>
<filter id="filter6_i_1109_8655" x="522.974" y="1046.38" width="112.135" height="299.287" filterUnits="userSpaceOnUse" color-interpolation-filters="sRGB">
<feFlood flood-opacity="0" result="BackgroundImageFix"/>
<feBlend mode="normal" in="SourceGraphic" in2="BackgroundImageFix" result="shape"/>
<feColorMatrix in="SourceAlpha" type="matrix" values="0 0 0 0 0 0 0 0 0 0 0 0 0 0 0 0 0 0 127 0" result="hardAlpha"/>
<feOffset dx="-19.3292" dy="4.39299"/>
<feGaussianBlur stdDeviation="1.7572"/>
<feComposite in2="hardAlpha" operator="arithmetic" k2="-1" k3="1"/>
<feColorMatrix type="matrix" values="0 0 0 0 0 0 0 0 0 0 0 0 0 0 0 0 0 0 0.25 0"/>
<feBlend mode="normal" in2="shape" result="effect1_innerShadow_1109_8655"/>
</filter>
<filter id="filter7_i_1109_8655" x="522.974" y="1046.38" width="112.135" height="236.635" filterUnits="userSpaceOnUse" color-interpolation-filters="sRGB">
<feFlood flood-opacity="0" result="BackgroundImageFix"/>
<feBlend mode="normal" in="SourceGraphic" in2="BackgroundImageFix" result="shape"/>
<feColorMatrix in="SourceAlpha" type="matrix" values="0 0 0 0 0 0 0 0 0 0 0 0 0 0 0 0 0 0 127 0" result="hardAlpha"/>
<feOffset dx="-19.3292" dy="4.39299"/>
<feGaussianBlur stdDeviation="1.7572"/>
<feComposite in2="hardAlpha" operator="arithmetic" k2="-1" k3="1"/>
<feColorMatrix type="matrix" values="0 0 0 0 0 0 0 0 0 0 0 0 0 0 0 0 0 0 0.25 0"/>
<feBlend mode="normal" in2="shape" result="effect1_innerShadow_1109_8655"/>
</filter>
<filter id="filter8_i_1109_8655" x="522.974" y="1046.38" width="112.132" height="171.94" filterUnits="userSpaceOnUse" color-interpolation-filters="sRGB">
<feFlood flood-opacity="0" result="BackgroundImageFix"/>
<feBlend mode="normal" in="SourceGraphic" in2="BackgroundImageFix" result="shape"/>
<feColorMatrix in="SourceAlpha" type="matrix" values="0 0 0 0 0 0 0 0 0 0 0 0 0 0 0 0 0 0 127 0" result="hardAlpha"/>
<feOffset dx="-19.3292" dy="4.39299"/>
<feGaussianBlur stdDeviation="1.7572"/>
<feComposite in2="hardAlpha" operator="arithmetic" k2="-1" k3="1"/>
<feColorMatrix type="matrix" values="0 0 0 0 0 0 0 0 0 0 0 0 0 0 0 0 0 0 0.25 0"/>
<feBlend mode="normal" in2="shape" result="effect1_innerShadow_1109_8655"/>
</filter>
<filter id="filter9_i_1109_8655" x="526.642" y="1046.38" width="104.807" height="103.289" filterUnits="userSpaceOnUse" color-interpolation-filters="sRGB">
<feFlood flood-opacity="0" result="BackgroundImageFix"/>
<feBlend mode="normal" in="SourceGraphic" in2="BackgroundImageFix" result="shape"/>
<feColorMatrix in="SourceAlpha" type="matrix" values="0 0 0 0 0 0 0 0 0 0 0 0 0 0 0 0 0 0 127 0" result="hardAlpha"/>
<feOffset dx="-19.3292" dy="4.39299"/>
<feGaussianBlur stdDeviation="1.7572"/>
<feComposite in2="hardAlpha" operator="arithmetic" k2="-1" k3="1"/>
<feColorMatrix type="matrix" values="0 0 0 0 0 0 0 0 0 0 0 0 0 0 0 0 0 0 0.25 0"/>
<feBlend mode="normal" in2="shape" result="effect1_innerShadow_1109_8655"/>
</filter>
<filter id="filter10_f_1109_8655" x="537.896" y="1411.12" width="41.3374" height="181.807" filterUnits="userSpaceOnUse" color-interpolation-filters="sRGB">
<feFlood flood-opacity="0" result="BackgroundImageFix"/>
<feBlend mode="normal" in="SourceGraphic" in2="BackgroundImageFix" result="shape"/>
<feGaussianBlur stdDeviation="1.7572" result="effect1_foregroundBlur_1109_8655"/>
</filter>
<filter id="filter11_f_1109_8655" x="582.368" y="1411.12" width="41.3374" height="181.807" filterUnits="userSpaceOnUse" color-interpolation-filters="sRGB">
<feFlood flood-opacity="0" result="BackgroundImageFix"/>
<feBlend mode="normal" in="SourceGraphic" in2="BackgroundImageFix" result="shape"/>
<feGaussianBlur stdDeviation="1.7572" result="effect1_foregroundBlur_1109_8655"/>
</filter>
<filter id="filter12_f_1109_8655" x="76.3783" y="872.598" width="331.665" height="148.403" filterUnits="userSpaceOnUse" color-interpolation-filters="sRGB">
<feFlood flood-opacity="0" result="BackgroundImageFix"/>
<feBlend mode="normal" in="SourceGraphic" in2="BackgroundImageFix" result="shape"/>
<feGaussianBlur stdDeviation="1.67215" result="effect1_foregroundBlur_1109_8655"/>
</filter>
<filter id="filter13_f_1109_8655" x="545.804" y="986.043" width="215.474" height="96.4127" filterUnits="userSpaceOnUse" color-interpolation-filters="sRGB">
<feFlood flood-opacity="0" result="BackgroundImageFix"/>
<feBlend mode="normal" in="SourceGraphic" in2="BackgroundImageFix" result="shape"/>
<feGaussianBlur stdDeviation="1.08634" result="effect1_foregroundBlur_1109_8655"/>
</filter>
<filter id="filter14_f_1109_8655" x="21.1497" y="854.392" width="128.103" height="57.3187" filterUnits="userSpaceOnUse" color-interpolation-filters="sRGB">
<feFlood flood-opacity="0" result="BackgroundImageFix"/>
<feBlend mode="normal" in="SourceGraphic" in2="BackgroundImageFix" result="shape"/>
<feGaussianBlur stdDeviation="0.645846" result="effect1_foregroundBlur_1109_8655"/>
</filter>
<filter id="filter15_f_1109_8655" x="710.973" y="1039.91" width="57.9258" height="57.9238" filterUnits="userSpaceOnUse" color-interpolation-filters="sRGB">
<feFlood flood-opacity="0" result="BackgroundImageFix"/>
<feBlend mode="normal" in="SourceGraphic" in2="BackgroundImageFix" result="shape"/>
<feGaussianBlur stdDeviation="2" result="effect1_foregroundBlur_1109_8655"/>
</filter>
<filter id="filter16_f_1109_8655" x="599.363" y="976.58" width="49.5273" height="49.5293" filterUnits="userSpaceOnUse" color-interpolation-filters="sRGB">
<feFlood flood-opacity="0" result="BackgroundImageFix"/>
<feBlend mode="normal" in="SourceGraphic" in2="BackgroundImageFix" result="shape"/>
<feGaussianBlur stdDeviation="2" result="effect1_foregroundBlur_1109_8655"/>
</filter>
<filter id="filter17_f_1109_8655" x="78.0977" y="1126.6" width="49.5273" height="49.5293" filterUnits="userSpaceOnUse" color-interpolation-filters="sRGB">
<feFlood flood-opacity="0" result="BackgroundImageFix"/>
<feBlend mode="normal" in="SourceGraphic" in2="BackgroundImageFix" result="shape"/>
<feGaussianBlur stdDeviation="2" result="effect1_foregroundBlur_1109_8655"/>
</filter>
<filter id="filter18_f_1109_8655" x="797.652" y="1157.74" width="73.7867" height="66.9244" filterUnits="userSpaceOnUse" color-interpolation-filters="sRGB">
<feFlood flood-opacity="0" result="BackgroundImageFix"/>
<feBlend mode="normal" in="SourceGraphic" in2="BackgroundImageFix" result="shape"/>
<feGaussianBlur stdDeviation="2.6" result="effect1_foregroundBlur_1109_8655"/>
</filter>
<filter id="filter19_f_1109_8655" x="651.39" y="1081.74" width="53.9352" height="49.2223" filterUnits="userSpaceOnUse" color-interpolation-filters="sRGB">
<feFlood flood-opacity="0" result="BackgroundImageFix"/>
<feBlend mode="normal" in="SourceGraphic" in2="BackgroundImageFix" result="shape"/>
<feGaussianBlur stdDeviation="2.6" result="effect1_foregroundBlur_1109_8655"/>
</filter>
<filter id="filter20_f_1109_8655" x="651.39" y="1194.86" width="53.9352" height="49.2223" filterUnits="userSpaceOnUse" color-interpolation-filters="sRGB">
<feFlood flood-opacity="0" result="BackgroundImageFix"/>
<feBlend mode="normal" in="SourceGraphic" in2="BackgroundImageFix" result="shape"/>
<feGaussianBlur stdDeviation="2.6" result="effect1_foregroundBlur_1109_8655"/>
</filter>
<linearGradient id="paint0_linear_1109_8655" x1="547.978" y1="1119.4" x2="436.205" y2="1277.3" gradientUnits="userSpaceOnUse">
<stop stop-color="#188161"/>
<stop offset="1" stop-color="#60A892"/>
</linearGradient>
<linearGradient id="paint1_linear_1109_8655" x1="675.044" y1="1279.38" x2="675.044" y2="1682.2" gradientUnits="userSpaceOnUse">
<stop stop-color="#44C49E"/>
<stop offset="1" stop-color="#188D9B"/>
</linearGradient>
<linearGradient id="paint2_linear_1109_8655" x1="216.274" y1="1399.85" x2="216.274" y2="1629.42" gradientUnits="userSpaceOnUse">
<stop offset="0.48" stop-color="white" stop-opacity="0.53"/>
<stop offset="1" stop-color="#457735" stop-opacity="0"/>
</linearGradient>
<linearGradient id="paint3_linear_1109_8655" x1="274.688" y1="1399.85" x2="274.688" y2="1629.42" gradientUnits="userSpaceOnUse">
<stop offset="0.48" stop-color="white" stop-opacity="0.53"/>
<stop offset="1" stop-color="#457735" stop-opacity="0"/>
</linearGradient>
<linearGradient id="paint4_linear_1109_8655" x1="205.023" y1="1361.05" x2="226.921" y2="1361.05" gradientUnits="userSpaceOnUse">
<stop stop-color="#318457"/>
<stop offset="1" stop-color="#184F31"/>
</linearGradient>
<linearGradient id="paint5_linear_1109_8655" x1="229.624" y1="1366.3" x2="202.309" y2="1366.3" gradientUnits="userSpaceOnUse">
<stop stop-color="#007440"/>
<stop offset="1" stop-color="#2B5C46"/>
</linearGradient>
<linearGradient id="paint6_linear_1109_8655" x1="198.812" y1="1372.97" x2="233.183" y2="1372.97" gradientUnits="userSpaceOnUse">
<stop stop-color="#29583F"/>
<stop offset="1" stop-color="#04783B"/>
</linearGradient>
<linearGradient id="paint7_linear_1109_8655" x1="194.18" y1="1381.44" x2="237.492" y2="1381.44" gradientUnits="userSpaceOnUse">
<stop stop-color="#37865C"/>
<stop offset="1" stop-color="#001D0E"/>
</linearGradient>
<linearGradient id="paint8_linear_1109_8655" x1="193.305" y1="1393.06" x2="238.367" y2="1393.06" gradientUnits="userSpaceOnUse">
<stop stop-color="#449B6E"/>
<stop offset="1" stop-color="#002210"/>
</linearGradient>
<linearGradient id="paint9_linear_1109_8655" x1="263.875" y1="1361.05" x2="285.773" y2="1361.05" gradientUnits="userSpaceOnUse">
<stop stop-color="#318457"/>
<stop offset="1" stop-color="#184F31"/>
</linearGradient>
<linearGradient id="paint10_linear_1109_8655" x1="288.476" y1="1366.3" x2="261.16" y2="1366.3" gradientUnits="userSpaceOnUse">
<stop stop-color="#007440"/>
<stop offset="1" stop-color="#2B5C46"/>
</linearGradient>
<linearGradient id="paint11_linear_1109_8655" x1="257.664" y1="1372.97" x2="292.035" y2="1372.97" gradientUnits="userSpaceOnUse">
<stop stop-color="#29583F"/>
<stop offset="1" stop-color="#04783B"/>
</linearGradient>
<linearGradient id="paint12_linear_1109_8655" x1="253.031" y1="1381.44" x2="296.343" y2="1381.44" gradientUnits="userSpaceOnUse">
<stop stop-color="#37865C"/>
<stop offset="1" stop-color="#001D0E"/>
</linearGradient>
<linearGradient id="paint13_linear_1109_8655" x1="252.156" y1="1393.06" x2="297.219" y2="1393.06" gradientUnits="userSpaceOnUse">
<stop stop-color="#449B6E"/>
<stop offset="1" stop-color="#002210"/>
</linearGradient>
<linearGradient id="paint14_linear_1109_8655" x1="550.336" y1="1385.1" x2="567.008" y2="1385.1" gradientUnits="userSpaceOnUse">
<stop stop-color="#318457"/>
<stop offset="1" stop-color="#184F31"/>
</linearGradient>
<linearGradient id="paint15_linear_1109_8655" x1="569.066" y1="1389.1" x2="548.27" y2="1389.1" gradientUnits="userSpaceOnUse">
<stop stop-color="#007440"/>
<stop offset="1" stop-color="#2B5C46"/>
</linearGradient>
<linearGradient id="paint16_linear_1109_8655" x1="545.605" y1="1394.17" x2="571.773" y2="1394.17" gradientUnits="userSpaceOnUse">
<stop stop-color="#29583F"/>
<stop offset="1" stop-color="#04783B"/>
</linearGradient>
<linearGradient id="paint17_linear_1109_8655" x1="542.082" y1="1400.62" x2="575.057" y2="1400.62" gradientUnits="userSpaceOnUse">
<stop stop-color="#37865C"/>
<stop offset="1" stop-color="#001D0E"/>
</linearGradient>
<linearGradient id="paint18_linear_1109_8655" x1="541.414" y1="1409.47" x2="575.722" y2="1409.47" gradientUnits="userSpaceOnUse">
<stop stop-color="#449B6E"/>
<stop offset="1" stop-color="#002210"/>
</linearGradient>
<linearGradient id="paint19_linear_1109_8655" x1="595.145" y1="1385.1" x2="611.816" y2="1385.1" gradientUnits="userSpaceOnUse">
<stop stop-color="#318457"/>
<stop offset="1" stop-color="#184F31"/>
</linearGradient>
<linearGradient id="paint20_linear_1109_8655" x1="613.879" y1="1389.1" x2="593.082" y2="1389.1" gradientUnits="userSpaceOnUse">
<stop stop-color="#007440"/>
<stop offset="1" stop-color="#2B5C46"/>
</linearGradient>
<linearGradient id="paint21_linear_1109_8655" x1="590.414" y1="1394.17" x2="616.582" y2="1394.17" gradientUnits="userSpaceOnUse">
<stop stop-color="#29583F"/>
<stop offset="1" stop-color="#04783B"/>
</linearGradient>
<linearGradient id="paint22_linear_1109_8655" x1="586.887" y1="1400.62" x2="619.862" y2="1400.62" gradientUnits="userSpaceOnUse">
<stop stop-color="#37865C"/>
<stop offset="1" stop-color="#001D0E"/>
</linearGradient>
<linearGradient id="paint23_linear_1109_8655" x1="586.223" y1="1409.47" x2="620.531" y2="1409.47" gradientUnits="userSpaceOnUse">
<stop stop-color="#449B6E"/>
<stop offset="1" stop-color="#002210"/>
</linearGradient>
<linearGradient id="paint24_linear_1109_8655" x1="558.564" y1="1414.64" x2="558.564" y2="1589.42" gradientUnits="userSpaceOnUse">
<stop offset="0.48" stop-color="white" stop-opacity="0.53"/>
<stop offset="1" stop-color="#457735" stop-opacity="0"/>
</linearGradient>
<linearGradient id="paint25_linear_1109_8655" x1="603.037" y1="1414.64" x2="603.037" y2="1589.42" gradientUnits="userSpaceOnUse">
<stop offset="0.48" stop-color="white" stop-opacity="0.53"/>
<stop offset="1" stop-color="#457735" stop-opacity="0"/>
</linearGradient>
<linearGradient id="paint26_linear_1109_8655" x1="97.6406" y1="997.838" x2="254.971" y2="1111.37" gradientUnits="userSpaceOnUse">
<stop stop-color="#189B73" stop-opacity="0"/>
<stop offset="1" stop-color="#EDEDE7" stop-opacity="0.52"/>
</linearGradient>
<linearGradient id="paint27_linear_1109_8655" x1="559.62" y1="1067.41" x2="661.832" y2="1141.17" gradientUnits="userSpaceOnUse">
<stop stop-color="#189B73" stop-opacity="0"/>
<stop offset="1" stop-color="#EDEDE7" stop-opacity="0.52"/>
</linearGradient>
<linearGradient id="paint28_linear_1109_8655" x1="29.3618" y1="902.764" x2="90.1286" y2="946.614" gradientUnits="userSpaceOnUse">
<stop stop-color="#189B73" stop-opacity="0"/>
<stop offset="1" stop-color="#EDEDE7" stop-opacity="0.52"/>
</linearGradient>
</defs>
</svg>
