<svg width="104" height="104" viewBox="0 0 104 104" fill="none" xmlns="http://www.w3.org/2000/svg">
<g clip-path="url(#clip0_332_1097)">
<path d="M55.1893 82.1502C51.9574 82.3277 48.7726 82.2345 45.5897 82.1228C41.7774 81.9889 38.0038 81.5116 34.253 80.8172C31.7727 80.358 29.2948 79.9019 26.8734 79.1888C24.8587 78.5955 22.8981 77.8685 21.1178 76.7377C19.6746 75.8211 18.4501 74.7006 17.832 73.0559C17.789 72.9414 17.6934 72.8273 17.8162 72.5913C18.4206 73.4401 19.0575 74.2053 19.9664 74.7072C20.0205 74.5234 19.9132 74.446 19.8493 74.363C17.1208 70.8188 17.5726 65.712 20.3071 62.3216C21.8347 60.4277 23.8119 59.1679 26.0849 58.3357C27.2494 57.9093 28.4412 57.5919 29.6868 57.5081C29.7994 57.5005 29.9147 57.4669 30.0285 57.588C29.9183 57.77 29.7178 57.8108 29.5535 57.8945C27.2957 59.0457 25.1492 60.3643 23.4155 62.2305C20.6243 65.2348 19.7173 68.7156 20.9164 72.6643C21.2823 73.8693 21.9626 74.9187 22.7778 75.8787C22.8595 75.9749 22.9706 76.0713 23.0874 76.1097C24.7332 76.651 26.4298 76.9519 28.1592 77.1422C27.1851 76.5018 26.3364 75.7452 25.6549 74.8071C23.4594 71.7853 23.6271 67.8646 26.0174 64.9873C27.7024 62.9588 29.9397 61.8276 32.3598 60.9773C35.044 60.0342 37.8218 59.5176 40.6476 59.1751C43.5744 58.8204 46.5044 58.7738 49.4407 58.8469C51.0398 58.8868 52.6281 59.0932 54.2089 59.3369C54.4643 59.3762 54.7289 59.41 54.9936 59.5703C54.8197 59.7147 54.6249 59.7201 54.4436 59.738C50.5532 60.1222 46.693 60.7131 42.8524 61.4279C39.5933 62.0346 36.3536 62.7279 33.2363 63.8841C31.8253 64.4074 30.4557 65.0184 29.259 65.9438C26.349 68.1941 25.7335 71.6345 27.6602 74.7738C28.0229 75.3648 28.4634 75.8876 28.9482 76.3843C29.7638 77.22 30.7632 77.6046 31.9121 77.659C32.4962 77.6866 33.0747 77.8291 33.7962 77.7546C32.8688 77.3608 32.0521 77.0196 31.3423 76.4774C29.9761 75.4338 29.1119 74.0883 29.0406 72.3683C28.9755 70.7963 29.6294 69.4394 30.6505 68.2571C32.1004 66.5784 33.9715 65.5286 36.0437 64.8242C39.3333 63.7059 42.7324 63.0912 46.1853 62.7178C49.8661 62.3197 53.5553 62.19 57.2526 62.2796C60.7663 62.3647 64.2763 62.5844 67.7274 63.2661C71.2857 63.9689 74.7252 65.0483 77.831 66.9851C78.5889 67.4578 79.2741 68.019 79.8565 68.6993C81.3088 70.3957 81.3183 72.3918 79.8778 74.1012C79.7002 74.3119 79.5216 74.5218 79.3227 74.7566C79.4096 74.7858 79.4594 74.822 79.4905 74.8101C81.4342 74.0649 83.2595 73.1301 84.5955 71.4797C85.573 70.2723 85.6036 69.1734 84.7388 67.8699C83.7351 66.357 82.3195 65.2821 80.7906 64.3568C76.9857 62.0538 72.8585 60.5993 68.4711 59.8518C67.233 59.6409 65.9887 59.5224 64.7311 59.5603C64.6366 59.5632 64.5413 59.5392 64.4029 59.5225C64.5519 59.3203 64.7391 59.3268 64.9078 59.3036C67.7305 58.9162 70.5337 59.0823 73.3216 59.6121C76.169 60.1531 78.9259 60.9768 81.5282 62.263C83.4002 63.1882 85.1725 64.2597 86.5327 65.8776C88.8525 68.6368 88.7248 71.6923 86.2197 74.299C84.4446 76.1461 82.2295 77.2845 79.879 78.1998C75.8307 79.7764 71.6029 80.6099 67.308 81.1839C63.3 81.7194 59.2803 82.0714 55.1893 82.1502ZM61.6677 78.164C63.6241 78.0248 65.5754 77.8365 67.5189 77.572C70.6889 77.1405 73.8201 76.5339 76.9173 75.7206C78.0488 75.4235 78.767 74.7991 79.2944 73.8434C79.3657 73.7142 79.4441 73.5888 79.5117 73.4577C80.2854 71.9576 80.0012 70.5839 78.7009 69.5014C78.3455 69.2055 77.9645 68.9476 77.5632 68.7195C75.1365 67.3406 72.4593 66.6792 69.7561 66.1517C66.1512 65.4481 62.4805 65.3665 58.8221 65.2751C55.5897 65.1943 52.3558 65.2473 49.1227 65.4162C45.7765 65.5911 42.4435 65.8449 39.1434 66.4415C36.7817 66.8685 34.518 67.5458 32.6057 69.0591C31.5431 69.9 30.7469 70.9438 30.6458 72.3419C30.5342 73.8844 31.315 75.0282 32.4634 75.9691C33.6752 76.9619 35.1024 77.4984 36.6048 77.8691C39.2521 78.5225 41.966 78.5561 44.6637 78.6258C48.9527 78.7366 53.2443 78.6977 57.5302 78.448C58.8795 78.3694 60.2273 78.2638 61.6677 78.164Z" fill="#9ACEAA"/>
<path d="M41.3117 86.9494C37.7106 86.6786 34.1843 86.2114 30.7131 85.3923C27.0774 84.5344 23.516 83.4599 20.2282 81.645C18.1475 80.4965 16.2511 79.117 14.8522 77.1673C12.6518 74.1006 12.5967 70.8796 14.2336 67.5697C15.0496 65.9197 16.2029 64.5149 17.5633 63.274C17.6475 63.1972 17.7427 63.1316 17.8373 63.0674C17.8578 63.0535 17.8982 63.0683 17.9596 63.0714C17.9609 63.2887 17.7907 63.411 17.688 63.5625C16.435 65.4104 15.4159 67.3559 15.0635 69.5912C14.6248 72.3738 15.5604 74.6381 17.6748 76.4613C19.5633 78.0896 21.7948 79.1056 24.1197 79.9283C28.1112 81.3406 32.2459 82.1659 36.4294 82.7674C39.3186 83.1829 42.2237 83.4302 45.1393 83.5928C48.1074 83.7582 51.0773 83.8197 54.0448 83.7343C57.6534 83.6305 61.2581 83.4273 64.8581 83.1162C68.0457 82.8408 71.2174 82.4474 74.3934 82.0812C74.6506 82.0515 74.8995 81.9253 75.2166 82.0189C75.0668 82.2424 74.8319 82.2699 74.6357 82.342C71.3671 83.5421 68.0169 84.4616 64.6104 85.183C61.077 85.9312 57.5149 86.4821 53.9111 86.7819C50.9495 87.0282 47.9866 87.1802 45.0153 87.1162C43.7956 87.09 42.577 87.0079 41.3117 86.9494Z" fill="#9ACEAA"/>
<path d="M80.8901 84.4496C76.441 86.8708 71.7828 88.6881 66.9355 90.0261C63.6278 90.9391 60.263 91.5728 56.8511 91.9881C53.5669 92.3879 50.2749 92.508 46.9734 92.4553C40.7507 92.3559 34.6615 91.4558 28.7559 89.4481C24.5866 88.0307 20.69 86.1179 17.2516 83.3505C16.4816 82.7308 15.7612 82.058 15.0889 81.3352C15.005 81.245 14.8751 81.1725 14.906 81.0125C15.0174 80.9346 15.0956 81.0183 15.1687 81.0727C17.9161 83.1145 20.9937 84.527 24.192 85.7C28.3707 87.2327 32.6923 88.1807 37.103 88.7626C41.6918 89.3679 46.3028 89.5737 50.9237 89.4326C54.7973 89.3143 58.6492 88.9231 62.4732 88.2628C70.1754 86.9328 77.5514 84.6104 84.5724 81.1966C85.935 80.5341 87.2687 79.8131 88.5644 79.0266C88.6719 78.9614 88.7744 78.864 88.9224 78.9063C88.668 79.5699 85.0718 82.0522 80.8901 84.4496Z" fill="#9ACEAA"/>
<path d="M33.2873 57.9544C36.3199 56.6209 39.433 55.6685 42.6575 55.0778C44.7822 54.6885 46.9282 54.4583 49.0808 54.2912C53.0487 53.9831 57.0247 53.9779 61.0011 53.9927C65.284 54.0086 69.5189 54.4436 73.7104 55.3357C77.5528 56.1535 81.2697 57.3073 84.7263 59.1915C87.0016 60.4319 89.0586 61.9355 90.613 64.0482C93.1127 67.4458 92.8798 71.7741 90.059 74.9271C87.7823 77.4718 84.8999 79.0675 81.7669 80.2879C80.8625 80.6402 79.9276 80.9158 79.004 81.2184C78.8589 81.2659 78.707 81.3591 78.4484 81.2214C79.0846 80.9344 79.6657 80.6859 80.2349 80.4133C83.0427 79.0684 85.7111 77.517 87.8907 75.2563C88.9632 74.1439 89.8448 72.9088 90.2917 71.4121C91.0405 68.9042 90.348 66.7349 88.6674 64.8205C87.1446 63.0858 85.2263 61.8769 83.1608 60.8889C79.3263 59.0548 75.2595 57.9774 71.0735 57.2998C67.5525 56.7297 64.0078 56.4591 60.4413 56.3868C56.7445 56.3119 53.0481 56.2836 49.3513 56.32C43.4463 56.378 37.6505 57.1543 32.0128 58.9543C31.5833 59.0914 31.151 59.246 30.6748 59.2313C31.4872 58.7117 32.3852 58.3704 33.2873 57.9544Z" fill="#9ACEAA"/>
<path d="M13.9434 75.1046L4.5 10.4517H99.5L91.2341 75.1046C58.3548 95.6782 24.3582 83.6769 13.9434 75.1046Z" fill="url(#paint0_linear_332_1097)"/>
<path fill-rule="evenodd" clip-rule="evenodd" d="M51.9995 -0.453125C50.287 -0.453125 48.613 0.0547038 47.1891 1.00614C45.7652 1.95758 44.6554 3.30989 44.0001 4.89206C43.3447 6.47423 43.1733 8.2152 43.5075 9.8948C43.8416 11.5744 44.6663 13.1172 45.8773 14.3281C47.0883 15.539 48.6311 16.3636 50.3108 16.6976C51.9904 17.0316 53.7313 16.86 55.3135 16.2046C56.8956 15.5491 58.2478 14.4393 59.1991 13.0153C60.1505 11.5913 60.6582 9.91723 60.658 8.20471C60.6579 5.90845 59.7456 3.7063 58.1218 2.08266C56.498 0.459016 54.2958 -0.453125 51.9995 -0.453125ZM31.3869 32.8685L29.8289 32.7503C29.667 32.739 29.5114 32.6825 29.38 32.5872C29.2486 32.4919 29.1464 32.3618 29.0852 32.2114L27.7762 29.0069L26.4943 32.1421C26.4418 32.3093 26.3403 32.4569 26.2028 32.5656C26.0654 32.6743 25.8984 32.7391 25.7235 32.7516L22.2793 33.0046L24.9178 35.2376C25.0407 35.3417 25.1322 35.4779 25.1823 35.631C25.2323 35.7841 25.2388 35.9481 25.2011 36.1048L24.3769 39.4691L27.304 37.6561C27.442 37.5669 27.6026 37.5186 27.767 37.517C27.9313 37.5154 28.0928 37.5604 28.2326 37.6469L31.1756 39.4691L30.3625 36.1516C30.3137 35.9893 30.3134 35.8162 30.3616 35.6537C30.4099 35.4912 30.5045 35.3463 30.634 35.2369L33.2758 33.0046L31.3869 32.8685ZM70.7259 33.0079L73.3677 35.2409C73.491 35.345 73.5828 35.4815 73.6328 35.6349C73.6829 35.7883 73.6892 35.9526 73.6511 36.1094L72.8235 39.4691L75.7513 37.6561C75.8893 37.5669 76.0499 37.5186 76.2143 37.517C76.3786 37.5154 76.5401 37.5604 76.6799 37.6469L79.6222 39.4691L78.8092 36.1516C78.7601 35.9896 78.7593 35.8167 78.8071 35.6542C78.8548 35.4917 78.949 35.3467 79.078 35.2369L81.7198 33.0046L78.2755 32.747C78.1137 32.7358 77.9582 32.6793 77.8268 32.584C77.6955 32.4887 77.5935 32.3585 77.5325 32.2081L76.2229 29.0036L74.9409 32.1421C74.8887 32.3093 74.7873 32.4569 74.6499 32.5656C74.5125 32.6744 74.3456 32.7392 74.1708 32.7516L70.7259 33.0059V33.0079ZM55.0277 36.0572L51.9995 28.6476L48.9991 35.9905C48.9466 36.1576 48.8449 36.305 48.7075 36.4136C48.57 36.5222 48.4031 36.587 48.2284 36.5994L40.2534 37.1885L46.3606 42.3559C46.4839 42.4601 46.5757 42.5965 46.6257 42.7499C46.6757 42.9033 46.6821 43.0676 46.644 43.2244L44.7379 50.9999L51.528 46.7948C51.666 46.7056 51.8265 46.6573 51.9908 46.6555C52.1552 46.6538 52.3167 46.6986 52.4566 46.7849L59.2645 50.9999L57.3697 43.2726C57.3208 43.1103 57.3205 42.9372 57.3688 42.7747C57.417 42.6122 57.5116 42.4673 57.6411 42.3579L63.7489 37.1912L55.774 36.5968C55.6121 36.5853 55.4567 36.5286 55.3254 36.4332C55.194 36.3378 55.0921 36.2076 55.031 36.0572H55.0277ZM64.8585 38.5279L66.472 37.1615C66.6107 37.0529 66.7132 36.9048 66.7661 36.7368C66.819 36.5688 66.8197 36.3887 66.7683 36.2202C66.7168 36.0518 66.6155 35.9029 66.4777 35.7931C66.3399 35.6834 66.1722 35.618 65.9965 35.6054L56.4312 34.9008L52.804 26.025C52.7384 25.8655 52.6269 25.7292 52.4837 25.6332C52.3405 25.5372 52.1719 25.486 51.9995 25.486C51.8271 25.486 51.6586 25.5372 51.5154 25.6332C51.3722 25.7292 51.2607 25.8655 51.1951 26.025L47.5679 34.9008L38.0026 35.6074C37.8301 35.6202 37.6653 35.684 37.5291 35.7907C37.3929 35.8973 37.2915 36.0421 37.2378 36.2065C37.1841 36.371 37.1804 36.5477 37.2274 36.7142C37.2743 36.8807 37.3697 37.0295 37.5013 37.1417L39.3288 38.6871L32.7844 38.7281L32.1695 36.2183L36.0001 32.9782C36.1386 32.8695 36.2409 32.7215 36.2937 32.5536C36.3464 32.3857 36.3471 32.2058 36.2956 32.0375C36.2442 31.8692 36.143 31.7204 36.0054 31.6107C35.8678 31.501 35.7002 31.4355 35.5246 31.4228L32.2785 31.1831C32.2321 27.531 33.5061 23.9849 35.8661 21.1974C38.226 18.4098 41.5132 16.5681 45.1229 16.0112C47.0226 17.6851 49.4676 18.6087 51.9995 18.6087C54.5315 18.6087 56.9765 17.6851 58.8761 16.0112C62.4861 16.568 65.7737 18.4096 68.1339 21.1974C70.4941 23.9851 71.7682 27.5314 71.7219 31.1837L68.4751 31.4235C68.3027 31.4364 68.1379 31.5002 68.0018 31.607C67.8657 31.7137 67.7644 31.8585 67.7108 32.0229C67.6571 32.1873 67.6536 32.3639 67.7005 32.5304C67.7475 32.6968 67.8428 32.8456 67.9745 32.9577L71.8295 36.219L71.2734 38.4877L64.8585 38.5279Z" fill="#6EDF8B"/>
</g>
<defs>
<linearGradient id="paint0_linear_332_1097" x1="52.5888" y1="10.4517" x2="52.5888" y2="86.4643" gradientUnits="userSpaceOnUse">
<stop stop-color="white" stop-opacity="0.2"/>
<stop offset="0.601141" stop-color="#9ACEAA" stop-opacity="0.2"/>
</linearGradient>
<clipPath id="clip0_332_1097">
<rect width="104" height="104" fill="white"/>
</clipPath>
</defs>
</svg>
