<svg width="104" height="104" viewBox="0 0 104 104" fill="none" xmlns="http://www.w3.org/2000/svg">
<path d="M55.1895 82.1502C51.9576 82.3277 48.7728 82.2345 45.5899 82.1228C41.7776 81.9889 38.004 81.5116 34.2532 80.8172C31.7729 80.358 29.295 79.9019 26.8736 79.1888C24.8588 78.5955 22.8983 77.8685 21.118 76.7377C19.6748 75.8211 18.4503 74.7006 17.8322 73.0559C17.7892 72.9414 17.6936 72.8273 17.8164 72.5913C18.4208 73.4401 19.0577 74.2053 19.9665 74.7072C20.0207 74.5234 19.9134 74.446 19.8495 74.363C17.121 70.8188 17.5728 65.712 20.3073 62.3216C21.8349 60.4277 23.812 59.1679 26.0851 58.3357C27.2496 57.9093 28.4414 57.5919 29.687 57.5081C29.7996 57.5005 29.9149 57.4669 30.0287 57.588C29.9185 57.77 29.718 57.8108 29.5537 57.8945C27.2959 59.0457 25.1494 60.3643 23.4157 62.2305C20.6245 65.2348 19.7175 68.7156 20.9166 72.6643C21.2825 73.8693 21.9628 74.9187 22.778 75.8787C22.8597 75.9749 22.9708 76.0713 23.0876 76.1097C24.7334 76.651 26.43 76.9519 28.1594 77.1422C27.1853 76.5018 26.3366 75.7452 25.6551 74.8071C23.4596 71.7853 23.6273 67.8646 26.0176 64.9873C27.7026 62.9588 29.9399 61.8276 32.36 60.9773C35.0442 60.0342 37.8219 59.5176 40.6478 59.1751C43.5746 58.8204 46.5046 58.7738 49.4409 58.8469C51.04 58.8868 52.6283 59.0932 54.209 59.3369C54.4645 59.3762 54.7291 59.41 54.9938 59.5703C54.8198 59.7147 54.6251 59.7201 54.4438 59.738C50.5534 60.1222 46.6931 60.7131 42.8526 61.4279C39.5934 62.0346 36.3537 62.7279 33.2364 63.8841C31.8254 64.4074 30.4559 65.0184 29.2592 65.9438C26.3492 68.1941 25.7337 71.6345 27.6604 74.7738C28.0231 75.3648 28.4636 75.8876 28.9484 76.3843C29.764 77.22 30.7634 77.6046 31.9122 77.659C32.4964 77.6866 33.0749 77.8291 33.7964 77.7546C32.869 77.3608 32.0523 77.0196 31.3425 76.4774C29.9762 75.4338 29.1121 74.0883 29.0408 72.3683C28.9757 70.7963 29.6296 69.4394 30.6506 68.2571C32.1006 66.5784 33.9717 65.5286 36.0438 64.8242C39.3334 63.7059 42.7325 63.0912 46.1855 62.7178C49.8663 62.3197 53.5554 62.19 57.2528 62.2796C60.7665 62.3647 64.2765 62.5844 67.7276 63.2661C71.2859 63.9689 74.7253 65.0483 77.8312 66.9851C78.5891 67.4578 79.2743 68.019 79.8567 68.6993C81.309 70.3957 81.3185 72.3918 79.878 74.1012C79.7004 74.3119 79.5218 74.5218 79.3229 74.7566C79.4098 74.7858 79.4596 74.822 79.4907 74.8101C81.4344 74.0649 83.2596 73.1301 84.5957 71.4797C85.5731 70.2723 85.6038 69.1734 84.739 67.8699C83.7352 66.357 82.3197 65.2821 80.7908 64.3568C76.9859 62.0538 72.8587 60.5993 68.4713 59.8518C67.2331 59.6409 65.9889 59.5224 64.7313 59.5603C64.6368 59.5632 64.5415 59.5392 64.4031 59.5225C64.5521 59.3203 64.7393 59.3268 64.908 59.3036C67.7307 58.9162 70.5339 59.0823 73.3218 59.6121C76.1692 60.1531 78.9261 60.9768 81.5284 62.263C83.4003 63.1882 85.1727 64.2597 86.5329 65.8776C88.8527 68.6368 88.7249 71.6923 86.2199 74.299C84.4448 76.1461 82.2296 77.2845 79.8792 78.1998C75.8309 79.7764 71.6031 80.6099 67.3082 81.1839C63.3002 81.7194 59.2805 82.0714 55.1895 82.1502ZM61.6678 78.164C63.6242 78.0248 65.5756 77.8365 67.5191 77.572C70.6891 77.1405 73.8203 76.5339 76.9174 75.7206C78.049 75.4235 78.7672 74.7991 79.2946 73.8434C79.3659 73.7142 79.4443 73.5888 79.5119 73.4577C80.2856 71.9576 80.0014 70.5839 78.7011 69.5014C78.3456 69.2055 77.9647 68.9476 77.5634 68.7195C75.1367 67.3406 72.4595 66.6792 69.7563 66.1517C66.1514 65.4481 62.4807 65.3665 58.8223 65.2751C55.5899 65.1943 52.356 65.2473 49.1229 65.4162C45.7766 65.5911 42.4437 65.8449 39.1435 66.4415C36.7819 66.8685 34.5182 67.5458 32.6059 69.0591C31.5433 69.9 30.7471 70.9438 30.646 72.3419C30.5344 73.8844 31.3152 75.0282 32.4636 75.9691C33.6754 76.9619 35.1026 77.4984 36.605 77.8691C39.2522 78.5225 41.9662 78.5561 44.6639 78.6258C48.9528 78.7366 53.2444 78.6977 57.5304 78.448C58.8797 78.3694 60.2275 78.2638 61.6678 78.164Z" fill="#9ACEAA"/>
<path d="M41.3113 86.9494C37.7102 86.6786 34.1839 86.2114 30.7127 85.3923C27.077 84.5344 23.5156 83.4599 20.2277 81.645C18.1471 80.4965 16.2507 79.117 14.8518 77.1673C12.6514 74.1006 12.5963 70.8796 14.2331 67.5697C15.0491 65.9197 16.2025 64.5149 17.5629 63.274C17.6471 63.1972 17.7422 63.1316 17.8369 63.0674C17.8574 63.0535 17.8978 63.0683 17.9591 63.0714C17.9605 63.2887 17.7903 63.411 17.6876 63.5625C16.4345 65.4104 15.4155 67.3559 15.0631 69.5912C14.6244 72.3738 15.5599 74.6381 17.6744 76.4613C19.5628 78.0896 21.7944 79.1056 24.1192 79.9283C28.1108 81.3406 32.2455 82.1659 36.429 82.7674C39.3182 83.1829 42.2232 83.4302 45.1389 83.5928C48.107 83.7582 51.0769 83.8197 54.0444 83.7343C57.653 83.6305 61.2577 83.4273 64.8577 83.1162C68.0452 82.8408 71.2169 82.4474 74.393 82.0812C74.6502 82.0515 74.8991 81.9253 75.2162 82.0189C75.0663 82.2424 74.8315 82.2699 74.6353 82.342C71.3667 83.5421 68.0165 84.4616 64.61 85.183C61.0766 85.9312 57.5144 86.4821 53.9107 86.7819C50.9491 87.0282 47.9862 87.1802 45.0149 87.1162C43.7952 87.09 42.5766 87.0079 41.3113 86.9494Z" fill="#9ACEAA"/>
<path d="M80.8901 84.4496C76.441 86.8708 71.7828 88.6881 66.9355 90.0261C63.6278 90.9391 60.263 91.5728 56.8511 91.9881C53.5669 92.3879 50.2749 92.508 46.9734 92.4553C40.7507 92.3559 34.6615 91.4558 28.7559 89.4481C24.5866 88.0307 20.69 86.1179 17.2516 83.3505C16.4816 82.7308 15.7612 82.058 15.0889 81.3352C15.005 81.245 14.8751 81.1725 14.906 81.0125C15.0174 80.9346 15.0956 81.0183 15.1687 81.0727C17.9161 83.1145 20.9937 84.527 24.192 85.7C28.3707 87.2327 32.6923 88.1807 37.103 88.7626C41.6918 89.3679 46.3028 89.5737 50.9237 89.4326C54.7973 89.3143 58.6492 88.9231 62.4732 88.2628C70.1754 86.9328 77.5514 84.6104 84.5724 81.1966C85.935 80.5341 87.2687 79.8131 88.5644 79.0266C88.6719 78.9614 88.7744 78.864 88.9224 78.9063C88.668 79.5699 85.0718 82.0522 80.8901 84.4496Z" fill="#9ACEAA"/>
<path d="M33.2877 57.9544C36.3204 56.6209 39.4334 55.6685 42.6579 55.0778C44.7827 54.6885 46.9286 54.4583 49.0813 54.2912C53.0491 53.9831 57.0251 53.9779 61.0015 53.9927C65.2845 54.0086 69.5193 54.4436 73.7108 55.3357C77.5532 56.1535 81.2701 57.3073 84.7267 59.1915C87.002 60.4319 89.059 61.9355 90.6134 64.0482C93.1132 67.4458 92.8803 71.7741 90.0594 74.9271C87.7827 77.4718 84.9003 79.0675 81.7673 80.2879C80.863 80.6402 79.928 80.9158 79.0044 81.2184C78.8593 81.2659 78.7075 81.3591 78.4488 81.2214C79.0851 80.9344 79.6661 80.6859 80.2354 80.4133C83.0431 79.0684 85.7115 77.517 87.8912 75.2563C88.9637 74.1439 89.8452 72.9088 90.2921 71.4121C91.0409 68.9042 90.3484 66.7349 88.6678 64.8205C87.145 63.0858 85.2267 61.8769 83.1613 60.8889C79.3267 59.0548 75.26 57.9774 71.0739 57.2998C67.5529 56.7297 64.0083 56.4591 60.4418 56.3868C56.745 56.3119 53.0485 56.2836 49.3517 56.32C43.4467 56.378 37.6509 57.1543 32.0133 58.9543C31.5837 59.0914 31.1514 59.246 30.6752 59.2313C31.4876 58.7117 32.3857 58.3704 33.2877 57.9544Z" fill="#9ACEAA"/>
<path fill-rule="evenodd" clip-rule="evenodd" d="M51.9995 12.6084C50.287 12.6084 48.613 13.1162 47.1891 14.0677C45.7652 15.0191 44.6554 16.3714 44.0001 17.9536C43.3447 19.5358 43.1733 21.2767 43.5075 22.9563C43.8416 24.6359 44.6663 26.1787 45.8773 27.3896C47.0883 28.6005 48.6311 29.4251 50.3108 29.7591C51.9904 30.0931 53.7313 29.9216 55.3135 29.2661C56.8956 28.6107 58.2478 27.5008 59.1991 26.0768C60.1505 24.6528 60.6582 22.9788 60.658 21.2662C60.6579 18.97 59.7456 16.7678 58.1218 15.1442C56.498 13.5205 54.2958 12.6084 51.9995 12.6084ZM31.3869 45.9301L29.8289 45.8118C29.667 45.8005 29.5114 45.744 29.38 45.6487C29.2486 45.5535 29.1464 45.4233 29.0852 45.2729L27.7762 42.0684L26.4943 45.2036C26.4418 45.3708 26.3403 45.5184 26.2028 45.6271C26.0654 45.7358 25.8984 45.8007 25.7235 45.8132L22.2793 46.0661L24.9178 48.2991C25.0407 48.4032 25.1322 48.5395 25.1823 48.6926C25.2323 48.8457 25.2388 49.0097 25.2011 49.1663L24.3769 52.5306L27.304 50.7177C27.442 50.6284 27.6026 50.5801 27.767 50.5785C27.9313 50.5769 28.0928 50.6219 28.2326 50.7084L31.1756 52.5306L30.3625 49.2132C30.3137 49.0508 30.3134 48.8778 30.3616 48.7153C30.4099 48.5528 30.5045 48.4079 30.634 48.2984L33.2758 46.0661L31.3869 45.9301ZM70.7259 46.0694L73.3677 48.3024C73.491 48.4066 73.5828 48.543 73.6328 48.6964C73.6829 48.8498 73.6892 49.0141 73.6511 49.1709L72.8235 52.5306L75.7513 50.7177C75.8893 50.6284 76.0499 50.5801 76.2143 50.5785C76.3786 50.5769 76.5401 50.6219 76.6799 50.7084L79.6222 52.5306L78.8092 49.2132C78.7601 49.0511 78.7593 48.8782 78.8071 48.7157C78.8548 48.5532 78.949 48.4082 79.078 48.2984L81.7198 46.0661L78.2755 45.8085C78.1137 45.7973 77.9582 45.7408 77.8268 45.6455C77.6955 45.5503 77.5935 45.42 77.5325 45.2696L76.2229 42.0651L74.9409 45.2036C74.8887 45.3708 74.7873 45.5184 74.6499 45.6271C74.5125 45.7359 74.3456 45.8007 74.1708 45.8132L70.7259 46.0674V46.0694ZM55.0277 49.1187L51.9995 41.7091L48.9991 49.052C48.9466 49.2191 48.8449 49.3665 48.7075 49.4751C48.57 49.5837 48.4031 49.6485 48.2284 49.6609L40.2534 50.2501L46.3606 55.4174C46.4839 55.5216 46.5757 55.658 46.6257 55.8114C46.6757 55.9648 46.6821 56.1291 46.644 56.2859L44.7379 64.0614L51.528 59.8563C51.666 59.7671 51.8265 59.7188 51.9908 59.7171C52.1552 59.7153 52.3167 59.7602 52.4566 59.8464L59.2645 64.0614L57.3697 56.3341C57.3208 56.1718 57.3205 55.9987 57.3688 55.8362C57.417 55.6737 57.5116 55.5288 57.6411 55.4194L63.7489 50.2527L55.774 49.6583C55.6121 49.6468 55.4567 49.5901 55.3254 49.4947C55.194 49.3994 55.0921 49.2691 55.031 49.1187H55.0277ZM64.8585 51.5895L66.472 50.223C66.6107 50.1144 66.7132 49.9664 66.7661 49.7983C66.819 49.6303 66.8197 49.4502 66.7683 49.2818C66.7168 49.1133 66.6155 48.9644 66.4777 48.8547C66.3399 48.7449 66.1722 48.6795 65.9965 48.667L56.4312 47.9623L52.804 39.0865C52.7384 38.927 52.6269 38.7907 52.4837 38.6947C52.3405 38.5988 52.1719 38.5475 51.9995 38.5475C51.8271 38.5475 51.6586 38.5988 51.5154 38.6947C51.3722 38.7907 51.2607 38.927 51.1951 39.0865L47.5679 47.9623L38.0026 48.669C37.8301 48.6817 37.6653 48.7455 37.5291 48.8522C37.3929 48.9589 37.2915 49.1036 37.2378 49.2681C37.1841 49.4325 37.1804 49.6092 37.2274 49.7757C37.2743 49.9422 37.3697 50.091 37.5013 50.2032L39.3288 51.7486L32.7844 51.7896L32.1695 49.2799L36.0001 46.0397C36.1386 45.9311 36.2409 45.783 36.2937 45.6151C36.3464 45.4472 36.3471 45.2673 36.2956 45.099C36.2442 44.9307 36.143 44.7819 36.0054 44.6722C35.8678 44.5625 35.7002 44.497 35.5246 44.4843L32.2785 44.2446C32.2321 40.5925 33.5061 37.0465 35.8661 34.2589C38.226 31.4713 41.5132 29.6297 45.1229 29.0728C47.0226 30.7467 49.4676 31.6702 51.9995 31.6702C54.5315 31.6702 56.9765 30.7467 58.8761 29.0728C62.4861 29.6295 65.7737 31.4712 68.1339 34.2589C70.4941 37.0466 71.7682 40.5929 71.7219 44.2453L68.4751 44.485C68.3027 44.4979 68.1379 44.5618 68.0018 44.6685C67.8657 44.7752 67.7644 44.92 67.7108 45.0844C67.6571 45.2488 67.6536 45.4255 67.7005 45.5919C67.7475 45.7584 67.8428 45.9071 67.9745 46.0192L71.8295 49.2805L71.2734 51.5492L64.8585 51.5895Z" fill="#6EDF8B"/>
</svg>
