<svg width="1213" height="664" viewBox="0 0 1213 664" fill="none" xmlns="http://www.w3.org/2000/svg">
<path d="M1212.35 571.764C1191.52 645.097 1101.35 743.264 907.354 549.264C664.854 306.764 731.854 -143.736 305.854 46.7641C-120.146 237.264 -52.6465 542.264 220.854 614.264C494.354 686.264 694.354 627.764 658.354 401.264C622.354 174.764 238.854 -27.2359 162.354 217.264C85.8535 461.764 256.854 634.264 391.354 591.764C525.854 549.264 714.354 426.264 498.854 289.264C283.354 152.264 153.854 252.764 220.854 369.764C287.854 486.764 471.854 612.264 442.854 484.264C413.854 356.264 388.354 286.264 352.854 320.264C317.354 354.264 330.354 383.264 352.854 401.264C375.354 419.264 393.854 396.764 373.354 369.764" stroke="white" stroke-opacity="0.39"/>
</svg>
