<svg width="964" height="967" viewBox="0 0 964 967" fill="none" xmlns="http://www.w3.org/2000/svg">
<path d="M926.483 966.42C978.436 910.629 1015.74 782.662 749.321 717.132C416.3 635.219 65.5714 925.786 7.98969 462.698C-49.592 -0.390471 246.294 -100.555 449.496 96.1552C652.699 292.866 706.2 494.26 493.782 580.731C281.365 667.202 -90.0089 443.69 79.5612 251.653C249.131 59.6148 485.246 116.599 518.523 253.673C551.8 390.746 544.165 615.697 315.382 502.262C86.5991 388.826 105.532 226 240.318 222.745C375.105 219.489 577.74 311.929 453.217 353.391C328.694 394.852 255.604 409.278 266.312 361.304C277.02 313.329 308.561 309.436 335.61 319.366C362.659 329.296 352.988 356.773 319.275 353.213" stroke="#00BC31" stroke-opacity="0.45"/>
</svg>
