<svg width="104" height="104" viewBox="0 0 104 104" fill="none" xmlns="http://www.w3.org/2000/svg">
<g clip-path="url(#clip0_332_1315)">
<path d="M55.1893 82.1502C51.9574 82.3277 48.7726 82.2345 45.5897 82.1228C41.7774 81.9889 38.0038 81.5116 34.253 80.8172C31.7727 80.358 29.2948 79.9019 26.8734 79.1888C24.8587 78.5955 22.8981 77.8685 21.1178 76.7377C19.6746 75.8211 18.4501 74.7006 17.832 73.0559C17.789 72.9414 17.6934 72.8273 17.8162 72.5913C18.4206 73.4401 19.0575 74.2053 19.9664 74.7072C20.0205 74.5234 19.9132 74.446 19.8493 74.363C17.1208 70.8188 17.5726 65.712 20.3071 62.3216C21.8347 60.4277 23.8119 59.1679 26.0849 58.3357C27.2494 57.9093 28.4412 57.5919 29.6868 57.5081C29.7994 57.5005 29.9147 57.4669 30.0285 57.588C29.9183 57.77 29.7178 57.8108 29.5535 57.8945C27.2957 59.0457 25.1492 60.3643 23.4155 62.2305C20.6243 65.2348 19.7173 68.7156 20.9164 72.6643C21.2823 73.8693 21.9626 74.9187 22.7778 75.8787C22.8595 75.9749 22.9706 76.0713 23.0874 76.1097C24.7332 76.651 26.4298 76.9519 28.1592 77.1422C27.1851 76.5018 26.3364 75.7452 25.6549 74.8071C23.4594 71.7853 23.6271 67.8646 26.0174 64.9873C27.7024 62.9588 29.9397 61.8276 32.3598 60.9773C35.044 60.0342 37.8218 59.5176 40.6476 59.1751C43.5744 58.8204 46.5044 58.7738 49.4407 58.8469C51.0398 58.8868 52.6281 59.0932 54.2089 59.3369C54.4643 59.3762 54.7289 59.41 54.9936 59.5703C54.8197 59.7147 54.6249 59.7201 54.4436 59.738C50.5532 60.1222 46.693 60.7131 42.8524 61.4279C39.5933 62.0346 36.3536 62.7279 33.2363 63.8841C31.8253 64.4074 30.4557 65.0184 29.259 65.9438C26.349 68.1941 25.7335 71.6345 27.6602 74.7738C28.0229 75.3648 28.4634 75.8876 28.9482 76.3843C29.7638 77.22 30.7632 77.6046 31.9121 77.659C32.4962 77.6866 33.0747 77.8291 33.7962 77.7546C32.8688 77.3608 32.0521 77.0196 31.3423 76.4774C29.9761 75.4338 29.1119 74.0883 29.0406 72.3683C28.9755 70.7963 29.6294 69.4394 30.6505 68.2571C32.1004 66.5784 33.9715 65.5286 36.0437 64.8242C39.3333 63.7059 42.7324 63.0912 46.1853 62.7178C49.8661 62.3197 53.5553 62.19 57.2526 62.2796C60.7663 62.3647 64.2763 62.5844 67.7274 63.2661C71.2857 63.9689 74.7252 65.0483 77.831 66.9851C78.5889 67.4578 79.2741 68.019 79.8565 68.6993C81.3088 70.3957 81.3183 72.3918 79.8778 74.1012C79.7002 74.3119 79.5216 74.5218 79.3227 74.7566C79.4096 74.7858 79.4594 74.822 79.4905 74.8101C81.4342 74.0649 83.2595 73.1301 84.5955 71.4797C85.573 70.2723 85.6036 69.1734 84.7388 67.8699C83.7351 66.357 82.3195 65.2821 80.7906 64.3568C76.9857 62.0538 72.8585 60.5993 68.4711 59.8518C67.233 59.6409 65.9887 59.5224 64.7311 59.5603C64.6366 59.5632 64.5413 59.5392 64.4029 59.5225C64.5519 59.3203 64.7391 59.3268 64.9078 59.3036C67.7305 58.9162 70.5337 59.0823 73.3216 59.6121C76.169 60.1531 78.9259 60.9768 81.5282 62.263C83.4002 63.1882 85.1725 64.2597 86.5327 65.8776C88.8525 68.6368 88.7248 71.6923 86.2197 74.299C84.4446 76.1461 82.2295 77.2845 79.879 78.1998C75.8307 79.7764 71.6029 80.6099 67.308 81.1839C63.3 81.7194 59.2803 82.0714 55.1893 82.1502ZM61.6677 78.164C63.6241 78.0248 65.5754 77.8365 67.5189 77.572C70.6889 77.1405 73.8201 76.5339 76.9173 75.7206C78.0488 75.4235 78.767 74.7991 79.2944 73.8434C79.3657 73.7142 79.4441 73.5888 79.5117 73.4577C80.2854 71.9576 80.0012 70.5839 78.7009 69.5014C78.3455 69.2055 77.9645 68.9476 77.5632 68.7195C75.1365 67.3406 72.4593 66.6792 69.7561 66.1517C66.1512 65.4481 62.4805 65.3665 58.8221 65.2751C55.5897 65.1943 52.3558 65.2473 49.1227 65.4162C45.7765 65.5911 42.4435 65.8449 39.1434 66.4415C36.7817 66.8685 34.518 67.5458 32.6057 69.0591C31.5431 69.9 30.7469 70.9438 30.6458 72.3419C30.5342 73.8844 31.315 75.0282 32.4634 75.9691C33.6752 76.9619 35.1024 77.4984 36.6048 77.8691C39.2521 78.5225 41.966 78.5561 44.6637 78.6258C48.9527 78.7366 53.2443 78.6977 57.5302 78.448C58.8795 78.3694 60.2273 78.2638 61.6677 78.164Z" fill="#9ACEAA"/>
<path d="M41.3117 86.9494C37.7106 86.6786 34.1843 86.2114 30.7131 85.3923C27.0774 84.5344 23.516 83.4599 20.2282 81.645C18.1475 80.4965 16.2511 79.117 14.8522 77.1673C12.6518 74.1006 12.5967 70.8796 14.2336 67.5697C15.0496 65.9197 16.2029 64.5149 17.5633 63.274C17.6475 63.1972 17.7427 63.1316 17.8373 63.0674C17.8578 63.0535 17.8982 63.0683 17.9596 63.0714C17.9609 63.2887 17.7907 63.411 17.688 63.5625C16.435 65.4104 15.4159 67.3559 15.0635 69.5912C14.6248 72.3738 15.5604 74.6381 17.6748 76.4613C19.5633 78.0896 21.7948 79.1056 24.1197 79.9283C28.1112 81.3406 32.2459 82.1659 36.4294 82.7674C39.3186 83.1829 42.2237 83.4302 45.1393 83.5928C48.1074 83.7582 51.0773 83.8197 54.0448 83.7343C57.6534 83.6305 61.2581 83.4273 64.8581 83.1162C68.0457 82.8408 71.2174 82.4474 74.3934 82.0812C74.6506 82.0515 74.8995 81.9253 75.2166 82.0189C75.0668 82.2424 74.8319 82.2699 74.6357 82.342C71.3671 83.5421 68.0169 84.4616 64.6104 85.183C61.077 85.9312 57.5149 86.4821 53.9111 86.7819C50.9495 87.0282 47.9866 87.1802 45.0153 87.1162C43.7956 87.09 42.577 87.0079 41.3117 86.9494Z" fill="#9ACEAA"/>
<path d="M80.8901 84.4496C76.441 86.8708 71.7828 88.6881 66.9355 90.0261C63.6278 90.9391 60.263 91.5728 56.8511 91.9881C53.5669 92.3879 50.2749 92.508 46.9734 92.4553C40.7507 92.3559 34.6615 91.4558 28.7559 89.4481C24.5866 88.0307 20.69 86.1179 17.2516 83.3505C16.4816 82.7308 15.7612 82.058 15.0889 81.3352C15.005 81.245 14.8751 81.1725 14.906 81.0125C15.0174 80.9346 15.0956 81.0183 15.1687 81.0727C17.9161 83.1145 20.9937 84.527 24.192 85.7C28.3707 87.2327 32.6923 88.1807 37.103 88.7626C41.6918 89.3679 46.3028 89.5737 50.9237 89.4326C54.7973 89.3143 58.6492 88.9231 62.4732 88.2628C70.1754 86.9328 77.5514 84.6104 84.5724 81.1966C85.935 80.5341 87.2687 79.8131 88.5644 79.0266C88.6719 78.9614 88.7744 78.864 88.9224 78.9063C88.668 79.5699 85.0718 82.0522 80.8901 84.4496Z" fill="#9ACEAA"/>
<path d="M33.2873 57.9544C36.3199 56.6209 39.433 55.6685 42.6575 55.0778C44.7822 54.6885 46.9282 54.4583 49.0808 54.2912C53.0487 53.9831 57.0247 53.9779 61.0011 53.9927C65.284 54.0086 69.5189 54.4436 73.7104 55.3357C77.5528 56.1535 81.2697 57.3073 84.7263 59.1915C87.0016 60.4319 89.0586 61.9355 90.613 64.0482C93.1127 67.4458 92.8798 71.7741 90.059 74.9271C87.7823 77.4718 84.8999 79.0675 81.7669 80.2879C80.8625 80.6402 79.9276 80.9158 79.004 81.2184C78.8589 81.2659 78.707 81.3591 78.4484 81.2214C79.0846 80.9344 79.6657 80.6859 80.2349 80.4133C83.0427 79.0684 85.7111 77.517 87.8907 75.2563C88.9632 74.1439 89.8448 72.9088 90.2917 71.4121C91.0405 68.9042 90.348 66.7349 88.6674 64.8205C87.1446 63.0858 85.2263 61.8769 83.1608 60.8889C79.3263 59.0548 75.2595 57.9774 71.0735 57.2998C67.5525 56.7297 64.0078 56.4591 60.4413 56.3868C56.7445 56.3119 53.0481 56.2836 49.3513 56.32C43.4463 56.378 37.6505 57.1543 32.0128 58.9543C31.5833 59.0914 31.151 59.246 30.6748 59.2313C31.4872 58.7117 32.3852 58.3704 33.2873 57.9544Z" fill="#9ACEAA"/>
<path d="M13.9434 75.1046L0.5 10.4517H108.5L91.2341 75.1046C58.3548 95.6782 24.3582 83.6769 13.9434 75.1046Z" fill="url(#paint0_linear_332_1315)"/>
<path fill-rule="evenodd" clip-rule="evenodd" d="M75.1634 26.1282C75.1634 27.1327 74.3489 27.9472 73.3444 27.9472C72.5734 27.9472 71.9144 27.4672 71.6499 26.7902H67.3884V27.1207C67.3884 27.4722 67.1454 27.7677 66.8004 27.8357L64.6819 28.2532L63.1564 31.9357L64.3589 33.7292C64.5549 34.0212 64.5179 34.4017 64.2689 34.6507L63.3489 35.5707L67.3604 39.5822C67.4849 39.7067 67.5544 39.8742 67.5544 40.0502V44.6372C68.2319 44.9017 68.7114 45.5607 68.7114 46.3322C68.7114 47.3367 67.8969 48.1512 66.8924 48.1512C65.8879 48.1512 65.0734 47.3367 65.0734 46.3322C65.0734 45.5612 65.5534 44.9022 66.2304 44.6372V40.3242L62.4124 36.5062L61.4924 37.4262C61.2439 37.6752 60.8634 37.7122 60.5709 37.5162L58.7774 36.3137L55.0949 37.8392L54.6774 39.9577C54.6094 40.3027 54.3139 40.5457 53.9624 40.5457H52.6614V44.6377C53.3389 44.9022 53.8184 45.5612 53.8184 46.3322C53.8184 47.3367 53.0039 48.1512 51.9994 48.1512C50.9949 48.1512 50.1804 47.3367 50.1804 46.3322C50.1804 45.5612 50.6604 44.9022 51.3374 44.6377V40.5457H50.0364C49.6849 40.5457 49.3894 40.3027 49.3214 39.9577L48.9039 37.8392L45.2214 36.3137L43.4279 37.5162C43.1359 37.7122 42.7554 37.6747 42.5064 37.4262L41.5864 36.5062L37.7684 40.3242V44.6372C38.4459 44.9017 38.9254 45.5607 38.9254 46.3322C38.9254 47.3367 38.1109 48.1512 37.1064 48.1512C36.1019 48.1512 35.2874 47.3367 35.2874 46.3322C35.2874 45.5612 35.7674 44.9022 36.4444 44.6372V40.0502C36.4444 39.8742 36.5139 39.7067 36.6384 39.5822L40.6499 35.5707L39.7299 34.6507C39.4814 34.4022 39.4439 34.0212 39.6399 33.7292L40.8424 31.9357L39.3169 28.2532L37.1984 27.8357C36.8534 27.7677 36.6104 27.4722 36.6104 27.1207V26.7902H32.3504C32.0859 27.4677 31.4269 27.9472 30.6559 27.9472C29.6514 27.9472 28.8369 27.1327 28.8369 26.1282C28.8369 25.1237 29.6514 24.3092 30.6559 24.3092C31.4269 24.3092 32.0859 24.7892 32.3504 25.4662H36.6119V25.1577H43.3224V25.1672C43.3224 29.9597 47.2074 33.8447 51.9994 33.8447C56.7914 33.8447 60.6769 29.9597 60.6769 25.1672V25.1577H67.3874V25.4662H71.6489C71.9134 24.7887 72.5724 24.3092 73.3434 24.3092C74.3479 24.3092 75.1624 25.1237 75.1624 26.1282H75.1634ZM34.6169 8.10371C34.6169 7.09921 35.4314 6.28471 36.4359 6.28471C37.4404 6.28471 38.2549 7.09921 38.2549 8.10371C38.2549 8.87471 37.7749 9.53371 37.0979 9.79821V14.1112L41.1504 18.1637V4.68821H54.4479V23.8347H50.3379V19.4237C50.3379 18.6157 49.6769 17.9542 48.8684 17.9542H46.7294C45.9214 17.9542 45.2599 18.6152 45.2599 19.4237V23.8347H41.1499V20.0362L35.9674 14.8537C35.8384 14.7247 35.7734 14.5552 35.7734 14.3857V9.79871C35.0959 9.53421 34.6164 8.87521 34.6164 8.10421L34.6169 8.10371ZM48.4609 10.6657H51.0424V8.08421H48.4609V10.6657ZM48.4609 14.5707H51.0424V11.9892H48.4609V14.5707ZM44.5559 10.6657H47.1374V8.08421H44.5559V10.6657ZM44.5559 14.5707H47.1374V11.9892H44.5559V14.5707ZM52.8764 1.82471H42.7214V3.36421H52.8759L52.8764 1.82471ZM62.8499 23.8342H55.7714V8.60071L62.8499 11.6022V18.1642L66.9024 14.1117V9.79871C66.2249 9.53421 65.7454 8.87521 65.7454 8.10421C65.7454 7.09971 66.5599 6.28521 67.5644 6.28521C68.5689 6.28521 69.3834 7.09971 69.3834 8.10421C69.3834 8.87521 68.9034 9.53421 68.2264 9.79871V14.3857C68.2264 14.5552 68.1619 14.7242 68.0324 14.8537L62.8499 20.0362V23.8342ZM60.6059 17.8962L58.0154 17.4652V20.4922H60.6059V17.8962ZM60.6059 14.1992L58.0154 13.1007V16.1277L60.6059 16.5587V14.1992Z" fill="#6EDF8B"/>
</g>
<defs>
<linearGradient id="paint0_linear_332_1315" x1="52.5888" y1="10.4517" x2="52.5888" y2="86.4643" gradientUnits="userSpaceOnUse">
<stop stop-color="white" stop-opacity="0.2"/>
<stop offset="0.601141" stop-color="#9ACEAA" stop-opacity="0.2"/>
</linearGradient>
<clipPath id="clip0_332_1315">
<rect width="104" height="104" fill="white"/>
</clipPath>
</defs>
</svg>
