<svg width="104" height="104" viewBox="0 0 104 104" fill="none" xmlns="http://www.w3.org/2000/svg">
<g clip-path="url(#clip0_332_1442)">
<path d="M55.1893 82.1502C51.9574 82.3277 48.7726 82.2345 45.5897 82.1228C41.7774 81.9889 38.0038 81.5116 34.253 80.8172C31.7727 80.358 29.2948 79.9019 26.8734 79.1888C24.8587 78.5955 22.8981 77.8685 21.1178 76.7377C19.6746 75.8211 18.4501 74.7006 17.832 73.0559C17.789 72.9414 17.6934 72.8273 17.8162 72.5913C18.4206 73.4401 19.0575 74.2053 19.9664 74.7072C20.0205 74.5234 19.9132 74.446 19.8493 74.363C17.1208 70.8188 17.5726 65.712 20.3071 62.3216C21.8347 60.4277 23.8119 59.1679 26.0849 58.3357C27.2494 57.9093 28.4412 57.5919 29.6868 57.5081C29.7994 57.5005 29.9147 57.4669 30.0285 57.588C29.9183 57.77 29.7178 57.8108 29.5535 57.8945C27.2957 59.0457 25.1492 60.3643 23.4155 62.2305C20.6243 65.2348 19.7173 68.7156 20.9164 72.6643C21.2823 73.8693 21.9626 74.9187 22.7778 75.8787C22.8595 75.9749 22.9706 76.0713 23.0874 76.1097C24.7332 76.651 26.4298 76.9519 28.1592 77.1422C27.1851 76.5018 26.3364 75.7452 25.6549 74.8071C23.4594 71.7853 23.6271 67.8646 26.0174 64.9873C27.7024 62.9588 29.9397 61.8276 32.3598 60.9773C35.044 60.0342 37.8218 59.5176 40.6476 59.1751C43.5744 58.8204 46.5044 58.7738 49.4407 58.8469C51.0398 58.8868 52.6281 59.0932 54.2089 59.3369C54.4643 59.3762 54.7289 59.41 54.9936 59.5703C54.8197 59.7147 54.6249 59.7201 54.4436 59.738C50.5532 60.1222 46.693 60.7131 42.8524 61.4279C39.5933 62.0346 36.3536 62.7279 33.2363 63.8841C31.8253 64.4074 30.4557 65.0184 29.259 65.9438C26.349 68.1941 25.7335 71.6345 27.6602 74.7738C28.0229 75.3648 28.4634 75.8876 28.9482 76.3843C29.7638 77.22 30.7632 77.6046 31.9121 77.659C32.4962 77.6866 33.0747 77.8291 33.7962 77.7546C32.8688 77.3608 32.0521 77.0196 31.3423 76.4774C29.9761 75.4338 29.1119 74.0883 29.0406 72.3683C28.9755 70.7963 29.6294 69.4394 30.6505 68.2571C32.1004 66.5784 33.9715 65.5286 36.0437 64.8242C39.3333 63.7059 42.7324 63.0912 46.1853 62.7178C49.8661 62.3197 53.5553 62.19 57.2526 62.2796C60.7663 62.3647 64.2763 62.5844 67.7274 63.2661C71.2857 63.9689 74.7252 65.0483 77.831 66.9851C78.5889 67.4578 79.2741 68.019 79.8565 68.6993C81.3088 70.3957 81.3183 72.3918 79.8778 74.1012C79.7002 74.3119 79.5216 74.5218 79.3227 74.7566C79.4096 74.7858 79.4594 74.822 79.4905 74.8101C81.4342 74.0649 83.2595 73.1301 84.5955 71.4797C85.573 70.2723 85.6036 69.1734 84.7388 67.8699C83.7351 66.357 82.3195 65.2821 80.7906 64.3568C76.9857 62.0538 72.8585 60.5993 68.4711 59.8518C67.233 59.6409 65.9887 59.5224 64.7311 59.5603C64.6366 59.5632 64.5413 59.5392 64.4029 59.5225C64.5519 59.3203 64.7391 59.3268 64.9078 59.3036C67.7305 58.9162 70.5337 59.0823 73.3216 59.6121C76.169 60.1531 78.9259 60.9768 81.5282 62.263C83.4002 63.1882 85.1725 64.2597 86.5327 65.8776C88.8525 68.6368 88.7248 71.6923 86.2197 74.299C84.4446 76.1461 82.2295 77.2845 79.879 78.1998C75.8307 79.7764 71.6029 80.6099 67.308 81.1839C63.3 81.7194 59.2803 82.0714 55.1893 82.1502ZM61.6677 78.164C63.6241 78.0248 65.5754 77.8365 67.5189 77.572C70.6889 77.1405 73.8201 76.5339 76.9173 75.7206C78.0488 75.4235 78.767 74.7991 79.2944 73.8434C79.3657 73.7142 79.4441 73.5888 79.5117 73.4577C80.2854 71.9576 80.0012 70.5839 78.7009 69.5014C78.3455 69.2055 77.9645 68.9476 77.5632 68.7195C75.1365 67.3406 72.4593 66.6792 69.7561 66.1517C66.1512 65.4481 62.4805 65.3665 58.8221 65.2751C55.5897 65.1943 52.3558 65.2473 49.1227 65.4162C45.7765 65.5911 42.4435 65.8449 39.1434 66.4415C36.7817 66.8685 34.518 67.5458 32.6057 69.0591C31.5431 69.9 30.7469 70.9438 30.6458 72.3419C30.5342 73.8844 31.315 75.0282 32.4634 75.9691C33.6752 76.9619 35.1024 77.4984 36.6048 77.8691C39.2521 78.5225 41.966 78.5561 44.6637 78.6258C48.9527 78.7366 53.2443 78.6977 57.5302 78.448C58.8795 78.3694 60.2273 78.2638 61.6677 78.164Z" fill="#9ACEAA"/>
<path d="M41.3117 86.9494C37.7106 86.6786 34.1843 86.2114 30.7131 85.3923C27.0774 84.5344 23.516 83.4599 20.2282 81.645C18.1475 80.4965 16.2511 79.117 14.8522 77.1673C12.6518 74.1006 12.5967 70.8796 14.2336 67.5697C15.0496 65.9197 16.2029 64.5149 17.5633 63.274C17.6475 63.1972 17.7427 63.1316 17.8373 63.0674C17.8578 63.0535 17.8982 63.0683 17.9596 63.0714C17.9609 63.2887 17.7907 63.411 17.688 63.5625C16.435 65.4104 15.4159 67.3559 15.0635 69.5912C14.6248 72.3738 15.5604 74.6381 17.6748 76.4613C19.5633 78.0896 21.7948 79.1056 24.1197 79.9283C28.1112 81.3406 32.2459 82.1659 36.4294 82.7674C39.3186 83.1829 42.2237 83.4302 45.1393 83.5928C48.1074 83.7582 51.0773 83.8197 54.0448 83.7343C57.6534 83.6305 61.2581 83.4273 64.8581 83.1162C68.0457 82.8408 71.2174 82.4474 74.3934 82.0812C74.6506 82.0515 74.8995 81.9253 75.2166 82.0189C75.0668 82.2424 74.8319 82.2699 74.6357 82.342C71.3671 83.5421 68.0169 84.4616 64.6104 85.183C61.077 85.9312 57.5149 86.4821 53.9111 86.7819C50.9495 87.0282 47.9866 87.1802 45.0153 87.1162C43.7956 87.09 42.577 87.0079 41.3117 86.9494Z" fill="#9ACEAA"/>
<path d="M80.8901 84.4496C76.441 86.8708 71.7828 88.6881 66.9355 90.0261C63.6278 90.9391 60.263 91.5728 56.8511 91.9881C53.5669 92.3879 50.2749 92.508 46.9734 92.4553C40.7507 92.3559 34.6615 91.4558 28.7559 89.4481C24.5866 88.0307 20.69 86.1179 17.2516 83.3505C16.4816 82.7308 15.7612 82.058 15.0889 81.3352C15.005 81.245 14.8751 81.1725 14.906 81.0125C15.0174 80.9346 15.0956 81.0183 15.1687 81.0727C17.9161 83.1145 20.9937 84.527 24.192 85.7C28.3707 87.2327 32.6923 88.1807 37.103 88.7626C41.6918 89.3679 46.3028 89.5737 50.9237 89.4326C54.7973 89.3143 58.6492 88.9231 62.4732 88.2628C70.1754 86.9328 77.5514 84.6104 84.5724 81.1966C85.935 80.5341 87.2687 79.8131 88.5644 79.0266C88.6719 78.9614 88.7744 78.864 88.9224 78.9063C88.668 79.5699 85.0718 82.0522 80.8901 84.4496Z" fill="#9ACEAA"/>
<path d="M33.2873 57.9544C36.3199 56.6209 39.433 55.6685 42.6575 55.0778C44.7822 54.6885 46.9282 54.4583 49.0808 54.2912C53.0487 53.9831 57.0247 53.9779 61.0011 53.9927C65.284 54.0086 69.5189 54.4436 73.7104 55.3357C77.5528 56.1535 81.2697 57.3073 84.7263 59.1915C87.0016 60.4319 89.0586 61.9355 90.613 64.0482C93.1127 67.4458 92.8798 71.7741 90.059 74.9271C87.7823 77.4718 84.8999 79.0675 81.7669 80.2879C80.8625 80.6402 79.9276 80.9158 79.004 81.2184C78.8589 81.2659 78.707 81.3591 78.4484 81.2214C79.0846 80.9344 79.6657 80.6859 80.2349 80.4133C83.0427 79.0684 85.7111 77.517 87.8907 75.2563C88.9632 74.1439 89.8448 72.9088 90.2917 71.4121C91.0405 68.9042 90.348 66.7349 88.6674 64.8205C87.1446 63.0858 85.2263 61.8769 83.1608 60.8889C79.3263 59.0548 75.2595 57.9774 71.0735 57.2998C67.5525 56.7297 64.0078 56.4591 60.4413 56.3868C56.7445 56.3119 53.0481 56.2836 49.3513 56.32C43.4463 56.378 37.6505 57.1543 32.0128 58.9543C31.5833 59.0914 31.151 59.246 30.6748 59.2313C31.4872 58.7117 32.3852 58.3704 33.2873 57.9544Z" fill="#9ACEAA"/>
<path d="M13.9434 75.1046L-0.5 10.4517H106.5L91.2341 75.1046C58.3548 95.6782 24.3582 83.6769 13.9434 75.1046Z" fill="url(#paint0_linear_332_1442)"/>
<path d="M59.8266 38.9213C60.1107 39.7877 59.9687 40.7395 59.4431 41.4781C58.9033 42.2167 58.0368 42.6571 57.1277 42.6571H46.8723C45.9632 42.6571 45.0967 42.2168 44.5569 41.4781C44.0314 40.7395 43.8893 39.7877 44.1734 38.9213L44.6421 37.5008C45.0398 36.336 46.1194 35.5548 47.341 35.5548H50.5796V14.1057C51.0341 14.2052 51.5171 14.2478 52.0001 14.2478C52.483 14.2478 52.966 14.2052 53.4205 14.1057V35.5548H56.6591C57.8807 35.5548 58.9603 36.3361 59.358 37.5008L59.8266 38.9213ZM50.5793 11.1513C51.0197 11.3217 51.5026 11.407 51.9998 11.407C52.497 11.407 52.9799 11.3217 53.4202 11.1513C54.4714 10.782 55.3237 10.0149 55.8066 9.03482C56.1049 8.46664 56.2612 7.81323 56.2612 7.14564C56.2612 6.81894 56.2185 6.50646 56.1475 6.20814C55.7214 4.30473 54.0168 2.88428 51.9998 2.88428C49.9827 2.88428 48.2782 4.30473 47.8521 6.20814C47.781 6.50644 47.7384 6.81896 47.7384 7.14564C47.7384 7.81328 47.8947 8.46664 48.193 9.03482C48.6759 10.0149 49.5282 10.782 50.5793 11.1513ZM43.3952 22.3695C43.4343 22.4991 43.4769 22.6287 43.4769 22.7707V25.6116C43.4769 28.7455 40.929 31.2935 37.7951 31.2935C34.6612 31.2935 32.1133 28.7455 32.1133 25.6116V22.7707C32.1133 22.6287 32.1559 22.4991 32.195 22.3695L32.1737 22.3624L36.2646 8.72417H36.261L32.9229 7.10308C32.2127 6.76217 31.9144 5.9099 32.2553 5.2139C32.5962 4.50367 33.4485 4.20536 34.1445 4.54627L37.6246 6.2224C38.8319 6.80477 40.1672 7.03204 41.4882 6.89004L44.9399 6.50652C44.9115 6.71958 44.8973 6.93265 44.8973 7.1457C44.8973 7.89852 45.0109 8.63715 45.2382 9.31897L41.8007 9.70249C41.4456 9.74511 41.0763 9.77352 40.707 9.77352C40.3377 9.77352 39.9825 9.75931 39.6274 9.7167H39.6239L43.4183 22.364L43.397 22.3711L43.3952 22.3695ZM40.146 21.3503L37.7933 13.5094L35.4407 21.3503H40.146ZM71.8842 22.7707V25.6116C71.8842 28.7455 69.3362 31.2935 66.2023 31.2935C63.0685 31.2935 60.5205 28.7455 60.5205 25.6116V22.7707C60.5205 22.6287 60.5631 22.4991 60.6022 22.3695L60.5809 22.3624L64.3788 9.70099C64.3788 9.70099 64.3735 9.70276 64.37 9.70276C63.6455 9.78799 62.9211 9.78799 62.1967 9.70276L58.7592 9.31924C58.9865 8.63742 59.1001 7.89879 59.1001 7.14597C59.1001 6.9329 59.0859 6.71983 59.0575 6.50679L62.5092 6.89031C63.8302 7.03235 65.1655 6.80508 66.3728 6.22267L69.8529 4.54654C70.5489 4.20563 71.4012 4.50392 71.7421 5.21417C72.083 5.91017 71.7847 6.76245 71.0745 7.10335L67.7364 8.72267H67.7328L71.8255 22.3627L71.8042 22.3698C71.8433 22.4994 71.8859 22.629 71.8859 22.7711L71.8842 22.7707ZM68.555 21.3503L66.2023 13.5094L63.8497 21.3503H68.555Z" fill="#6EDF8B"/>
</g>
<defs>
<linearGradient id="paint0_linear_332_1442" x1="52.5888" y1="10.4517" x2="52.5888" y2="86.4643" gradientUnits="userSpaceOnUse">
<stop stop-color="white" stop-opacity="0.2"/>
<stop offset="0.601141" stop-color="#9ACEAA" stop-opacity="0.2"/>
</linearGradient>
<clipPath id="clip0_332_1442">
<rect width="104" height="104" fill="white"/>
</clipPath>
</defs>
</svg>
