<svg width="287" height="43" viewBox="0 0 287 43" fill="none" xmlns="http://www.w3.org/2000/svg">
<path d="M37.3669 29.8869C34.7397 30.0336 32.1508 29.9565 29.5634 29.8642C26.4645 29.7536 23.3969 29.3591 20.3479 28.7854C18.3317 28.4059 16.3175 28.029 14.3491 27.4398C12.7113 26.9495 11.1176 26.3488 9.67039 25.4144C8.49725 24.657 7.50187 23.731 6.9994 22.372C6.96442 22.2774 6.88676 22.1831 6.98656 21.9881C7.47785 22.6895 7.99558 23.3217 8.7344 23.7365C8.77843 23.5846 8.6912 23.5206 8.63928 23.4521C6.42128 20.5234 6.78856 16.3035 9.01141 13.502C10.2532 11.9369 11.8604 10.8959 13.7081 10.2082C14.6547 9.85593 15.6235 9.59362 16.6361 9.52434C16.7276 9.51808 16.8214 9.49036 16.9139 9.59037C16.8243 9.74078 16.6613 9.77448 16.5277 9.8437C14.6924 10.795 12.9475 11.8846 11.5382 13.4266C9.26926 15.9092 8.53197 18.7854 9.50666 22.0484C9.80409 23.0441 10.3571 23.9113 11.0198 24.7045C11.0862 24.784 11.1765 24.8637 11.2715 24.8955C12.6093 25.3427 13.9885 25.5914 15.3943 25.7486C14.6025 25.2194 13.9126 24.5942 13.3586 23.8191C11.5739 21.3221 11.7102 18.0823 13.6532 15.7046C15.023 14.0285 16.8417 13.0937 18.809 12.3911C20.9909 11.6117 23.2489 11.1849 25.5461 10.9019C27.9252 10.6087 30.307 10.5703 32.6939 10.6307C33.9938 10.6636 35.2849 10.8342 36.5699 11.0355C36.7776 11.0681 36.9926 11.096 37.2078 11.2284C37.0664 11.3478 36.9081 11.3523 36.7607 11.367C33.5983 11.6845 30.4603 12.1727 27.3383 12.7635C24.689 13.2647 22.0554 13.8376 19.5214 14.793C18.3744 15.2255 17.2611 15.7304 16.2883 16.4951C13.9228 18.3546 13.4225 21.1974 14.9886 23.7915C15.2835 24.2799 15.6416 24.7119 16.0357 25.1224C16.6987 25.8129 17.5111 26.1307 18.445 26.1756C18.9198 26.1985 19.3901 26.3162 19.9766 26.2546C19.2227 25.9292 18.5588 25.6473 17.9819 25.1993C16.8712 24.3369 16.1687 23.2251 16.1108 21.8038C16.0579 20.5048 16.5894 19.3835 17.4194 18.4066C18.5981 17.0194 20.1191 16.152 21.8035 15.5699C24.4776 14.6458 27.2407 14.1379 30.0476 13.8293C33.0397 13.5003 36.0386 13.3932 39.0441 13.4672C41.9004 13.5376 44.7536 13.7191 47.559 14.2823C50.4515 14.8631 53.2475 15.755 55.7722 17.3555C56.3883 17.7461 56.9453 18.2099 57.4187 18.772C58.5993 20.1738 58.607 21.8232 57.436 23.2357C57.2916 23.4099 57.1465 23.5833 56.9848 23.7773C57.0554 23.8014 57.0959 23.8314 57.1212 23.8215C58.7012 23.2058 60.1849 22.4333 61.271 21.0695C62.0656 20.0718 62.0905 19.1637 61.3875 18.0866C60.5715 16.8365 59.4209 15.9483 58.178 15.1836C55.085 13.2806 51.7301 12.0788 48.1636 11.4611C47.1571 11.2868 46.1456 11.1888 45.1234 11.2202C45.0466 11.2225 44.9691 11.2028 44.8565 11.1889C44.9777 11.0219 45.1298 11.0272 45.267 11.008C47.5616 10.6879 49.8403 10.8252 52.1065 11.2629C54.4211 11.71 56.6622 12.3907 58.7776 13.4535C60.2993 14.218 61.7401 15.1035 62.8457 16.4403C64.7315 18.7203 64.6276 21.2452 62.5913 23.3992C61.1483 24.9255 59.3476 25.8662 57.437 26.6226C54.1461 27.9253 50.7094 28.6141 47.2181 29.0883C43.96 29.5309 40.6924 29.8217 37.3669 29.8869ZM42.6331 26.5929C44.2234 26.4779 45.8097 26.3223 47.3895 26.1037C49.9664 25.7472 52.5118 25.246 55.0294 24.5739C55.9492 24.3284 56.533 23.8124 56.9617 23.0227C57.0197 22.916 57.0835 22.8123 57.1384 22.704C57.7674 21.4644 57.5363 20.3293 56.4793 19.4348C56.1904 19.1902 55.8807 18.9772 55.5545 18.7887C53.5818 17.6493 51.4056 17.1028 49.2082 16.6668C46.2778 16.0854 43.2938 16.018 40.32 15.9425C37.6923 15.8757 35.0635 15.9195 32.4354 16.0591C29.7152 16.2036 27.0059 16.4133 24.3233 16.9063C22.4035 17.2592 20.5633 17.8189 19.0089 19.0693C18.1451 19.7642 17.4979 20.6267 17.4156 21.782C17.3249 23.0566 17.9596 24.0018 18.8931 24.7792C19.8782 25.5996 21.0384 26.0429 22.2597 26.3493C24.4116 26.8892 26.6177 26.917 28.8107 26.9746C32.2972 27.0661 35.7858 27.0339 39.2698 26.8276C40.3667 26.7627 41.4622 26.6754 42.6331 26.5929Z" fill="#105F47"/>
<path d="M26.0854 33.8531C23.1581 33.6293 20.2916 33.2433 17.4698 32.5664C14.5144 31.8575 11.6194 30.9696 8.94672 29.4699C7.25538 28.5209 5.71378 27.3809 4.57662 25.7699C2.78793 23.2358 2.74316 20.5741 4.07375 17.8391C4.73708 16.4757 5.67464 15.3148 6.78047 14.2894C6.8489 14.226 6.92627 14.1717 7.00322 14.1187C7.0199 14.1072 7.05269 14.1194 7.10259 14.122C7.10368 14.3016 6.96535 14.4027 6.88187 14.5278C5.86325 16.0548 5.03487 17.6624 4.74839 19.5095C4.39179 21.8089 5.1523 23.6799 6.87113 25.1865C8.40621 26.532 10.2202 27.3716 12.1101 28.0513C15.3548 29.2184 18.7159 29.9004 22.1166 30.3974C24.4652 30.7407 26.8267 30.9451 29.1968 31.0794C31.6096 31.2161 34.0238 31.2669 36.436 31.1964C39.3694 31.1106 42.2997 30.9427 45.2261 30.6856C47.8172 30.458 50.3955 30.133 52.9772 29.8303C53.1863 29.8058 53.3887 29.7016 53.6464 29.7789C53.5246 29.9636 53.3337 29.9863 53.1742 30.0459C50.5172 31.0376 47.7939 31.7973 45.0247 32.3935C42.1525 33.0118 39.2568 33.467 36.3273 33.7147C33.9199 33.9182 31.5114 34.0438 29.096 33.991C28.1045 33.9693 27.114 33.9014 26.0854 33.8531Z" fill="#105F47"/>
<path d="M58.259 31.7868C54.6423 33.7875 50.8557 35.2892 46.9154 36.3948C44.2266 37.1493 41.4913 37.6729 38.7178 38.0161C36.0481 38.3465 33.3721 38.4457 30.6883 38.4021C25.6299 38.32 20.68 37.5763 15.8794 35.9172C12.4902 34.746 9.32276 33.1654 6.52766 30.8786C5.90173 30.3665 5.31618 29.8105 4.76965 29.2133C4.70144 29.1388 4.59584 29.0789 4.62098 28.9467C4.7115 28.8823 4.77507 28.9515 4.83452 28.9964C7.06784 30.6836 9.56962 31.8507 12.1695 32.8201C15.5663 34.0866 19.0793 34.8699 22.6647 35.3507C26.3949 35.8509 30.1432 36.021 33.8995 35.9044C37.0483 35.8066 40.1795 35.4834 43.288 34.9378C49.549 33.8387 55.5449 31.9197 61.2523 29.0988C62.36 28.5513 63.4441 27.9556 64.4974 27.3056C64.5847 27.2517 64.6681 27.1713 64.7883 27.2062C64.5816 27.7546 61.6582 29.8058 58.259 31.7868Z" fill="#105F47"/>
<path d="M19.5631 9.89302C22.0283 8.79111 24.5589 8.00411 27.1801 7.51597C28.9073 7.1943 30.6517 7.0041 32.4016 6.86597C35.627 6.61136 38.8591 6.60711 42.0915 6.61933C45.5731 6.6325 49.0156 6.99189 52.4228 7.72907C55.5462 8.40484 58.5677 9.35824 61.3776 10.9153C63.2271 11.9402 64.8992 13.1827 66.1628 14.9285C68.1948 17.736 68.0055 21.3126 65.7124 23.918C63.8617 26.0208 61.5187 27.3393 58.9719 28.3478C58.2367 28.6389 57.4767 28.8667 56.7259 29.1167C56.6079 29.156 56.4845 29.233 56.2743 29.1192C56.7915 28.882 57.2638 28.6767 57.7265 28.4514C60.009 27.3401 62.1781 26.0582 63.9499 24.19C64.8217 23.2708 65.5383 22.2502 65.9016 21.0135C66.5103 18.9411 65.9474 17.1485 64.5812 15.5667C63.3433 14.1333 61.784 13.1343 60.105 12.3179C56.9879 10.8023 53.6821 9.91204 50.2792 9.35205C47.417 8.88102 44.5357 8.65742 41.6365 8.59767C38.6314 8.53575 35.6265 8.5124 32.6214 8.54243C27.8213 8.59039 23.1099 9.23186 18.5271 10.7192C18.178 10.8326 17.8265 10.9603 17.4395 10.9481C18.0998 10.5188 18.8299 10.2367 19.5631 9.89302Z" fill="#105F47"/>
<path d="M84.4881 34V9.16981H93.7817C95.8863 9.16981 97.6954 9.5127 99.2089 10.1985C100.722 10.8606 101.881 11.8302 102.685 13.1072C103.513 14.3605 103.927 15.8858 103.927 17.683C103.927 19.433 103.513 20.9464 102.685 22.2234C101.881 23.4767 100.722 24.4463 99.2089 25.1321C97.6954 25.7942 95.8863 26.1253 93.7817 26.1253H85.9424L87.113 24.9192V34H84.4881ZM101.444 34L95.0587 24.9902H97.8964L104.317 34H101.444ZM87.113 25.1321L85.9424 23.8906H93.7108C96.1938 23.8906 98.0738 23.3467 99.3508 22.2589C100.651 21.1711 101.302 19.6458 101.302 17.683C101.302 15.6966 100.651 14.1595 99.3508 13.0717C98.0738 11.9839 96.1938 11.44 93.7108 11.44H85.9424L87.113 10.1985V25.1321ZM120.125 34.2128C116.956 34.2128 114.461 33.3024 112.64 31.4815C110.82 29.6606 109.909 26.9648 109.909 23.394V9.16981H112.534V23.2875C112.534 26.2199 113.196 28.3836 114.52 29.7789C115.845 31.1741 117.713 31.8717 120.125 31.8717C122.561 31.8717 124.441 31.1741 125.765 29.7789C127.089 28.3836 127.751 26.2199 127.751 23.2875V9.16981H130.305V23.394C130.305 26.9648 129.395 29.6606 127.574 31.4815C125.777 33.3024 123.294 34.2128 120.125 34.2128ZM149.105 34.2128C147.213 34.2128 145.463 33.9054 143.855 33.2906C142.271 32.6521 140.887 31.7653 139.705 30.6302C138.546 29.4951 137.636 28.159 136.974 26.6219C136.335 25.0848 136.016 23.4058 136.016 21.5849C136.016 19.764 136.335 18.085 136.974 16.5479C137.636 15.0108 138.558 13.6747 139.741 12.5396C140.923 11.4045 142.306 10.5296 143.891 9.91472C145.499 9.27623 147.249 8.95698 149.141 8.95698C151.032 8.95698 152.759 9.25258 154.319 9.84377C155.904 10.435 157.252 11.3336 158.363 12.5396L156.731 14.2068C155.691 13.1663 154.544 12.4214 153.291 11.9721C152.037 11.5228 150.689 11.2981 149.247 11.2981C147.71 11.2981 146.291 11.5582 144.99 12.0785C143.713 12.5751 142.59 13.2964 141.621 14.2423C140.675 15.1645 139.93 16.2523 139.386 17.5057C138.866 18.7353 138.605 20.0951 138.605 21.5849C138.605 23.0511 138.866 24.4108 139.386 25.6642C139.93 26.9175 140.675 28.0171 141.621 28.963C142.59 29.8853 143.713 30.6065 144.99 31.1268C146.291 31.6234 147.698 31.8717 149.211 31.8717C150.63 31.8717 151.966 31.6589 153.22 31.2332C154.497 30.8075 155.667 30.0863 156.731 29.0694L158.221 31.0558C157.039 32.0964 155.656 32.8886 154.071 33.4325C152.487 33.9527 150.831 34.2128 149.105 34.2128ZM155.703 30.7366V21.5849H158.221V31.0558L155.703 30.7366ZM165.65 34V9.16981H174.944C177.049 9.16981 178.858 9.5127 180.371 10.1985C181.885 10.8606 183.043 11.8302 183.847 13.1072C184.675 14.3605 185.089 15.8858 185.089 17.683C185.089 19.433 184.675 20.9464 183.847 22.2234C183.043 23.4767 181.885 24.4463 180.371 25.1321C178.858 25.7942 177.049 26.1253 174.944 26.1253H167.105L168.275 24.9192V34H165.65ZM182.606 34L176.221 24.9902H179.059L185.479 34H182.606ZM168.275 25.1321L167.105 23.8906H174.873C177.356 23.8906 179.236 23.3467 180.513 22.2589C181.814 21.1711 182.464 19.6458 182.464 17.683C182.464 15.6966 181.814 14.1595 180.513 13.0717C179.236 11.9839 177.356 11.44 174.873 11.44H167.105L168.275 10.1985V25.1321ZM200.568 34V9.16981H202.732L219.864 30.7366H218.729V9.16981H221.319V34H219.155L202.058 12.4332H203.193V34H200.568ZM254.837 34.2128C252.992 34.2128 251.218 33.9172 249.516 33.326C247.837 32.7112 246.536 31.9308 245.614 30.9849L246.643 28.963C247.518 29.8143 248.688 30.5356 250.154 31.1268C251.644 31.6943 253.205 31.9781 254.837 31.9781C256.397 31.9781 257.662 31.7889 258.632 31.4106C259.625 31.0086 260.346 30.4765 260.796 29.8143C261.269 29.1522 261.505 28.4191 261.505 27.6151C261.505 26.6455 261.221 25.8652 260.654 25.274C260.11 24.6828 259.389 24.2216 258.49 23.8906C257.591 23.5358 256.598 23.2284 255.51 22.9683C254.423 22.7082 253.335 22.4362 252.247 22.1525C251.159 21.845 250.154 21.443 249.232 20.9464C248.333 20.4498 247.6 19.7995 247.033 18.9955C246.489 18.1678 246.217 17.0918 246.217 15.7675C246.217 14.5379 246.536 13.4146 247.175 12.3977C247.837 11.3572 248.842 10.5296 250.19 9.91472C251.538 9.27623 253.264 8.95698 255.369 8.95698C256.764 8.95698 258.147 9.15799 259.519 9.56C260.89 9.93836 262.073 10.4704 263.066 11.1562L262.179 13.2491C261.115 12.5396 259.98 12.0194 258.774 11.6883C257.591 11.3572 256.445 11.1917 255.333 11.1917C253.843 11.1917 252.614 11.3927 251.644 11.7947C250.675 12.1967 249.953 12.7406 249.48 13.4264C249.031 14.0886 248.806 14.8453 248.806 15.6966C248.806 16.6662 249.078 17.4465 249.622 18.0377C250.19 18.6289 250.923 19.0901 251.821 19.4211C252.744 19.7522 253.749 20.0478 254.837 20.3079C255.924 20.568 257 20.8518 258.064 21.1592C259.152 21.4667 260.145 21.8687 261.044 22.3653C261.966 22.8382 262.699 23.4767 263.243 24.2808C263.811 25.0848 264.095 26.1371 264.095 27.4377C264.095 28.6438 263.764 29.767 263.101 30.8075C262.439 31.8244 261.422 32.6521 260.051 33.2906C258.703 33.9054 256.965 34.2128 254.837 34.2128ZM274.292 34V11.44H265.566V9.16981H285.643V11.44H276.917V34H274.292Z" fill="#105F47"/>
<path d="M157.133 22.5C155.466 19.3333 151.333 14.2 148.133 19C144.133 25 144.633 27 148.133 26.5C150.933 26.1 151.633 23.6667 151.633 22.5" stroke="#105F47" stroke-width="2"/>
<mask id="mask0_651_5622" style="mask-type:alpha" maskUnits="userSpaceOnUse" x="223" y="3" width="36" height="33">
<path d="M257.925 7.75905C257.246 4.82369 254.58 1.18427 249.347 10.1094C242.805 21.2659 245.254 39.5822 232.998 33.6883C220.742 27.7945 222.268 14.8684 229.896 10.6178C237.524 6.36725 243.24 7.8551 242.505 17.3885C241.77 26.922 231.2 37.0602 228.738 27.3062C226.276 17.5522 230.887 9.6232 234.735 10.7544C238.583 11.8856 244.054 16.0941 238.143 22.7624C232.233 29.4306 228.454 25.8779 230.199 20.7279C231.945 15.578 236.981 9.53192 236.321 14.9598C235.662 20.3876 235.029 23.4009 233.985 22.1602C232.941 20.9196 233.272 19.6599 233.885 18.8109C234.497 17.9618 235.047 18.806 234.502 20.0179" stroke="white" stroke-width="1.2"/>
</mask>
<g mask="url(#mask0_651_5622)">
<rect x="243.744" y="-1.50021" width="46.75" height="24.3625" transform="rotate(90 243.744 -1.50021)" fill="#105F47"/>
</g>
</svg>
