<svg width="708" height="112" viewBox="0 0 708 112" fill="none" xmlns="http://www.w3.org/2000/svg">
<path d="M87.5477 75.9947C81.2865 76.3443 75.1164 76.1607 68.9502 75.9406C61.5646 75.677 54.254 74.737 46.9875 73.3695C42.1824 72.4653 37.382 71.5669 32.6909 70.1627C28.7877 68.9943 24.9896 67.5626 21.5405 65.3357C18.7446 63.5305 16.3724 61.3238 15.1749 58.085C15.0915 57.8595 14.9064 57.6347 15.1443 57.17C16.3151 58.8415 17.549 60.3484 19.3098 61.3368C19.4147 60.975 19.2068 60.8224 19.0831 60.6591C13.7971 53.6793 14.6724 43.6223 19.97 36.9456C22.9294 33.2158 26.7597 30.7348 31.1633 29.0959C33.4193 28.2563 35.7282 27.6311 38.1414 27.466C38.3594 27.4511 38.5829 27.385 38.8034 27.6234C38.5899 27.9818 38.2013 28.0622 37.8831 28.2271C33.509 30.4942 29.3506 33.091 25.9918 36.766C20.5845 42.6825 18.8273 49.5374 21.1502 57.3137C21.8591 59.6867 23.1771 61.7534 24.7564 63.644C24.9147 63.8334 25.1299 64.0233 25.3562 64.0989C28.5446 65.1649 31.8315 65.7574 35.1819 66.1322C33.2948 64.871 31.6506 63.381 30.3303 61.5337C26.0769 55.5827 26.4018 47.8616 31.0325 42.195C34.297 38.2004 38.6313 35.9726 43.3198 34.2981C48.52 32.4408 53.9013 31.4236 59.3759 30.749C65.046 30.0504 70.7222 29.9587 76.4109 30.1027C79.5088 30.1812 82.5857 30.5877 85.6482 31.0675C86.1432 31.1451 86.6557 31.2117 87.1686 31.5272C86.8316 31.8117 86.4542 31.8223 86.103 31.8576C78.5662 32.6142 71.0876 33.7778 63.6472 35.1856C57.3332 36.3802 51.0569 37.7456 45.0177 40.0225C42.2842 41.0531 39.6309 42.2564 37.3125 44.0789C31.675 48.5105 30.4825 55.2857 34.2151 61.468C34.9178 62.6319 35.7712 63.6615 36.7105 64.6397C38.2906 66.2855 40.2267 67.0428 42.4523 67.1499C43.584 67.2043 44.7048 67.4849 46.1025 67.3382C44.3058 66.5627 42.7237 65.8907 41.3486 64.823C38.7017 62.7679 37.0275 60.118 36.8895 56.7309C36.7633 53.635 38.0301 50.9628 40.0082 48.6345C42.8173 45.3285 46.4421 43.2612 50.4565 41.8739C56.8295 39.6716 63.4146 38.4612 70.1041 37.7257C77.2349 36.9417 84.382 36.6864 91.5449 36.8628C98.352 37.0304 105.152 37.4631 111.838 38.8054C118.731 40.1895 125.395 42.3152 131.412 46.1295C132.88 47.0603 134.208 48.1656 135.336 49.5053C138.149 52.8461 138.168 56.7772 135.377 60.1434C135.033 60.5584 134.687 60.9718 134.302 61.4342C134.47 61.4916 134.566 61.563 134.627 61.5396C138.392 60.072 141.928 58.231 144.517 54.9808C146.41 52.603 146.47 50.4389 144.794 47.872C142.85 44.8925 140.107 42.7758 137.145 40.9534C129.774 36.4181 121.778 33.5538 113.279 32.0817C110.88 31.6663 108.469 31.4329 106.033 31.5076C105.85 31.5132 105.665 31.4661 105.397 31.4331C105.686 31.035 106.049 31.0476 106.375 31.002C111.844 30.2391 117.275 30.5663 122.676 31.6095C128.192 32.675 133.533 34.2972 138.574 36.83C142.201 38.6521 145.635 40.7623 148.27 43.9484C152.764 49.3822 152.516 55.3995 147.663 60.533C144.224 64.1706 139.933 66.4124 135.379 68.2151C127.537 71.3199 119.346 72.9614 111.025 74.0916C103.261 75.1463 95.4732 75.8394 87.5477 75.9947ZM100.098 68.1444C103.888 67.8703 107.669 67.4995 111.434 66.9786C117.575 66.129 123.641 64.9343 129.642 63.3327C131.834 62.7475 133.225 61.5178 134.247 59.6358C134.385 59.3814 134.537 59.1343 134.668 58.8763C136.167 55.922 135.616 53.2167 133.097 51.0849C132.408 50.5021 131.67 49.9943 130.893 49.5452C126.192 46.8296 121.005 45.5271 115.768 44.4881C108.784 43.1025 101.673 42.9419 94.5856 42.7619C88.3233 42.6027 82.0583 42.7071 75.7948 43.0398C69.312 43.3841 62.855 43.884 56.4616 45.059C51.8863 45.8999 47.5008 47.2338 43.7962 50.2139C41.7376 51.8699 40.1951 53.9255 39.9992 56.6788C39.783 59.7164 41.2957 61.9691 43.5204 63.8219C45.8681 65.7772 48.633 66.8336 51.5437 67.5638C56.6722 68.8504 61.9299 68.9167 67.1563 69.054C75.4653 69.2722 83.7795 69.1955 92.0827 68.7038C94.6968 68.549 97.3078 68.3411 100.098 68.1444Z" fill="white"/>
<path d="M60.6612 85.4465C53.6847 84.9132 46.8531 83.9932 40.1283 82.3801C33.0848 80.6906 26.1853 78.5745 19.8157 75.0004C15.7848 72.7386 12.1108 70.0218 9.40071 66.1823C5.13785 60.1429 5.03115 53.7997 8.20227 47.2815C9.78312 44.0321 12.0176 41.2655 14.653 38.8217C14.8161 38.6705 15.0005 38.5412 15.1839 38.4149C15.2236 38.3875 15.3018 38.4166 15.4207 38.4228C15.4233 38.8508 15.0936 39.0916 14.8947 39.3899C12.4671 43.029 10.4928 46.8603 9.81009 51.2625C8.96021 56.7423 10.7727 61.2015 14.8691 64.7919C18.5275 67.9985 22.8507 69.9996 27.3547 71.6196C35.0877 74.401 43.0979 76.0262 51.2026 77.2109C56.7998 78.029 62.4278 78.5161 68.0764 78.8362C73.8265 79.162 79.5802 79.283 85.3291 79.115C92.3201 78.9106 99.3035 78.5104 106.278 77.8977C112.453 77.3553 118.598 76.5807 124.751 75.8594C125.249 75.8009 125.731 75.5525 126.345 75.7368C126.055 76.1769 125.6 76.2311 125.22 76.373C118.888 78.7365 112.397 80.5472 105.798 81.9678C98.9527 83.4415 92.0517 84.5264 85.0701 85.1166C79.3325 85.6017 73.5925 85.901 67.8362 85.7751C65.4732 85.7234 63.1125 85.5617 60.6612 85.4465Z" fill="white"/>
<path d="M137.337 80.5238C128.718 85.292 119.693 88.8708 110.303 91.5058C103.895 93.3038 97.3757 94.5517 90.7658 95.3697C84.4033 96.1571 78.0257 96.3936 71.6297 96.2897C59.5743 96.0939 47.7776 94.3214 36.3366 90.3675C28.2594 87.5762 20.7106 83.8093 14.0492 78.3594C12.5575 77.139 11.162 75.8139 9.85944 74.3905C9.69688 74.2129 9.44521 74.0701 9.50513 73.7551C9.72087 73.6016 9.87236 73.7665 10.014 73.8736C15.3366 77.8946 21.2989 80.6762 27.495 82.9864C35.5905 86.0047 43.9628 87.8716 52.5075 89.0175C61.3976 90.2096 70.3306 90.6149 79.2827 90.3369C86.7869 90.104 94.2493 89.3337 101.658 88.0333C116.579 85.414 130.869 80.8405 144.471 74.1176C147.111 72.8129 149.694 71.3931 152.205 69.844C152.413 69.7156 152.611 69.524 152.898 69.6072C152.405 70.914 145.438 75.8026 137.337 80.5238Z" fill="white"/>
<path d="M45.1159 28.3448C50.9911 25.7187 57.0221 23.8431 63.2688 22.6798C67.3852 21.9132 71.5426 21.4599 75.7129 21.1307C83.3999 20.5239 91.1027 20.5138 98.8062 20.5429C107.104 20.5743 115.308 21.4308 123.428 23.1876C130.872 24.7982 138.073 27.0703 144.769 30.7812C149.177 33.2237 153.162 36.1848 156.174 40.3455C161.017 47.0365 160.565 55.5603 155.1 61.7696C150.69 66.7811 145.106 69.9235 139.036 72.3269C137.284 73.0207 135.473 73.5635 133.683 74.1594C133.402 74.253 133.108 74.4364 132.607 74.1652C133.84 73.6001 134.965 73.1108 136.068 72.5739C141.508 69.9254 146.677 66.8701 150.9 62.418C152.978 60.2273 154.686 57.795 155.551 54.8476C157.002 49.9086 155.66 45.6365 152.405 41.8665C149.454 38.4503 145.738 36.0695 141.737 34.1239C134.308 30.5118 126.429 28.3902 118.32 27.0556C111.498 25.933 104.631 25.4001 97.7218 25.2577C90.5599 25.1102 83.3988 25.0545 76.2368 25.1261C64.7971 25.2404 53.5687 26.7691 42.6469 30.3139C41.8147 30.584 40.9772 30.8884 40.0547 30.8594C41.6285 29.8362 43.3683 29.164 45.1159 28.3448Z" fill="white"/>
<path d="M213.457 53.7538H216.585C219.853 53.7538 222.361 53.0775 224.108 51.7249C225.856 50.3723 226.729 48.428 226.729 45.8918C226.729 43.3557 225.856 41.4114 224.108 40.0588C222.361 38.7062 219.853 38.0299 216.585 38.0299H213.457V53.7538ZM249.892 89.0059H229.265L213.457 64.49V89.0059H196.887V25.2647H222.671C226.222 25.2647 229.322 25.8001 231.97 26.8709C234.619 27.8854 236.789 29.2943 238.48 31.0978C240.227 32.9013 241.523 34.9865 242.368 37.3536C243.27 39.7206 243.721 42.2567 243.721 44.9619C243.721 49.8087 242.538 53.7538 240.17 56.7971C237.86 59.7841 234.422 61.813 229.857 62.8838L249.892 89.0059ZM272.814 25.2647V59.925C272.814 61.7848 272.871 63.701 272.984 65.6736C273.153 67.5897 273.575 69.3368 274.252 70.9149C274.984 72.4929 276.111 73.7891 277.633 74.8036C279.155 75.7617 281.296 76.2407 284.058 76.2407C286.819 76.2407 288.933 75.7617 290.398 74.8036C291.92 73.7891 293.047 72.4929 293.78 70.9149C294.512 69.3368 294.935 67.5897 295.048 65.6736C295.217 63.701 295.301 61.7848 295.301 59.925V25.2647H311.786V62.2075C311.786 72.1266 309.504 79.3686 304.939 83.9336C300.43 88.4986 293.47 90.7811 284.058 90.7811C274.646 90.7811 267.658 88.4986 263.093 83.9336C258.528 79.3686 256.245 72.1266 256.245 62.2075V25.2647H272.814ZM356.205 53.3311H389.09C389.09 56.7126 388.949 59.7841 388.667 62.5457C388.385 65.3072 387.822 67.8715 386.976 70.2386C385.793 73.5637 384.186 76.5225 382.158 79.115C380.129 81.6511 377.733 83.7927 374.972 85.5398C372.267 87.2306 369.28 88.5268 366.011 89.4285C362.742 90.3303 359.304 90.7811 355.697 90.7811C350.738 90.7811 346.201 89.9639 342.087 88.3296C338.029 86.6952 334.535 84.4127 331.604 81.482C328.674 78.4951 326.391 74.9445 324.757 70.8303C323.122 66.6598 322.305 62.0666 322.305 57.0508C322.305 52.0912 323.094 47.5544 324.672 43.4403C326.307 39.2697 328.589 35.7192 331.52 32.7886C334.507 29.8579 338.085 27.5754 342.256 25.941C346.426 24.3066 351.076 23.4894 356.205 23.4894C362.855 23.4894 368.688 24.9266 373.704 27.8009C378.72 30.6751 382.693 35.1274 385.624 41.1577L369.9 47.6671C368.434 44.1729 366.518 41.665 364.151 40.1433C361.84 38.6216 359.192 37.8608 356.205 37.8608C353.725 37.8608 351.47 38.3398 349.442 39.2979C347.413 40.1997 345.666 41.5241 344.2 43.2712C342.791 44.9619 341.664 47.019 340.819 49.4424C340.03 51.8658 339.635 54.571 339.635 57.558C339.635 60.2632 339.973 62.7711 340.65 65.0818C341.382 67.3925 342.453 69.3932 343.862 71.084C345.271 72.7747 347.018 74.0991 349.103 75.0572C351.189 75.9589 353.612 76.4098 356.374 76.4098C358.008 76.4098 359.586 76.2407 361.108 75.9026C362.629 75.5081 363.982 74.9163 365.166 74.1273C366.405 73.2819 367.42 72.2111 368.209 70.9149C368.998 69.6186 369.533 68.0406 369.815 66.1808H356.205V53.3311ZM416.132 53.7538H419.259C422.528 53.7538 425.036 53.0775 426.783 51.7249C428.53 50.3723 429.404 48.428 429.404 45.8918C429.404 43.3557 428.53 41.4114 426.783 40.0588C425.036 38.7062 422.528 38.0299 419.259 38.0299H416.132V53.7538ZM452.567 89.0059H431.94L416.132 64.49V89.0059H399.562V25.2647H425.346C428.897 25.2647 431.996 25.8001 434.645 26.8709C437.294 27.8854 439.464 29.2943 441.155 31.0978C442.902 32.9013 444.198 34.9865 445.043 37.3536C445.945 39.7206 446.396 42.2567 446.396 44.9619C446.396 49.8087 445.212 53.7538 442.845 56.7971C440.535 59.7841 437.097 61.813 432.532 62.8838L452.567 89.0059ZM488.227 89.0059V25.2647H504.797L535.399 64.2364V25.2647H551.884V89.0059H535.399L504.797 50.0342V89.0059H488.227ZM601.519 39.2979H581.821V49.9496H600.42V63.9828H581.821V74.9727H601.519V89.0059H565.252V25.2647H601.519V39.2979ZM648.463 41.5804C646.66 40.1151 644.856 39.0443 643.053 38.368C641.249 37.6354 639.502 37.269 637.812 37.269C635.67 37.269 633.923 37.7763 632.57 38.7907C631.218 39.8051 630.541 41.1296 630.541 42.764C630.541 43.8911 630.879 44.821 631.556 45.5537C632.232 46.2863 633.106 46.9345 634.176 47.498C635.304 48.0053 636.543 48.4561 637.896 48.8506C639.305 49.2451 640.686 49.6678 642.038 50.1187C647.449 51.9222 651.394 54.3456 653.874 57.3889C656.41 60.3759 657.678 64.2928 657.678 69.1396C657.678 72.4084 657.114 75.3672 655.987 78.016C654.916 80.6648 653.31 82.9474 651.168 84.8635C649.083 86.7234 646.491 88.1605 643.391 89.1749C640.348 90.2457 636.882 90.7811 632.993 90.7811C624.934 90.7811 617.466 88.3859 610.59 83.5955L617.692 70.2386C620.171 72.4365 622.623 74.0709 625.046 75.1417C627.47 76.2125 629.865 76.7479 632.232 76.7479C634.937 76.7479 636.938 76.128 638.234 74.8881C639.587 73.6482 640.263 72.2393 640.263 70.6613C640.263 69.7032 640.094 68.886 639.756 68.2097C639.418 67.477 638.854 66.8289 638.065 66.2653C637.276 65.6454 636.233 65.0818 634.937 64.5746C633.697 64.0674 632.176 63.5038 630.372 62.8838C628.231 62.2075 626.117 61.4749 624.032 60.6859C622.003 59.8405 620.171 58.7415 618.537 57.3889C616.959 56.0363 615.663 54.3456 614.648 52.3167C613.69 50.2314 613.211 47.6108 613.211 44.4547C613.211 41.2986 613.718 38.4526 614.733 35.9164C615.804 33.324 617.269 31.126 619.129 29.3225C621.045 27.4627 623.356 26.0256 626.061 25.0111C628.822 23.9967 631.894 23.4894 635.275 23.4894C638.431 23.4894 641.728 23.9403 645.166 24.842C648.604 25.6874 651.901 26.9555 655.057 28.6462L648.463 41.5804ZM692.707 39.2979V89.0059H676.138V39.2979H662.527V25.2647H706.318V39.2979H692.707Z" fill="white"/>
</svg>
