<svg width="881" height="664" viewBox="0 0 881 664" fill="none" xmlns="http://www.w3.org/2000/svg">
<path d="M-332 571.764C-311.167 645.097 -221 743.264 -27 549.264C215.5 306.764 148.5 -143.736 574.5 46.7641C1000.5 237.264 933 542.264 659.5 614.264C386 686.264 186 627.764 222 401.264C258 174.764 641.5 -27.2359 718 217.264C794.5 461.764 623.5 634.264 489 591.764C354.5 549.264 166 426.264 381.5 289.264C597 152.264 726.5 252.764 659.5 369.764C592.5 486.764 408.5 612.264 437.5 484.264C466.5 356.264 492 286.264 527.5 320.264C563 354.264 550 383.264 527.5 401.264C505 419.264 486.5 396.764 507 369.764" stroke="#F2F2F2" stroke-opacity="0.67" stroke-width="2"/>
</svg>
