<svg width="144" height="138" viewBox="0 0 144 138" fill="none" xmlns="http://www.w3.org/2000/svg">
<g id="lineicons:double-quotes-end-1">
<path id="Vector" d="M38.1032 110.512C37.3372 110.877 36.4915 111.042 35.6448 110.991C34.7982 110.94 33.9781 110.675 33.2609 110.221C32.5438 109.767 31.9529 109.139 31.5433 108.394C31.1337 107.649 30.9187 106.813 30.9183 105.962V88.7787C23.2468 87.4966 16.3357 83.3716 11.5543 77.2214C6.77299 71.0711 4.47037 63.3442 5.10277 55.572C5.73518 47.7998 9.25645 40.5494 14.9688 35.2575C20.6812 29.9656 28.1678 27.0184 35.945 27C44.1687 27.0018 52.0549 30.2786 57.8693 36.1097C63.6836 41.9408 66.95 49.8488 66.95 58.0943C66.95 77.2133 59.9193 90.3244 52.7411 98.644C49.8404 102.028 46.5309 105.038 42.8887 107.602C41.5013 108.589 40.053 109.487 38.5523 110.29L38.2506 110.445L38.1568 110.485L38.1166 110.505L38.1032 110.512ZM14.9869 58.0943C14.9869 69.6934 24.3701 79.1017 35.945 79.1017C37.2782 79.1017 38.5568 79.6327 39.4995 80.5779C40.4422 81.5231 40.9718 82.8051 40.9718 84.1418V96.2852C42.2989 95.1024 43.7197 93.6912 45.1272 92.0515C50.9381 85.3246 56.8965 74.4983 56.8965 58.0943C56.7983 52.587 54.5474 47.3386 50.6283 43.4787C46.7092 39.6188 41.4352 37.4561 35.9417 37.4561C30.4482 37.4561 25.1742 39.6188 21.2551 43.4787C17.336 47.3386 15.0851 52.587 14.9869 58.0943ZM110.153 110.512C109.387 110.877 108.541 111.042 107.695 110.991C106.848 110.94 106.028 110.675 105.311 110.221C104.594 109.767 104.003 109.139 103.593 108.394C103.184 107.649 102.969 106.813 102.968 105.962V88.7787C95.2969 87.4966 88.3857 83.3716 83.6043 77.2214C78.823 71.0711 76.5204 63.3442 77.1528 55.572C77.7852 47.7998 81.3064 40.5494 87.0188 35.2575C92.7312 29.9656 100.218 27.0184 107.995 27C116.219 27.0018 124.105 30.2786 129.919 36.1097C135.734 41.9408 139 49.8488 139 58.0943C139 77.2133 131.969 90.3244 124.791 98.644C121.89 102.028 118.581 105.038 114.939 107.602C113.458 108.651 111.909 109.599 110.301 110.438L110.207 110.492L110.167 110.505L110.153 110.512ZM87.0369 58.0943C87.0369 69.6934 96.4201 79.1017 107.995 79.1017C109.328 79.1017 110.607 79.6327 111.549 80.5779C112.492 81.5231 113.022 82.8051 113.022 84.1418V96.2852C114.349 95.1024 115.77 93.6912 117.177 92.0515C122.988 85.3246 128.947 74.4983 128.947 58.0943C128.848 52.587 126.597 47.3386 122.678 43.4787C118.759 39.6188 113.485 37.4561 107.992 37.4561C102.498 37.4561 97.2242 39.6188 93.3051 43.4787C89.386 47.3386 87.1351 52.587 87.0369 58.0943Z" fill="#198425" fill-opacity="0.27"/>
</g>
</svg>
