<svg width="1003" height="455" viewBox="0 0 1003 455" fill="none" xmlns="http://www.w3.org/2000/svg">
<path d="M1001.83 391.331C984.724 440.778 910.405 507.067 749.991 376.64C549.474 213.605 604.223 -90.0683 252.75 38.9575C-98.7229 167.983 -42.6097 373.404 183.287 421.499C409.184 469.594 574.233 429.865 544.226 277.294C514.219 124.722 197.34 -10.8041 134.489 154.071C71.6368 318.945 213.034 434.921 324.026 406.074C435.018 377.228 590.492 294.054 412.399 202.069C234.306 110.084 127.516 178.005 182.979 256.743C238.443 335.48 390.514 419.764 366.41 333.556C342.306 247.348 321.165 200.218 291.898 223.183C262.632 246.149 273.401 265.671 292 277.765C310.599 289.86 325.845 274.67 308.886 256.507" stroke="url(#paint0_radial_429_3562)" stroke-width="2"/>
<circle cx="593.965" cy="150.566" r="10" fill="#C8C8C8"/>
<circle cx="53.9651" cy="149.566" r="10" fill="#C8C8C8"/>
<circle cx="43.9651" cy="353.566" r="10" fill="#C8C8C8"/>
<circle cx="297.965" cy="437.566" r="10" fill="#C8C8C8"/>
<circle cx="543.965" cy="323.566" r="10" fill="#C8C8C8"/>
<circle cx="343.965" cy="10.5664" r="10" fill="#C8C8C8"/>
<defs>
<radialGradient id="paint0_radial_429_3562" cx="0" cy="0" r="1" gradientUnits="userSpaceOnUse" gradientTransform="translate(307.5 257.066) rotate(7.31577) scale(278.265 92.34)">
<stop offset="0.613236" stop-color="#00E43D"/>
<stop offset="0.75342" stop-color="#878787" stop-opacity="0.3"/>
</radialGradient>
</defs>
</svg>
