<svg width="1003" height="455" viewBox="0 0 1003 455" fill="none" xmlns="http://www.w3.org/2000/svg">
<path d="M1001.83 391.565C984.724 441.013 910.405 507.302 749.991 376.874C549.474 213.839 604.223 -89.8339 252.75 39.1919C-98.7229 168.218 -42.6097 373.638 183.287 421.733C409.184 469.829 574.233 430.1 544.226 277.528C514.219 124.956 197.34 -10.5697 134.489 154.305C71.6368 319.179 213.034 435.155 324.026 406.309C435.018 377.463 590.492 294.288 412.399 202.303C234.306 110.318 127.516 178.24 182.979 256.977C238.443 335.714 390.514 419.998 366.41 333.79C342.306 247.582 321.165 200.452 291.898 223.418C262.632 246.383 273.401 265.905 292 278C310.599 290.094 325.845 274.904 308.886 256.742" stroke="url(#paint0_radial_429_3618)" stroke-width="2"/>
<circle cx="593.965" cy="150.801" r="10" fill="#C8C8C8"/>
<circle cx="53.9651" cy="149.801" r="11" fill="#00E43D"/>
<circle cx="43.9651" cy="353.801" r="10" fill="#C8C8C8"/>
<circle cx="297.965" cy="437.801" r="10" fill="#C8C8C8"/>
<circle cx="543.965" cy="323.801" r="10" fill="#C8C8C8"/>
<circle cx="343.965" cy="10.8008" r="10" fill="#C8C8C8"/>
<defs>
<radialGradient id="paint0_radial_429_3618" cx="0" cy="0" r="1" gradientUnits="userSpaceOnUse" gradientTransform="translate(307.5 257.301) rotate(-161.016) scale(557.314 109.064)">
<stop offset="0.613236" stop-color="#00E43D"/>
<stop offset="0.779418" stop-color="#878787" stop-opacity="0.3"/>
</radialGradient>
</defs>
</svg>
