<svg width="1003" height="455" viewBox="0 0 1003 455" fill="none" xmlns="http://www.w3.org/2000/svg">
<path d="M1001.83 391.674C984.724 441.122 910.405 507.411 749.991 376.983C549.474 213.949 604.223 -89.7246 252.75 39.3013C-98.7229 168.327 -42.6097 373.748 183.287 421.843C409.184 469.938 574.233 430.209 544.226 277.638C514.219 125.066 197.34 -10.4603 134.489 154.414C71.6368 319.289 213.034 435.264 324.026 406.418C435.018 377.572 590.492 294.397 412.399 202.412C234.306 110.427 127.516 178.349 182.979 257.086C238.443 335.823 390.514 420.108 366.41 333.9C342.306 247.691 321.165 200.561 291.898 223.527C262.632 246.493 273.401 266.014 292 278.109C310.599 290.203 325.845 275.013 308.886 256.851" stroke="url(#paint0_radial_429_3610)" stroke-width="2"/>
<circle cx="593.965" cy="150.91" r="10" fill="#C8C8C8"/>
<circle cx="53.9651" cy="149.91" r="10" fill="#C8C8C8"/>
<circle cx="43.9651" cy="353.91" r="11" fill="#00E43D"/>
<circle cx="297.965" cy="437.91" r="10" fill="#C8C8C8"/>
<circle cx="543.965" cy="323.91" r="10" fill="#C8C8C8"/>
<circle cx="343.965" cy="10.9102" r="10" fill="#C8C8C8"/>
<defs>
<radialGradient id="paint0_radial_429_3610" cx="0" cy="0" r="1" gradientUnits="userSpaceOnUse" gradientTransform="translate(307.5 257.41) rotate(159.702) scale(488.859 95.6679)">
<stop offset="0.613236" stop-color="#00E43D"/>
<stop offset="0.779418" stop-color="#878787" stop-opacity="0.3"/>
</radialGradient>
</defs>
</svg>
