<svg width="1003" height="454" viewBox="0 0 1003 454" fill="none" xmlns="http://www.w3.org/2000/svg">
<path d="M1001.83 390.784C984.724 440.232 910.405 506.52 749.991 376.093C549.474 213.058 604.223 -90.6152 252.75 38.4107C-98.7229 167.437 -42.6097 372.857 183.287 420.952C409.184 469.047 574.233 429.319 544.226 276.747C514.219 124.175 197.34 -11.3509 134.489 153.524C71.6368 318.398 213.034 434.374 324.026 405.527C435.018 376.681 590.492 293.507 412.399 201.522C234.306 109.537 127.516 177.458 182.979 256.196C238.443 334.933 390.514 419.217 366.41 333.009C342.306 246.801 321.165 199.671 291.898 222.636C262.632 245.602 273.401 265.124 292 277.218C310.599 289.313 325.845 274.123 308.886 255.96" stroke="url(#paint0_radial_429_3602)" stroke-width="2"/>
<circle cx="593.965" cy="150.02" r="10" fill="#C8C8C8"/>
<circle cx="53.9651" cy="149.02" r="10" fill="#C8C8C8"/>
<circle cx="43.9651" cy="353.02" r="10" fill="#C8C8C8"/>
<circle cx="297.965" cy="437.02" r="11" fill="#00E43D"/>
<circle cx="543.965" cy="323.02" r="10" fill="#C8C8C8"/>
<circle cx="343.965" cy="10.0195" r="10" fill="#C8C8C8"/>
<defs>
<radialGradient id="paint0_radial_429_3602" cx="0" cy="0" r="1" gradientUnits="userSpaceOnUse" gradientTransform="translate(307.5 256.52) rotate(89.3923) scale(329.995 115.12)">
<stop offset="0.613236" stop-color="#00E43D"/>
<stop offset="0.779418" stop-color="#878787" stop-opacity="0.3"/>
</radialGradient>
</defs>
</svg>
