<svg width="1003" height="455" viewBox="0 0 1003 455" fill="none" xmlns="http://www.w3.org/2000/svg">
<path d="M1001.83 391.237C984.724 440.685 910.405 506.974 749.991 376.546C549.474 213.511 604.223 -90.1621 252.75 38.8638C-98.7229 167.89 -42.6097 373.31 183.287 421.405C409.184 469.501 574.233 429.772 544.226 277.2C514.219 124.628 197.34 -10.8978 134.489 153.977C71.6368 318.851 213.034 434.827 324.026 405.981C435.018 377.134 590.492 293.96 412.399 201.975C234.306 109.99 127.516 177.912 182.979 256.649C238.443 335.386 390.514 419.67 366.41 333.462C342.306 247.254 321.165 200.124 291.898 223.089C262.632 246.055 273.401 265.577 292 277.671C310.599 289.766 325.845 274.576 308.886 256.413" stroke="url(#paint0_radial_429_3642)" stroke-width="2"/>
<circle cx="593.965" cy="150.473" r="10" fill="#C8C8C8"/>
<circle cx="53.9651" cy="149.473" r="10" fill="#C8C8C8"/>
<circle cx="43.9651" cy="353.473" r="10" fill="#C8C8C8"/>
<circle cx="297.965" cy="437.473" r="10" fill="#C8C8C8"/>
<circle cx="543.965" cy="323.473" r="10" fill="#C8C8C8"/>
<circle cx="343.965" cy="10.4727" r="10" fill="#C8C8C8"/>
<defs>
<radialGradient id="paint0_radial_429_3642" cx="0" cy="0" r="1" gradientUnits="userSpaceOnUse" gradientTransform="translate(307.501 256.973) rotate(15.2148) scale(1209.91 79.9776)">
<stop offset="0.236471" stop-color="#C8C8C8" stop-opacity="0.3"/>
<stop offset="0.560111" stop-color="#00E43D"/>
<stop offset="0.822124" stop-color="#878787" stop-opacity="0.3"/>
</radialGradient>
</defs>
</svg>
