<svg width="1003" height="455" viewBox="0 0 1003 455" fill="none" xmlns="http://www.w3.org/2000/svg">
<path d="M1001.83 391.221C984.724 440.669 910.405 506.958 749.991 376.53C549.474 213.495 604.223 -90.1777 252.75 38.8482C-98.7229 167.874 -42.6097 373.294 183.287 421.39C409.184 469.485 574.233 429.756 544.226 277.184C514.219 124.613 197.34 -10.9134 134.489 153.961C71.6368 318.836 213.034 434.811 324.026 405.965C435.018 377.119 590.492 293.944 412.399 201.959C234.306 109.974 127.516 177.896 182.979 256.633C238.443 335.37 390.514 419.655 366.41 333.447C342.306 247.238 321.165 200.108 291.898 223.074C262.632 246.04 273.401 265.561 292 277.656C310.599 289.75 325.845 274.56 308.886 256.398" stroke="url(#paint0_radial_429_3570)" stroke-width="2"/>
<circle cx="593.965" cy="150.457" r="10" fill="#C8C8C8"/>
<circle cx="53.9651" cy="149.457" r="10" fill="#C8C8C8"/>
<circle cx="43.9651" cy="353.457" r="10" fill="#C8C8C8"/>
<circle cx="297.965" cy="437.457" r="10" fill="#C8C8C8"/>
<circle cx="543.965" cy="323.457" r="10" fill="#C8C8C8"/>
<circle cx="343.965" cy="10.457" r="10" fill="#C8C8C8"/>
<defs>
<radialGradient id="paint0_radial_429_3570" cx="0" cy="0" r="1" gradientUnits="userSpaceOnUse" gradientTransform="translate(307.5 256.957) rotate(83.3054) scale(240.183 98.9435)">
<stop offset="0.613236" stop-color="#00E43D"/>
<stop offset="0.75342" stop-color="#878787" stop-opacity="0.3"/>
</radialGradient>
</defs>
</svg>
