<svg width="1003" height="455" viewBox="0 0 1003 455" fill="none" xmlns="http://www.w3.org/2000/svg">
<path d="M1001.83 391.002C984.724 440.45 910.405 506.739 749.991 376.311C549.474 213.277 604.223 -90.3964 252.75 38.6294C-98.7229 167.655 -42.6097 373.076 183.287 421.171C409.184 469.266 574.233 429.537 544.226 276.966C514.219 124.394 197.34 -11.1322 134.489 153.742C71.6368 318.617 213.034 434.592 324.026 405.746C435.018 376.9 590.492 293.726 412.399 201.74C234.306 109.755 127.516 177.677 182.979 256.414C238.443 335.152 390.514 419.436 366.41 333.228C342.306 247.02 321.165 199.889 291.898 222.855C262.632 245.821 273.401 265.342 292 277.437C310.599 289.532 325.845 274.341 308.886 256.179" stroke="url(#paint0_radial_429_3586)" stroke-width="2"/>
<circle cx="593.965" cy="150.238" r="10" fill="#C8C8C8"/>
<circle cx="53.9651" cy="149.238" r="10" fill="#C8C8C8"/>
<circle cx="43.9651" cy="353.238" r="10" fill="#C8C8C8"/>
<circle cx="297.965" cy="437.238" r="10" fill="#C8C8C8"/>
<circle cx="543.965" cy="323.238" r="10" fill="#C8C8C8"/>
<circle cx="343.965" cy="10.2383" r="10" fill="#C8C8C8"/>
<defs>
<radialGradient id="paint0_radial_429_3586" cx="0" cy="0" r="1" gradientUnits="userSpaceOnUse" gradientTransform="translate(307.5 256.738) rotate(-85.7504) scale(242.908 58.8662)">
<stop offset="0.613236" stop-color="#00E43D"/>
<stop offset="0.779418" stop-color="#878787" stop-opacity="0.3"/>
</radialGradient>
</defs>
</svg>
