<svg width="1003" height="455" viewBox="0 0 1003 455" fill="none" xmlns="http://www.w3.org/2000/svg">
<path d="M1001.83 391.112C984.724 440.56 910.405 506.849 749.991 376.421C549.474 213.386 604.223 -90.2871 252.75 38.7388C-98.7229 167.765 -42.6097 373.185 183.287 421.28C409.184 469.376 574.233 429.647 544.226 277.075C514.219 124.503 197.34 -11.0228 134.489 153.852C71.6368 318.726 213.034 434.702 324.026 405.856C435.018 377.009 590.492 293.835 412.399 201.85C234.306 109.865 127.516 177.787 182.979 256.524C238.443 335.261 390.514 419.545 366.41 333.337C342.306 247.129 321.165 199.999 291.898 222.964C262.632 245.93 273.401 265.452 292 277.546C310.599 289.641 325.845 274.451 308.886 256.288" stroke="url(#paint0_radial_429_3578)" stroke-width="2"/>
<circle cx="593.965" cy="150.348" r="10" fill="#C8C8C8"/>
<circle cx="53.9651" cy="149.348" r="10" fill="#C8C8C8"/>
<circle cx="43.9651" cy="353.348" r="10" fill="#C8C8C8"/>
<circle cx="297.965" cy="437.348" r="10" fill="#C8C8C8"/>
<circle cx="543.965" cy="323.348" r="10" fill="#C8C8C8"/>
<circle cx="343.965" cy="10.3477" r="10" fill="#C8C8C8"/>
<defs>
<radialGradient id="paint0_radial_429_3578" cx="0" cy="0" r="1" gradientUnits="userSpaceOnUse" gradientTransform="translate(307.5 256.848) rotate(-156.412) scale(346.992 84.0898)">
<stop offset="0.613236" stop-color="#00E43D"/>
<stop offset="0.75342" stop-color="#878787" stop-opacity="0.3"/>
</radialGradient>
</defs>
</svg>
