<svg width="1003" height="455" viewBox="0 0 1003 455" fill="none" xmlns="http://www.w3.org/2000/svg">
<path d="M1001.83 391.547C984.724 440.995 910.405 507.284 749.991 376.856C549.474 213.822 604.223 -89.8515 252.75 39.1743C-98.7229 168.2 -42.6097 373.621 183.287 421.716C409.184 469.811 574.233 430.082 544.226 277.511C514.219 124.939 197.34 -10.5873 134.489 154.287C71.6368 319.162 213.034 435.137 324.026 406.291C435.018 377.445 590.492 294.27 412.399 202.285C234.306 110.3 127.516 178.222 182.979 256.959C238.443 335.696 390.514 419.981 366.41 333.773C342.306 247.565 321.165 200.434 291.898 223.4C262.632 246.366 273.401 265.887 292 277.982C310.599 290.077 325.845 274.886 308.886 256.724" stroke="url(#paint0_radial_429_3546)" stroke-width="2"/>
<circle cx="593.965" cy="150.783" r="10" fill="#C8C8C8"/>
<circle cx="53.9651" cy="149.783" r="10" fill="#C8C8C8"/>
<circle cx="43.9651" cy="353.783" r="10" fill="#C8C8C8"/>
<circle cx="297.965" cy="437.783" r="10" fill="#C8C8C8"/>
<circle cx="543.965" cy="323.783" r="10" fill="#C8C8C8"/>
<circle cx="343.965" cy="10.7832" r="10" fill="#C8C8C8"/>
<defs>
<radialGradient id="paint0_radial_429_3546" cx="0" cy="0" r="1" gradientUnits="userSpaceOnUse" gradientTransform="translate(307.5 257.283) rotate(89.168) scale(137.731 25.8107)">
<stop offset="0.683574" stop-color="#00E43D"/>
<stop offset="1" stop-color="#878787" stop-opacity="0.3"/>
</radialGradient>
</defs>
</svg>
