<svg width="1003" height="455" viewBox="0 0 1003 455" fill="none" xmlns="http://www.w3.org/2000/svg">
<path d="M1001.83 391.44C984.724 440.888 910.405 507.177 749.991 376.749C549.474 213.714 604.223 -89.9589 252.75 39.0669C-98.7229 168.093 -42.6097 373.513 183.287 421.608C409.184 469.704 574.233 429.975 544.226 277.403C514.219 124.831 197.34 -10.6947 134.489 154.18C71.6368 319.054 213.034 435.03 324.026 406.184C435.018 377.338 590.492 294.163 412.399 202.178C234.306 110.193 127.516 178.115 182.979 256.852C238.443 335.589 390.514 419.873 366.41 333.665C342.306 247.457 321.165 200.327 291.898 223.293C262.632 246.258 273.401 265.78 292 277.875C310.599 289.969 325.845 274.779 308.886 256.617" stroke="url(#paint0_radial_429_3554)" stroke-width="2"/>
<circle cx="593.965" cy="150.676" r="10" fill="#C8C8C8"/>
<circle cx="53.9651" cy="149.676" r="10" fill="#C8C8C8"/>
<circle cx="43.9651" cy="353.676" r="10" fill="#C8C8C8"/>
<circle cx="297.965" cy="437.676" r="10" fill="#C8C8C8"/>
<circle cx="543.965" cy="323.676" r="10" fill="#C8C8C8"/>
<circle cx="343.965" cy="10.6758" r="10" fill="#C8C8C8"/>
<defs>
<radialGradient id="paint0_radial_429_3554" cx="0" cy="0" r="1" gradientUnits="userSpaceOnUse" gradientTransform="translate(307.5 257.176) rotate(-152.433) scale(239.15 65.7621)">
<stop offset="0.613236" stop-color="#00E43D"/>
<stop offset="0.75342" stop-color="#878787" stop-opacity="0.3"/>
</radialGradient>
</defs>
</svg>
