<svg width="1003" height="456" viewBox="0 0 1003 456" fill="none" xmlns="http://www.w3.org/2000/svg">
<path d="M1001.83 392.456C984.724 441.903 910.405 508.192 749.991 377.765C549.474 214.73 604.223 -88.9433 252.75 40.0825C-98.7229 169.108 -42.6097 374.529 183.287 422.624C409.184 470.719 574.233 430.99 544.226 278.419C514.219 125.847 197.34 -9.67905 134.489 155.196C71.6368 320.07 213.034 436.046 324.026 407.199C435.018 378.353 590.492 295.179 412.399 203.194C234.306 111.209 127.516 179.13 182.979 257.868C238.443 336.605 390.514 420.889 366.41 334.681C342.306 248.473 321.165 201.343 291.898 224.308C262.632 247.274 273.401 266.796 292 278.89C310.599 290.985 325.845 275.795 308.886 257.632" stroke="url(#paint0_radial_429_3626)" stroke-width="2"/>
<circle cx="593.965" cy="151.691" r="10" fill="#C8C8C8"/>
<circle cx="53.9651" cy="150.691" r="10" fill="#C8C8C8"/>
<circle cx="43.9651" cy="354.691" r="10" fill="#C8C8C8"/>
<circle cx="297.965" cy="438.691" r="10" fill="#C8C8C8"/>
<circle cx="543.965" cy="324.691" r="10" fill="#C8C8C8"/>
<circle cx="344" cy="11.7266" r="11" fill="#00E43D"/>
<defs>
<radialGradient id="paint0_radial_429_3626" cx="0" cy="0" r="1" gradientUnits="userSpaceOnUse" gradientTransform="translate(307.5 258.191) rotate(-81.1641) scale(393.866 77.0781)">
<stop offset="0.613236" stop-color="#00E43D"/>
<stop offset="0.779418" stop-color="#878787" stop-opacity="0.3"/>
</radialGradient>
</defs>
</svg>
