<svg width="1003" height="455" viewBox="0 0 1003 455" fill="none" xmlns="http://www.w3.org/2000/svg">
<path d="M1001.83 391.655C984.724 441.103 910.405 507.391 749.991 376.964C549.474 213.929 604.223 -89.7441 252.75 39.2818C-98.7229 168.308 -42.6097 373.728 183.287 421.823C409.184 469.919 574.233 430.19 544.226 277.618C514.219 125.046 197.34 -10.4798 134.489 154.395C71.6368 319.269 213.034 435.245 324.026 406.399C435.018 377.552 590.492 294.378 412.399 202.393C234.306 110.408 127.516 178.33 182.979 257.067C238.443 335.804 390.514 420.088 366.41 333.88C342.306 247.672 321.165 200.542 291.898 223.507C262.632 246.473 273.401 265.995 292 278.089C310.599 290.184 325.845 274.994 308.886 256.831" stroke="url(#paint0_radial_429_3538)" stroke-width="2"/>
<circle cx="593.965" cy="150.891" r="10" fill="#C8C8C8"/>
<circle cx="53.9651" cy="149.891" r="10" fill="#C8C8C8"/>
<circle cx="43.9651" cy="353.891" r="10" fill="#C8C8C8"/>
<circle cx="297.965" cy="437.891" r="10" fill="#C8C8C8"/>
<circle cx="543.965" cy="323.891" r="10" fill="#C8C8C8"/>
<circle cx="343.965" cy="10.8906" r="10" fill="#C8C8C8"/>
<defs>
<radialGradient id="paint0_radial_429_3538" cx="0" cy="0" r="1" gradientUnits="userSpaceOnUse" gradientTransform="translate(307.5 257.391) rotate(-159.133) scale(142.871 24.2645)">
<stop offset="0.75" stop-color="#00E43D"/>
<stop offset="1" stop-color="#878787" stop-opacity="0.3"/>
</radialGradient>
</defs>
</svg>
