<svg width="1003" height="455" viewBox="0 0 1003 455" fill="none" xmlns="http://www.w3.org/2000/svg">
<path d="M1001.83 391.346C984.724 440.794 910.405 507.083 749.991 376.655C549.474 213.62 604.223 -90.0527 252.75 38.9732C-98.7229 167.999 -42.6097 373.419 183.287 421.515C409.184 469.61 574.233 429.881 544.226 277.309C514.219 124.738 197.34 -10.7884 134.489 154.086C71.6368 318.961 213.034 434.936 324.026 406.09C435.018 377.244 590.492 294.069 412.399 202.084C234.306 110.099 127.516 178.021 182.979 256.758C238.443 335.495 390.514 419.78 366.41 333.572C342.306 247.363 321.165 200.233 291.898 223.199C262.632 246.165 273.401 265.686 292 277.781C310.599 289.875 325.845 274.685 308.886 256.523" stroke="url(#paint0_radial_429_3634)" stroke-width="2"/>
<circle cx="593.93" cy="150.547" r="11" fill="#00E43D"/>
<circle cx="53.9651" cy="149.582" r="10" fill="#C8C8C8"/>
<circle cx="43.9651" cy="353.582" r="10" fill="#C8C8C8"/>
<circle cx="297.965" cy="437.582" r="10" fill="#C8C8C8"/>
<circle cx="543.965" cy="323.582" r="10" fill="#C8C8C8"/>
<circle cx="343.965" cy="10.582" r="10" fill="#C8C8C8"/>
<defs>
<radialGradient id="paint0_radial_429_3634" cx="0" cy="0" r="1" gradientUnits="userSpaceOnUse" gradientTransform="translate(307.5 257.082) rotate(-20.4031) scale(453.448 100.43)">
<stop offset="0.666018" stop-color="#00E43D"/>
<stop offset="0.822124" stop-color="#878787" stop-opacity="0.3"/>
</radialGradient>
</defs>
</svg>
