<svg width="1003" height="454" viewBox="0 0 1003 454" fill="none" xmlns="http://www.w3.org/2000/svg">
<path d="M1001.83 390.764C984.724 440.212 910.405 506.501 749.991 376.073C549.474 213.038 604.223 -90.6347 252.75 38.3911C-98.7229 167.417 -42.6097 372.837 183.287 420.933C409.184 469.028 574.233 429.299 544.226 276.727C514.219 124.156 197.34 -11.3705 134.489 153.504C71.6368 318.379 213.034 434.354 324.026 405.508C435.018 376.662 590.492 293.487 412.399 201.502C234.306 109.517 127.516 177.439 182.979 256.176C238.443 334.913 390.514 419.198 366.41 332.989C342.306 246.781 321.165 199.651 291.898 222.617C262.632 245.583 273.401 265.104 292 277.199C310.599 289.293 325.845 274.103 308.886 255.941" stroke="url(#paint0_radial_429_3536)" stroke-width="2"/>
<circle cx="593.965" cy="150" r="10" fill="#C8C8C8"/>
<circle cx="53.9651" cy="149" r="10" fill="#C8C8C8"/>
<circle cx="43.9651" cy="353" r="10" fill="#C8C8C8"/>
<circle cx="297.965" cy="437" r="10" fill="#C8C8C8"/>
<circle cx="543.965" cy="323" r="10" fill="#C8C8C8"/>
<circle cx="343.965" cy="10" r="10" fill="#C8C8C8"/>
<defs>
<radialGradient id="paint0_radial_429_3536" cx="0" cy="0" r="1" gradientUnits="userSpaceOnUse" gradientTransform="translate(307.5 256.5) rotate(72.646) scale(41.9076 7.11739)">
<stop offset="0.75" stop-color="#00E43D"/>
<stop offset="1" stop-color="#878787" stop-opacity="0.3"/>
</radialGradient>
</defs>
</svg>
