<svg width="1003" height="455" viewBox="0 0 1003 455" fill="none" xmlns="http://www.w3.org/2000/svg">
<path d="M1001.83 390.893C984.724 440.341 910.405 506.63 749.991 376.202C549.474 213.167 604.223 -90.5058 252.75 38.52C-98.7229 167.546 -42.6097 372.966 183.287 421.062C409.184 469.157 574.233 429.428 544.226 276.856C514.219 124.285 197.34 -11.2416 134.489 153.633C71.6368 318.508 213.034 434.483 324.026 405.637C435.018 376.791 590.492 293.616 412.399 201.631C234.306 109.646 127.516 177.568 182.979 256.305C238.443 335.042 390.514 419.327 366.41 333.118C342.306 246.91 321.165 199.78 291.898 222.746C262.632 245.711 273.401 265.233 292 277.328C310.599 289.422 325.845 274.232 308.886 256.07" stroke="url(#paint0_radial_429_3594)" stroke-width="2"/>
<circle cx="593.965" cy="150.129" r="10" fill="#C8C8C8"/>
<circle cx="53.9651" cy="149.129" r="10" fill="#C8C8C8"/>
<circle cx="43.9651" cy="353.129" r="10" fill="#C8C8C8"/>
<circle cx="297.965" cy="437.129" r="10" fill="#C8C8C8"/>
<circle cx="543.965" cy="323.129" r="11" fill="#00E43D"/>
<circle cx="343.965" cy="10.1289" r="10" fill="#C8C8C8"/>
<defs>
<radialGradient id="paint0_radial_429_3594" cx="0" cy="0" r="1" gradientUnits="userSpaceOnUse" gradientTransform="translate(307.5 256.629) rotate(16.2896) scale(379.223 91.9007)">
<stop offset="0.613236" stop-color="#00E43D"/>
<stop offset="0.779418" stop-color="#878787" stop-opacity="0.3"/>
</radialGradient>
</defs>
</svg>
